%TF.GenerationSoftware,KiCad,Pcbnew,8.0.8*%
%TF.CreationDate,2025-03-05T20:49:48-06:00*%
%TF.ProjectId,Incipit11,496e6369-7069-4743-9131-2e6b69636164,A*%
%TF.SameCoordinates,Original*%
%TF.FileFunction,Drillmap*%
%TF.FilePolarity,Positive*%
%FSLAX45Y45*%
G04 Gerber Fmt 4.5, Leading zero omitted, Abs format (unit mm)*
G04 Created by KiCad (PCBNEW 8.0.8) date 2025-03-05 20:49:48*
%MOMM*%
%LPD*%
G01*
G04 APERTURE LIST*
%ADD10C,0.050000*%
%ADD11C,0.200000*%
%ADD12C,0.100000*%
%ADD13C,0.110000*%
G04 APERTURE END LIST*
D10*
X10500000Y-10540000D02*
G75*
G02*
X10700000Y-10340000I200000J0D01*
G01*
X10700000Y-7600000D02*
G75*
G02*
X10500000Y-7400000I0J200000D01*
G01*
X10500000Y-7400000D02*
X10500000Y-7000000D01*
X10700000Y-10340000D02*
X10940000Y-10340000D01*
X10940000Y-7600000D02*
X10940000Y-10340000D01*
X7240000Y-10340000D02*
X7000000Y-10340000D01*
X7440000Y-7000000D02*
X10500000Y-7000000D01*
X10500000Y-10940000D02*
X7440000Y-10940000D01*
X7440000Y-7400000D02*
X7440000Y-7000000D01*
X7240000Y-7600000D02*
X7000000Y-7600000D01*
X7440000Y-10540000D02*
X7440000Y-10940000D01*
X10500000Y-10540000D02*
X10500000Y-10940000D01*
X7000000Y-10340000D02*
X7000000Y-7600000D01*
X7240000Y-10340000D02*
G75*
G02*
X7440000Y-10540000I0J-200000D01*
G01*
X10700000Y-7600000D02*
X10940000Y-7600000D01*
X7440000Y-7400000D02*
G75*
G02*
X7240000Y-7600000I-200000J0D01*
G01*
D11*
D12*
X7145000Y-7725000D02*
X7175000Y-7755000D01*
X7175000Y-7725000D02*
X7145000Y-7755000D01*
X7755000Y-8245000D02*
X7785000Y-8275000D01*
X7785000Y-8245000D02*
X7755000Y-8275000D01*
X7865000Y-7355000D02*
X7895000Y-7385000D01*
X7895000Y-7355000D02*
X7865000Y-7385000D01*
X8065000Y-9625000D02*
X8095000Y-9655000D01*
X8095000Y-9625000D02*
X8065000Y-9655000D01*
X8075000Y-7905000D02*
X8105000Y-7935000D01*
X8105000Y-7905000D02*
X8075000Y-7935000D01*
X8145000Y-8245000D02*
X8175000Y-8275000D01*
X8175000Y-8245000D02*
X8145000Y-8275000D01*
X8775000Y-9285000D02*
X8805000Y-9315000D01*
X8805000Y-9285000D02*
X8775000Y-9315000D01*
X8975000Y-7695000D02*
X9005000Y-7725000D01*
X9005000Y-7695000D02*
X8975000Y-7725000D01*
X10035000Y-10765000D02*
X10065000Y-10795000D01*
X10065000Y-10765000D02*
X10035000Y-10795000D01*
X10385000Y-7295000D02*
X10415000Y-7325000D01*
X10415000Y-7295000D02*
X10385000Y-7325000D01*
X8667500Y-7160000D02*
G75*
G02*
X8632500Y-7160000I-17500J0D01*
G01*
X8632500Y-7160000D02*
G75*
G02*
X8667500Y-7160000I17500J0D01*
G01*
X8857500Y-8020000D02*
G75*
G02*
X8822500Y-8020000I-17500J0D01*
G01*
X8822500Y-8020000D02*
G75*
G02*
X8857500Y-8020000I17500J0D01*
G01*
X8937500Y-7160000D02*
G75*
G02*
X8902500Y-7160000I-17500J0D01*
G01*
X8902500Y-7160000D02*
G75*
G02*
X8937500Y-7160000I17500J0D01*
G01*
X9037500Y-8230000D02*
G75*
G02*
X9002500Y-8230000I-17500J0D01*
G01*
X9002500Y-8230000D02*
G75*
G02*
X9037500Y-8230000I17500J0D01*
G01*
X9157500Y-7540000D02*
G75*
G02*
X9122500Y-7540000I-17500J0D01*
G01*
X9122500Y-7540000D02*
G75*
G02*
X9157500Y-7540000I17500J0D01*
G01*
X9197500Y-8520000D02*
G75*
G02*
X9162500Y-8520000I-17500J0D01*
G01*
X9162500Y-8520000D02*
G75*
G02*
X9197500Y-8520000I17500J0D01*
G01*
X9547500Y-7860000D02*
G75*
G02*
X9512500Y-7860000I-17500J0D01*
G01*
X9512500Y-7860000D02*
G75*
G02*
X9547500Y-7860000I17500J0D01*
G01*
X9637500Y-9670000D02*
G75*
G02*
X9602500Y-9670000I-17500J0D01*
G01*
X9602500Y-9670000D02*
G75*
G02*
X9637500Y-9670000I17500J0D01*
G01*
X9777500Y-9670000D02*
G75*
G02*
X9742500Y-9670000I-17500J0D01*
G01*
X9742500Y-9670000D02*
G75*
G02*
X9777500Y-9670000I17500J0D01*
G01*
X9797500Y-9490000D02*
G75*
G02*
X9762500Y-9490000I-17500J0D01*
G01*
X9762500Y-9490000D02*
G75*
G02*
X9797500Y-9490000I17500J0D01*
G01*
X9817500Y-7120000D02*
G75*
G02*
X9782500Y-7120000I-17500J0D01*
G01*
X9782500Y-7120000D02*
G75*
G02*
X9817500Y-7120000I17500J0D01*
G01*
X9827500Y-7860000D02*
G75*
G02*
X9792500Y-7860000I-17500J0D01*
G01*
X9792500Y-7860000D02*
G75*
G02*
X9827500Y-7860000I17500J0D01*
G01*
X10057500Y-7690000D02*
G75*
G02*
X10022500Y-7690000I-17500J0D01*
G01*
X10022500Y-7690000D02*
G75*
G02*
X10057500Y-7690000I17500J0D01*
G01*
X10327500Y-9900000D02*
G75*
G02*
X10292500Y-9900000I-17500J0D01*
G01*
X10292500Y-9900000D02*
G75*
G02*
X10327500Y-9900000I17500J0D01*
G01*
X10507500Y-9900000D02*
G75*
G02*
X10472500Y-9900000I-17500J0D01*
G01*
X10472500Y-9900000D02*
G75*
G02*
X10507500Y-9900000I17500J0D01*
G01*
X10747500Y-10110000D02*
G75*
G02*
X10712500Y-10110000I-17500J0D01*
G01*
X10712500Y-10110000D02*
G75*
G02*
X10747500Y-10110000I17500J0D01*
G01*
X10827500Y-7740000D02*
G75*
G02*
X10792500Y-7740000I-17500J0D01*
G01*
X10792500Y-7740000D02*
G75*
G02*
X10827500Y-7740000I17500J0D01*
G01*
X9398000Y-8078000D02*
X9398000Y-8178000D01*
X9348000Y-8128000D02*
X9448000Y-8128000D01*
X9398000Y-8332000D02*
X9398000Y-8432000D01*
X9348000Y-8382000D02*
X9448000Y-8382000D01*
X10414000Y-8078000D02*
X10414000Y-8178000D01*
X10364000Y-8128000D02*
X10464000Y-8128000D01*
X10414000Y-8332000D02*
X10414000Y-8432000D01*
X10364000Y-8382000D02*
X10464000Y-8382000D01*
X10414000Y-8586000D02*
X10414000Y-8686000D01*
X10364000Y-8636000D02*
X10464000Y-8636000D01*
X10668000Y-8078000D02*
X10668000Y-8178000D01*
X10618000Y-8128000D02*
X10718000Y-8128000D01*
X10668000Y-8332000D02*
X10668000Y-8432000D01*
X10618000Y-8382000D02*
X10718000Y-8382000D01*
X10668000Y-8586000D02*
X10668000Y-8686000D01*
X10618000Y-8636000D02*
X10718000Y-8636000D01*
X10668000Y-9094000D02*
X10668000Y-9194000D01*
X10618000Y-9144000D02*
X10718000Y-9144000D01*
X10668000Y-9348000D02*
X10668000Y-9448000D01*
X10618000Y-9398000D02*
X10718000Y-9398000D01*
X10668000Y-9602000D02*
X10668000Y-9702000D01*
X10618000Y-9652000D02*
X10718000Y-9652000D01*
D13*
X7718891Y-10538891D02*
X7718891Y-10461109D01*
X7641109Y-10461109D01*
X7641109Y-10538891D01*
X7718891Y-10538891D01*
X8068891Y-10538891D02*
X8068891Y-10461109D01*
X7991109Y-10461109D01*
X7991109Y-10538891D01*
X8068891Y-10538891D01*
X8418891Y-10538891D02*
X8418891Y-10461109D01*
X8341109Y-10461109D01*
X8341109Y-10538891D01*
X8418891Y-10538891D01*
X8768891Y-10538891D02*
X8768891Y-10461109D01*
X8691109Y-10461109D01*
X8691109Y-10538891D01*
X8768891Y-10538891D01*
X9118891Y-10538891D02*
X9118891Y-10461109D01*
X9041109Y-10461109D01*
X9041109Y-10538891D01*
X9118891Y-10538891D01*
X9468891Y-10538891D02*
X9468891Y-10461109D01*
X9391109Y-10461109D01*
X9391109Y-10538891D01*
X9468891Y-10538891D01*
D11*
X7258277Y-11253984D02*
X7258277Y-11053984D01*
X7258277Y-11053984D02*
X7305896Y-11053984D01*
X7305896Y-11053984D02*
X7334467Y-11063508D01*
X7334467Y-11063508D02*
X7353515Y-11082555D01*
X7353515Y-11082555D02*
X7363039Y-11101603D01*
X7363039Y-11101603D02*
X7372562Y-11139698D01*
X7372562Y-11139698D02*
X7372562Y-11168270D01*
X7372562Y-11168270D02*
X7363039Y-11206365D01*
X7363039Y-11206365D02*
X7353515Y-11225412D01*
X7353515Y-11225412D02*
X7334467Y-11244460D01*
X7334467Y-11244460D02*
X7305896Y-11253984D01*
X7305896Y-11253984D02*
X7258277Y-11253984D01*
X7458277Y-11253984D02*
X7458277Y-11120650D01*
X7458277Y-11158746D02*
X7467801Y-11139698D01*
X7467801Y-11139698D02*
X7477324Y-11130174D01*
X7477324Y-11130174D02*
X7496372Y-11120650D01*
X7496372Y-11120650D02*
X7515420Y-11120650D01*
X7582086Y-11253984D02*
X7582086Y-11120650D01*
X7582086Y-11053984D02*
X7572562Y-11063508D01*
X7572562Y-11063508D02*
X7582086Y-11073031D01*
X7582086Y-11073031D02*
X7591610Y-11063508D01*
X7591610Y-11063508D02*
X7582086Y-11053984D01*
X7582086Y-11053984D02*
X7582086Y-11073031D01*
X7705896Y-11253984D02*
X7686848Y-11244460D01*
X7686848Y-11244460D02*
X7677324Y-11225412D01*
X7677324Y-11225412D02*
X7677324Y-11053984D01*
X7810658Y-11253984D02*
X7791610Y-11244460D01*
X7791610Y-11244460D02*
X7782086Y-11225412D01*
X7782086Y-11225412D02*
X7782086Y-11053984D01*
X8039229Y-11253984D02*
X8039229Y-11053984D01*
X8039229Y-11053984D02*
X8105896Y-11196841D01*
X8105896Y-11196841D02*
X8172562Y-11053984D01*
X8172562Y-11053984D02*
X8172562Y-11253984D01*
X8353515Y-11253984D02*
X8353515Y-11149222D01*
X8353515Y-11149222D02*
X8343991Y-11130174D01*
X8343991Y-11130174D02*
X8324943Y-11120650D01*
X8324943Y-11120650D02*
X8286848Y-11120650D01*
X8286848Y-11120650D02*
X8267801Y-11130174D01*
X8353515Y-11244460D02*
X8334467Y-11253984D01*
X8334467Y-11253984D02*
X8286848Y-11253984D01*
X8286848Y-11253984D02*
X8267801Y-11244460D01*
X8267801Y-11244460D02*
X8258277Y-11225412D01*
X8258277Y-11225412D02*
X8258277Y-11206365D01*
X8258277Y-11206365D02*
X8267801Y-11187317D01*
X8267801Y-11187317D02*
X8286848Y-11177793D01*
X8286848Y-11177793D02*
X8334467Y-11177793D01*
X8334467Y-11177793D02*
X8353515Y-11168270D01*
X8448753Y-11120650D02*
X8448753Y-11320650D01*
X8448753Y-11130174D02*
X8467801Y-11120650D01*
X8467801Y-11120650D02*
X8505896Y-11120650D01*
X8505896Y-11120650D02*
X8524944Y-11130174D01*
X8524944Y-11130174D02*
X8534467Y-11139698D01*
X8534467Y-11139698D02*
X8543991Y-11158746D01*
X8543991Y-11158746D02*
X8543991Y-11215888D01*
X8543991Y-11215888D02*
X8534467Y-11234936D01*
X8534467Y-11234936D02*
X8524944Y-11244460D01*
X8524944Y-11244460D02*
X8505896Y-11253984D01*
X8505896Y-11253984D02*
X8467801Y-11253984D01*
X8467801Y-11253984D02*
X8448753Y-11244460D01*
X8629705Y-11234936D02*
X8639229Y-11244460D01*
X8639229Y-11244460D02*
X8629705Y-11253984D01*
X8629705Y-11253984D02*
X8620182Y-11244460D01*
X8620182Y-11244460D02*
X8629705Y-11234936D01*
X8629705Y-11234936D02*
X8629705Y-11253984D01*
X8629705Y-11130174D02*
X8639229Y-11139698D01*
X8639229Y-11139698D02*
X8629705Y-11149222D01*
X8629705Y-11149222D02*
X8620182Y-11139698D01*
X8620182Y-11139698D02*
X8629705Y-11130174D01*
X8629705Y-11130174D02*
X8629705Y-11149222D01*
D12*
X6967500Y-11567500D02*
X6997500Y-11597500D01*
X6997500Y-11567500D02*
X6967500Y-11597500D01*
D11*
X7296372Y-11473984D02*
X7315420Y-11473984D01*
X7315420Y-11473984D02*
X7334467Y-11483508D01*
X7334467Y-11483508D02*
X7343991Y-11493031D01*
X7343991Y-11493031D02*
X7353515Y-11512079D01*
X7353515Y-11512079D02*
X7363039Y-11550174D01*
X7363039Y-11550174D02*
X7363039Y-11597793D01*
X7363039Y-11597793D02*
X7353515Y-11635888D01*
X7353515Y-11635888D02*
X7343991Y-11654936D01*
X7343991Y-11654936D02*
X7334467Y-11664460D01*
X7334467Y-11664460D02*
X7315420Y-11673984D01*
X7315420Y-11673984D02*
X7296372Y-11673984D01*
X7296372Y-11673984D02*
X7277324Y-11664460D01*
X7277324Y-11664460D02*
X7267801Y-11654936D01*
X7267801Y-11654936D02*
X7258277Y-11635888D01*
X7258277Y-11635888D02*
X7248753Y-11597793D01*
X7248753Y-11597793D02*
X7248753Y-11550174D01*
X7248753Y-11550174D02*
X7258277Y-11512079D01*
X7258277Y-11512079D02*
X7267801Y-11493031D01*
X7267801Y-11493031D02*
X7277324Y-11483508D01*
X7277324Y-11483508D02*
X7296372Y-11473984D01*
X7448753Y-11654936D02*
X7458277Y-11664460D01*
X7458277Y-11664460D02*
X7448753Y-11673984D01*
X7448753Y-11673984D02*
X7439229Y-11664460D01*
X7439229Y-11664460D02*
X7448753Y-11654936D01*
X7448753Y-11654936D02*
X7448753Y-11673984D01*
X7524943Y-11473984D02*
X7648753Y-11473984D01*
X7648753Y-11473984D02*
X7582086Y-11550174D01*
X7582086Y-11550174D02*
X7610658Y-11550174D01*
X7610658Y-11550174D02*
X7629705Y-11559698D01*
X7629705Y-11559698D02*
X7639229Y-11569222D01*
X7639229Y-11569222D02*
X7648753Y-11588269D01*
X7648753Y-11588269D02*
X7648753Y-11635888D01*
X7648753Y-11635888D02*
X7639229Y-11654936D01*
X7639229Y-11654936D02*
X7629705Y-11664460D01*
X7629705Y-11664460D02*
X7610658Y-11673984D01*
X7610658Y-11673984D02*
X7553515Y-11673984D01*
X7553515Y-11673984D02*
X7534467Y-11664460D01*
X7534467Y-11664460D02*
X7524943Y-11654936D01*
X7772562Y-11473984D02*
X7791610Y-11473984D01*
X7791610Y-11473984D02*
X7810658Y-11483508D01*
X7810658Y-11483508D02*
X7820182Y-11493031D01*
X7820182Y-11493031D02*
X7829705Y-11512079D01*
X7829705Y-11512079D02*
X7839229Y-11550174D01*
X7839229Y-11550174D02*
X7839229Y-11597793D01*
X7839229Y-11597793D02*
X7829705Y-11635888D01*
X7829705Y-11635888D02*
X7820182Y-11654936D01*
X7820182Y-11654936D02*
X7810658Y-11664460D01*
X7810658Y-11664460D02*
X7791610Y-11673984D01*
X7791610Y-11673984D02*
X7772562Y-11673984D01*
X7772562Y-11673984D02*
X7753515Y-11664460D01*
X7753515Y-11664460D02*
X7743991Y-11654936D01*
X7743991Y-11654936D02*
X7734467Y-11635888D01*
X7734467Y-11635888D02*
X7724943Y-11597793D01*
X7724943Y-11597793D02*
X7724943Y-11550174D01*
X7724943Y-11550174D02*
X7734467Y-11512079D01*
X7734467Y-11512079D02*
X7743991Y-11493031D01*
X7743991Y-11493031D02*
X7753515Y-11483508D01*
X7753515Y-11483508D02*
X7772562Y-11473984D01*
X7963039Y-11473984D02*
X7982086Y-11473984D01*
X7982086Y-11473984D02*
X8001134Y-11483508D01*
X8001134Y-11483508D02*
X8010658Y-11493031D01*
X8010658Y-11493031D02*
X8020182Y-11512079D01*
X8020182Y-11512079D02*
X8029705Y-11550174D01*
X8029705Y-11550174D02*
X8029705Y-11597793D01*
X8029705Y-11597793D02*
X8020182Y-11635888D01*
X8020182Y-11635888D02*
X8010658Y-11654936D01*
X8010658Y-11654936D02*
X8001134Y-11664460D01*
X8001134Y-11664460D02*
X7982086Y-11673984D01*
X7982086Y-11673984D02*
X7963039Y-11673984D01*
X7963039Y-11673984D02*
X7943991Y-11664460D01*
X7943991Y-11664460D02*
X7934467Y-11654936D01*
X7934467Y-11654936D02*
X7924943Y-11635888D01*
X7924943Y-11635888D02*
X7915420Y-11597793D01*
X7915420Y-11597793D02*
X7915420Y-11550174D01*
X7915420Y-11550174D02*
X7924943Y-11512079D01*
X7924943Y-11512079D02*
X7934467Y-11493031D01*
X7934467Y-11493031D02*
X7943991Y-11483508D01*
X7943991Y-11483508D02*
X7963039Y-11473984D01*
X8115420Y-11673984D02*
X8115420Y-11540650D01*
X8115420Y-11559698D02*
X8124943Y-11550174D01*
X8124943Y-11550174D02*
X8143991Y-11540650D01*
X8143991Y-11540650D02*
X8172563Y-11540650D01*
X8172563Y-11540650D02*
X8191610Y-11550174D01*
X8191610Y-11550174D02*
X8201134Y-11569222D01*
X8201134Y-11569222D02*
X8201134Y-11673984D01*
X8201134Y-11569222D02*
X8210658Y-11550174D01*
X8210658Y-11550174D02*
X8229705Y-11540650D01*
X8229705Y-11540650D02*
X8258277Y-11540650D01*
X8258277Y-11540650D02*
X8277324Y-11550174D01*
X8277324Y-11550174D02*
X8286848Y-11569222D01*
X8286848Y-11569222D02*
X8286848Y-11673984D01*
X8382086Y-11673984D02*
X8382086Y-11540650D01*
X8382086Y-11559698D02*
X8391610Y-11550174D01*
X8391610Y-11550174D02*
X8410658Y-11540650D01*
X8410658Y-11540650D02*
X8439229Y-11540650D01*
X8439229Y-11540650D02*
X8458277Y-11550174D01*
X8458277Y-11550174D02*
X8467801Y-11569222D01*
X8467801Y-11569222D02*
X8467801Y-11673984D01*
X8467801Y-11569222D02*
X8477325Y-11550174D01*
X8477325Y-11550174D02*
X8496372Y-11540650D01*
X8496372Y-11540650D02*
X8524944Y-11540650D01*
X8524944Y-11540650D02*
X8543991Y-11550174D01*
X8543991Y-11550174D02*
X8553515Y-11569222D01*
X8553515Y-11569222D02*
X8553515Y-11673984D01*
X8943991Y-11464460D02*
X8772563Y-11721603D01*
X9201134Y-11473984D02*
X9220182Y-11473984D01*
X9220182Y-11473984D02*
X9239229Y-11483508D01*
X9239229Y-11483508D02*
X9248753Y-11493031D01*
X9248753Y-11493031D02*
X9258277Y-11512079D01*
X9258277Y-11512079D02*
X9267801Y-11550174D01*
X9267801Y-11550174D02*
X9267801Y-11597793D01*
X9267801Y-11597793D02*
X9258277Y-11635888D01*
X9258277Y-11635888D02*
X9248753Y-11654936D01*
X9248753Y-11654936D02*
X9239229Y-11664460D01*
X9239229Y-11664460D02*
X9220182Y-11673984D01*
X9220182Y-11673984D02*
X9201134Y-11673984D01*
X9201134Y-11673984D02*
X9182087Y-11664460D01*
X9182087Y-11664460D02*
X9172563Y-11654936D01*
X9172563Y-11654936D02*
X9163039Y-11635888D01*
X9163039Y-11635888D02*
X9153515Y-11597793D01*
X9153515Y-11597793D02*
X9153515Y-11550174D01*
X9153515Y-11550174D02*
X9163039Y-11512079D01*
X9163039Y-11512079D02*
X9172563Y-11493031D01*
X9172563Y-11493031D02*
X9182087Y-11483508D01*
X9182087Y-11483508D02*
X9201134Y-11473984D01*
X9353515Y-11654936D02*
X9363039Y-11664460D01*
X9363039Y-11664460D02*
X9353515Y-11673984D01*
X9353515Y-11673984D02*
X9343991Y-11664460D01*
X9343991Y-11664460D02*
X9353515Y-11654936D01*
X9353515Y-11654936D02*
X9353515Y-11673984D01*
X9486848Y-11473984D02*
X9505896Y-11473984D01*
X9505896Y-11473984D02*
X9524944Y-11483508D01*
X9524944Y-11483508D02*
X9534468Y-11493031D01*
X9534468Y-11493031D02*
X9543991Y-11512079D01*
X9543991Y-11512079D02*
X9553515Y-11550174D01*
X9553515Y-11550174D02*
X9553515Y-11597793D01*
X9553515Y-11597793D02*
X9543991Y-11635888D01*
X9543991Y-11635888D02*
X9534468Y-11654936D01*
X9534468Y-11654936D02*
X9524944Y-11664460D01*
X9524944Y-11664460D02*
X9505896Y-11673984D01*
X9505896Y-11673984D02*
X9486848Y-11673984D01*
X9486848Y-11673984D02*
X9467801Y-11664460D01*
X9467801Y-11664460D02*
X9458277Y-11654936D01*
X9458277Y-11654936D02*
X9448753Y-11635888D01*
X9448753Y-11635888D02*
X9439229Y-11597793D01*
X9439229Y-11597793D02*
X9439229Y-11550174D01*
X9439229Y-11550174D02*
X9448753Y-11512079D01*
X9448753Y-11512079D02*
X9458277Y-11493031D01*
X9458277Y-11493031D02*
X9467801Y-11483508D01*
X9467801Y-11483508D02*
X9486848Y-11473984D01*
X9743991Y-11673984D02*
X9629706Y-11673984D01*
X9686848Y-11673984D02*
X9686848Y-11473984D01*
X9686848Y-11473984D02*
X9667801Y-11502555D01*
X9667801Y-11502555D02*
X9648753Y-11521603D01*
X9648753Y-11521603D02*
X9629706Y-11531127D01*
X9934468Y-11673984D02*
X9820182Y-11673984D01*
X9877325Y-11673984D02*
X9877325Y-11473984D01*
X9877325Y-11473984D02*
X9858277Y-11502555D01*
X9858277Y-11502555D02*
X9839229Y-11521603D01*
X9839229Y-11521603D02*
X9820182Y-11531127D01*
X10048753Y-11559698D02*
X10029706Y-11550174D01*
X10029706Y-11550174D02*
X10020182Y-11540650D01*
X10020182Y-11540650D02*
X10010658Y-11521603D01*
X10010658Y-11521603D02*
X10010658Y-11512079D01*
X10010658Y-11512079D02*
X10020182Y-11493031D01*
X10020182Y-11493031D02*
X10029706Y-11483508D01*
X10029706Y-11483508D02*
X10048753Y-11473984D01*
X10048753Y-11473984D02*
X10086849Y-11473984D01*
X10086849Y-11473984D02*
X10105896Y-11483508D01*
X10105896Y-11483508D02*
X10115420Y-11493031D01*
X10115420Y-11493031D02*
X10124944Y-11512079D01*
X10124944Y-11512079D02*
X10124944Y-11521603D01*
X10124944Y-11521603D02*
X10115420Y-11540650D01*
X10115420Y-11540650D02*
X10105896Y-11550174D01*
X10105896Y-11550174D02*
X10086849Y-11559698D01*
X10086849Y-11559698D02*
X10048753Y-11559698D01*
X10048753Y-11559698D02*
X10029706Y-11569222D01*
X10029706Y-11569222D02*
X10020182Y-11578746D01*
X10020182Y-11578746D02*
X10010658Y-11597793D01*
X10010658Y-11597793D02*
X10010658Y-11635888D01*
X10010658Y-11635888D02*
X10020182Y-11654936D01*
X10020182Y-11654936D02*
X10029706Y-11664460D01*
X10029706Y-11664460D02*
X10048753Y-11673984D01*
X10048753Y-11673984D02*
X10086849Y-11673984D01*
X10086849Y-11673984D02*
X10105896Y-11664460D01*
X10105896Y-11664460D02*
X10115420Y-11654936D01*
X10115420Y-11654936D02*
X10124944Y-11635888D01*
X10124944Y-11635888D02*
X10124944Y-11597793D01*
X10124944Y-11597793D02*
X10115420Y-11578746D01*
X10115420Y-11578746D02*
X10105896Y-11569222D01*
X10105896Y-11569222D02*
X10086849Y-11559698D01*
X10201134Y-11473984D02*
X10201134Y-11512079D01*
X10277325Y-11473984D02*
X10277325Y-11512079D01*
X10572563Y-11750174D02*
X10563039Y-11740650D01*
X10563039Y-11740650D02*
X10543991Y-11712079D01*
X10543991Y-11712079D02*
X10534468Y-11693031D01*
X10534468Y-11693031D02*
X10524944Y-11664460D01*
X10524944Y-11664460D02*
X10515420Y-11616841D01*
X10515420Y-11616841D02*
X10515420Y-11578746D01*
X10515420Y-11578746D02*
X10524944Y-11531127D01*
X10524944Y-11531127D02*
X10534468Y-11502555D01*
X10534468Y-11502555D02*
X10543991Y-11483508D01*
X10543991Y-11483508D02*
X10563039Y-11454936D01*
X10563039Y-11454936D02*
X10572563Y-11445412D01*
X10753515Y-11673984D02*
X10639230Y-11673984D01*
X10696372Y-11673984D02*
X10696372Y-11473984D01*
X10696372Y-11473984D02*
X10677325Y-11502555D01*
X10677325Y-11502555D02*
X10658277Y-11521603D01*
X10658277Y-11521603D02*
X10639230Y-11531127D01*
X10877325Y-11473984D02*
X10896372Y-11473984D01*
X10896372Y-11473984D02*
X10915420Y-11483508D01*
X10915420Y-11483508D02*
X10924944Y-11493031D01*
X10924944Y-11493031D02*
X10934468Y-11512079D01*
X10934468Y-11512079D02*
X10943991Y-11550174D01*
X10943991Y-11550174D02*
X10943991Y-11597793D01*
X10943991Y-11597793D02*
X10934468Y-11635888D01*
X10934468Y-11635888D02*
X10924944Y-11654936D01*
X10924944Y-11654936D02*
X10915420Y-11664460D01*
X10915420Y-11664460D02*
X10896372Y-11673984D01*
X10896372Y-11673984D02*
X10877325Y-11673984D01*
X10877325Y-11673984D02*
X10858277Y-11664460D01*
X10858277Y-11664460D02*
X10848753Y-11654936D01*
X10848753Y-11654936D02*
X10839230Y-11635888D01*
X10839230Y-11635888D02*
X10829706Y-11597793D01*
X10829706Y-11597793D02*
X10829706Y-11550174D01*
X10829706Y-11550174D02*
X10839230Y-11512079D01*
X10839230Y-11512079D02*
X10848753Y-11493031D01*
X10848753Y-11493031D02*
X10858277Y-11483508D01*
X10858277Y-11483508D02*
X10877325Y-11473984D01*
X11182087Y-11673984D02*
X11182087Y-11473984D01*
X11267801Y-11673984D02*
X11267801Y-11569222D01*
X11267801Y-11569222D02*
X11258277Y-11550174D01*
X11258277Y-11550174D02*
X11239230Y-11540650D01*
X11239230Y-11540650D02*
X11210658Y-11540650D01*
X11210658Y-11540650D02*
X11191610Y-11550174D01*
X11191610Y-11550174D02*
X11182087Y-11559698D01*
X11391610Y-11673984D02*
X11372563Y-11664460D01*
X11372563Y-11664460D02*
X11363039Y-11654936D01*
X11363039Y-11654936D02*
X11353515Y-11635888D01*
X11353515Y-11635888D02*
X11353515Y-11578746D01*
X11353515Y-11578746D02*
X11363039Y-11559698D01*
X11363039Y-11559698D02*
X11372563Y-11550174D01*
X11372563Y-11550174D02*
X11391610Y-11540650D01*
X11391610Y-11540650D02*
X11420182Y-11540650D01*
X11420182Y-11540650D02*
X11439230Y-11550174D01*
X11439230Y-11550174D02*
X11448753Y-11559698D01*
X11448753Y-11559698D02*
X11458277Y-11578746D01*
X11458277Y-11578746D02*
X11458277Y-11635888D01*
X11458277Y-11635888D02*
X11448753Y-11654936D01*
X11448753Y-11654936D02*
X11439230Y-11664460D01*
X11439230Y-11664460D02*
X11420182Y-11673984D01*
X11420182Y-11673984D02*
X11391610Y-11673984D01*
X11572563Y-11673984D02*
X11553515Y-11664460D01*
X11553515Y-11664460D02*
X11543991Y-11645412D01*
X11543991Y-11645412D02*
X11543991Y-11473984D01*
X11724944Y-11664460D02*
X11705896Y-11673984D01*
X11705896Y-11673984D02*
X11667801Y-11673984D01*
X11667801Y-11673984D02*
X11648753Y-11664460D01*
X11648753Y-11664460D02*
X11639230Y-11645412D01*
X11639230Y-11645412D02*
X11639230Y-11569222D01*
X11639230Y-11569222D02*
X11648753Y-11550174D01*
X11648753Y-11550174D02*
X11667801Y-11540650D01*
X11667801Y-11540650D02*
X11705896Y-11540650D01*
X11705896Y-11540650D02*
X11724944Y-11550174D01*
X11724944Y-11550174D02*
X11734468Y-11569222D01*
X11734468Y-11569222D02*
X11734468Y-11588269D01*
X11734468Y-11588269D02*
X11639230Y-11607317D01*
X11810658Y-11664460D02*
X11829706Y-11673984D01*
X11829706Y-11673984D02*
X11867801Y-11673984D01*
X11867801Y-11673984D02*
X11886849Y-11664460D01*
X11886849Y-11664460D02*
X11896372Y-11645412D01*
X11896372Y-11645412D02*
X11896372Y-11635888D01*
X11896372Y-11635888D02*
X11886849Y-11616841D01*
X11886849Y-11616841D02*
X11867801Y-11607317D01*
X11867801Y-11607317D02*
X11839230Y-11607317D01*
X11839230Y-11607317D02*
X11820182Y-11597793D01*
X11820182Y-11597793D02*
X11810658Y-11578746D01*
X11810658Y-11578746D02*
X11810658Y-11569222D01*
X11810658Y-11569222D02*
X11820182Y-11550174D01*
X11820182Y-11550174D02*
X11839230Y-11540650D01*
X11839230Y-11540650D02*
X11867801Y-11540650D01*
X11867801Y-11540650D02*
X11886849Y-11550174D01*
X11963039Y-11750174D02*
X11972563Y-11740650D01*
X11972563Y-11740650D02*
X11991611Y-11712079D01*
X11991611Y-11712079D02*
X12001134Y-11693031D01*
X12001134Y-11693031D02*
X12010658Y-11664460D01*
X12010658Y-11664460D02*
X12020182Y-11616841D01*
X12020182Y-11616841D02*
X12020182Y-11578746D01*
X12020182Y-11578746D02*
X12010658Y-11531127D01*
X12010658Y-11531127D02*
X12001134Y-11502555D01*
X12001134Y-11502555D02*
X11991611Y-11483508D01*
X11991611Y-11483508D02*
X11972563Y-11454936D01*
X11972563Y-11454936D02*
X11963039Y-11445412D01*
D12*
X6997500Y-11846500D02*
G75*
G02*
X6962500Y-11846500I-17500J0D01*
G01*
X6962500Y-11846500D02*
G75*
G02*
X6997500Y-11846500I17500J0D01*
G01*
D11*
X7296372Y-11737984D02*
X7315420Y-11737984D01*
X7315420Y-11737984D02*
X7334467Y-11747508D01*
X7334467Y-11747508D02*
X7343991Y-11757031D01*
X7343991Y-11757031D02*
X7353515Y-11776079D01*
X7353515Y-11776079D02*
X7363039Y-11814174D01*
X7363039Y-11814174D02*
X7363039Y-11861793D01*
X7363039Y-11861793D02*
X7353515Y-11899888D01*
X7353515Y-11899888D02*
X7343991Y-11918936D01*
X7343991Y-11918936D02*
X7334467Y-11928460D01*
X7334467Y-11928460D02*
X7315420Y-11937984D01*
X7315420Y-11937984D02*
X7296372Y-11937984D01*
X7296372Y-11937984D02*
X7277324Y-11928460D01*
X7277324Y-11928460D02*
X7267801Y-11918936D01*
X7267801Y-11918936D02*
X7258277Y-11899888D01*
X7258277Y-11899888D02*
X7248753Y-11861793D01*
X7248753Y-11861793D02*
X7248753Y-11814174D01*
X7248753Y-11814174D02*
X7258277Y-11776079D01*
X7258277Y-11776079D02*
X7267801Y-11757031D01*
X7267801Y-11757031D02*
X7277324Y-11747508D01*
X7277324Y-11747508D02*
X7296372Y-11737984D01*
X7448753Y-11918936D02*
X7458277Y-11928460D01*
X7458277Y-11928460D02*
X7448753Y-11937984D01*
X7448753Y-11937984D02*
X7439229Y-11928460D01*
X7439229Y-11928460D02*
X7448753Y-11918936D01*
X7448753Y-11918936D02*
X7448753Y-11937984D01*
X7524943Y-11737984D02*
X7648753Y-11737984D01*
X7648753Y-11737984D02*
X7582086Y-11814174D01*
X7582086Y-11814174D02*
X7610658Y-11814174D01*
X7610658Y-11814174D02*
X7629705Y-11823698D01*
X7629705Y-11823698D02*
X7639229Y-11833222D01*
X7639229Y-11833222D02*
X7648753Y-11852269D01*
X7648753Y-11852269D02*
X7648753Y-11899888D01*
X7648753Y-11899888D02*
X7639229Y-11918936D01*
X7639229Y-11918936D02*
X7629705Y-11928460D01*
X7629705Y-11928460D02*
X7610658Y-11937984D01*
X7610658Y-11937984D02*
X7553515Y-11937984D01*
X7553515Y-11937984D02*
X7534467Y-11928460D01*
X7534467Y-11928460D02*
X7524943Y-11918936D01*
X7829705Y-11737984D02*
X7734467Y-11737984D01*
X7734467Y-11737984D02*
X7724943Y-11833222D01*
X7724943Y-11833222D02*
X7734467Y-11823698D01*
X7734467Y-11823698D02*
X7753515Y-11814174D01*
X7753515Y-11814174D02*
X7801134Y-11814174D01*
X7801134Y-11814174D02*
X7820182Y-11823698D01*
X7820182Y-11823698D02*
X7829705Y-11833222D01*
X7829705Y-11833222D02*
X7839229Y-11852269D01*
X7839229Y-11852269D02*
X7839229Y-11899888D01*
X7839229Y-11899888D02*
X7829705Y-11918936D01*
X7829705Y-11918936D02*
X7820182Y-11928460D01*
X7820182Y-11928460D02*
X7801134Y-11937984D01*
X7801134Y-11937984D02*
X7753515Y-11937984D01*
X7753515Y-11937984D02*
X7734467Y-11928460D01*
X7734467Y-11928460D02*
X7724943Y-11918936D01*
X7963039Y-11737984D02*
X7982086Y-11737984D01*
X7982086Y-11737984D02*
X8001134Y-11747508D01*
X8001134Y-11747508D02*
X8010658Y-11757031D01*
X8010658Y-11757031D02*
X8020182Y-11776079D01*
X8020182Y-11776079D02*
X8029705Y-11814174D01*
X8029705Y-11814174D02*
X8029705Y-11861793D01*
X8029705Y-11861793D02*
X8020182Y-11899888D01*
X8020182Y-11899888D02*
X8010658Y-11918936D01*
X8010658Y-11918936D02*
X8001134Y-11928460D01*
X8001134Y-11928460D02*
X7982086Y-11937984D01*
X7982086Y-11937984D02*
X7963039Y-11937984D01*
X7963039Y-11937984D02*
X7943991Y-11928460D01*
X7943991Y-11928460D02*
X7934467Y-11918936D01*
X7934467Y-11918936D02*
X7924943Y-11899888D01*
X7924943Y-11899888D02*
X7915420Y-11861793D01*
X7915420Y-11861793D02*
X7915420Y-11814174D01*
X7915420Y-11814174D02*
X7924943Y-11776079D01*
X7924943Y-11776079D02*
X7934467Y-11757031D01*
X7934467Y-11757031D02*
X7943991Y-11747508D01*
X7943991Y-11747508D02*
X7963039Y-11737984D01*
X8115420Y-11937984D02*
X8115420Y-11804650D01*
X8115420Y-11823698D02*
X8124943Y-11814174D01*
X8124943Y-11814174D02*
X8143991Y-11804650D01*
X8143991Y-11804650D02*
X8172563Y-11804650D01*
X8172563Y-11804650D02*
X8191610Y-11814174D01*
X8191610Y-11814174D02*
X8201134Y-11833222D01*
X8201134Y-11833222D02*
X8201134Y-11937984D01*
X8201134Y-11833222D02*
X8210658Y-11814174D01*
X8210658Y-11814174D02*
X8229705Y-11804650D01*
X8229705Y-11804650D02*
X8258277Y-11804650D01*
X8258277Y-11804650D02*
X8277324Y-11814174D01*
X8277324Y-11814174D02*
X8286848Y-11833222D01*
X8286848Y-11833222D02*
X8286848Y-11937984D01*
X8382086Y-11937984D02*
X8382086Y-11804650D01*
X8382086Y-11823698D02*
X8391610Y-11814174D01*
X8391610Y-11814174D02*
X8410658Y-11804650D01*
X8410658Y-11804650D02*
X8439229Y-11804650D01*
X8439229Y-11804650D02*
X8458277Y-11814174D01*
X8458277Y-11814174D02*
X8467801Y-11833222D01*
X8467801Y-11833222D02*
X8467801Y-11937984D01*
X8467801Y-11833222D02*
X8477325Y-11814174D01*
X8477325Y-11814174D02*
X8496372Y-11804650D01*
X8496372Y-11804650D02*
X8524944Y-11804650D01*
X8524944Y-11804650D02*
X8543991Y-11814174D01*
X8543991Y-11814174D02*
X8553515Y-11833222D01*
X8553515Y-11833222D02*
X8553515Y-11937984D01*
X8943991Y-11728460D02*
X8772563Y-11985603D01*
X9201134Y-11737984D02*
X9220182Y-11737984D01*
X9220182Y-11737984D02*
X9239229Y-11747508D01*
X9239229Y-11747508D02*
X9248753Y-11757031D01*
X9248753Y-11757031D02*
X9258277Y-11776079D01*
X9258277Y-11776079D02*
X9267801Y-11814174D01*
X9267801Y-11814174D02*
X9267801Y-11861793D01*
X9267801Y-11861793D02*
X9258277Y-11899888D01*
X9258277Y-11899888D02*
X9248753Y-11918936D01*
X9248753Y-11918936D02*
X9239229Y-11928460D01*
X9239229Y-11928460D02*
X9220182Y-11937984D01*
X9220182Y-11937984D02*
X9201134Y-11937984D01*
X9201134Y-11937984D02*
X9182087Y-11928460D01*
X9182087Y-11928460D02*
X9172563Y-11918936D01*
X9172563Y-11918936D02*
X9163039Y-11899888D01*
X9163039Y-11899888D02*
X9153515Y-11861793D01*
X9153515Y-11861793D02*
X9153515Y-11814174D01*
X9153515Y-11814174D02*
X9163039Y-11776079D01*
X9163039Y-11776079D02*
X9172563Y-11757031D01*
X9172563Y-11757031D02*
X9182087Y-11747508D01*
X9182087Y-11747508D02*
X9201134Y-11737984D01*
X9353515Y-11918936D02*
X9363039Y-11928460D01*
X9363039Y-11928460D02*
X9353515Y-11937984D01*
X9353515Y-11937984D02*
X9343991Y-11928460D01*
X9343991Y-11928460D02*
X9353515Y-11918936D01*
X9353515Y-11918936D02*
X9353515Y-11937984D01*
X9486848Y-11737984D02*
X9505896Y-11737984D01*
X9505896Y-11737984D02*
X9524944Y-11747508D01*
X9524944Y-11747508D02*
X9534468Y-11757031D01*
X9534468Y-11757031D02*
X9543991Y-11776079D01*
X9543991Y-11776079D02*
X9553515Y-11814174D01*
X9553515Y-11814174D02*
X9553515Y-11861793D01*
X9553515Y-11861793D02*
X9543991Y-11899888D01*
X9543991Y-11899888D02*
X9534468Y-11918936D01*
X9534468Y-11918936D02*
X9524944Y-11928460D01*
X9524944Y-11928460D02*
X9505896Y-11937984D01*
X9505896Y-11937984D02*
X9486848Y-11937984D01*
X9486848Y-11937984D02*
X9467801Y-11928460D01*
X9467801Y-11928460D02*
X9458277Y-11918936D01*
X9458277Y-11918936D02*
X9448753Y-11899888D01*
X9448753Y-11899888D02*
X9439229Y-11861793D01*
X9439229Y-11861793D02*
X9439229Y-11814174D01*
X9439229Y-11814174D02*
X9448753Y-11776079D01*
X9448753Y-11776079D02*
X9458277Y-11757031D01*
X9458277Y-11757031D02*
X9467801Y-11747508D01*
X9467801Y-11747508D02*
X9486848Y-11737984D01*
X9743991Y-11937984D02*
X9629706Y-11937984D01*
X9686848Y-11937984D02*
X9686848Y-11737984D01*
X9686848Y-11737984D02*
X9667801Y-11766555D01*
X9667801Y-11766555D02*
X9648753Y-11785603D01*
X9648753Y-11785603D02*
X9629706Y-11795127D01*
X9810658Y-11737984D02*
X9934468Y-11737984D01*
X9934468Y-11737984D02*
X9867801Y-11814174D01*
X9867801Y-11814174D02*
X9896372Y-11814174D01*
X9896372Y-11814174D02*
X9915420Y-11823698D01*
X9915420Y-11823698D02*
X9924944Y-11833222D01*
X9924944Y-11833222D02*
X9934468Y-11852269D01*
X9934468Y-11852269D02*
X9934468Y-11899888D01*
X9934468Y-11899888D02*
X9924944Y-11918936D01*
X9924944Y-11918936D02*
X9915420Y-11928460D01*
X9915420Y-11928460D02*
X9896372Y-11937984D01*
X9896372Y-11937984D02*
X9839229Y-11937984D01*
X9839229Y-11937984D02*
X9820182Y-11928460D01*
X9820182Y-11928460D02*
X9810658Y-11918936D01*
X10048753Y-11823698D02*
X10029706Y-11814174D01*
X10029706Y-11814174D02*
X10020182Y-11804650D01*
X10020182Y-11804650D02*
X10010658Y-11785603D01*
X10010658Y-11785603D02*
X10010658Y-11776079D01*
X10010658Y-11776079D02*
X10020182Y-11757031D01*
X10020182Y-11757031D02*
X10029706Y-11747508D01*
X10029706Y-11747508D02*
X10048753Y-11737984D01*
X10048753Y-11737984D02*
X10086849Y-11737984D01*
X10086849Y-11737984D02*
X10105896Y-11747508D01*
X10105896Y-11747508D02*
X10115420Y-11757031D01*
X10115420Y-11757031D02*
X10124944Y-11776079D01*
X10124944Y-11776079D02*
X10124944Y-11785603D01*
X10124944Y-11785603D02*
X10115420Y-11804650D01*
X10115420Y-11804650D02*
X10105896Y-11814174D01*
X10105896Y-11814174D02*
X10086849Y-11823698D01*
X10086849Y-11823698D02*
X10048753Y-11823698D01*
X10048753Y-11823698D02*
X10029706Y-11833222D01*
X10029706Y-11833222D02*
X10020182Y-11842746D01*
X10020182Y-11842746D02*
X10010658Y-11861793D01*
X10010658Y-11861793D02*
X10010658Y-11899888D01*
X10010658Y-11899888D02*
X10020182Y-11918936D01*
X10020182Y-11918936D02*
X10029706Y-11928460D01*
X10029706Y-11928460D02*
X10048753Y-11937984D01*
X10048753Y-11937984D02*
X10086849Y-11937984D01*
X10086849Y-11937984D02*
X10105896Y-11928460D01*
X10105896Y-11928460D02*
X10115420Y-11918936D01*
X10115420Y-11918936D02*
X10124944Y-11899888D01*
X10124944Y-11899888D02*
X10124944Y-11861793D01*
X10124944Y-11861793D02*
X10115420Y-11842746D01*
X10115420Y-11842746D02*
X10105896Y-11833222D01*
X10105896Y-11833222D02*
X10086849Y-11823698D01*
X10201134Y-11737984D02*
X10201134Y-11776079D01*
X10277325Y-11737984D02*
X10277325Y-11776079D01*
X10572563Y-12014174D02*
X10563039Y-12004650D01*
X10563039Y-12004650D02*
X10543991Y-11976079D01*
X10543991Y-11976079D02*
X10534468Y-11957031D01*
X10534468Y-11957031D02*
X10524944Y-11928460D01*
X10524944Y-11928460D02*
X10515420Y-11880841D01*
X10515420Y-11880841D02*
X10515420Y-11842746D01*
X10515420Y-11842746D02*
X10524944Y-11795127D01*
X10524944Y-11795127D02*
X10534468Y-11766555D01*
X10534468Y-11766555D02*
X10543991Y-11747508D01*
X10543991Y-11747508D02*
X10563039Y-11718936D01*
X10563039Y-11718936D02*
X10572563Y-11709412D01*
X10753515Y-11937984D02*
X10639230Y-11937984D01*
X10696372Y-11937984D02*
X10696372Y-11737984D01*
X10696372Y-11737984D02*
X10677325Y-11766555D01*
X10677325Y-11766555D02*
X10658277Y-11785603D01*
X10658277Y-11785603D02*
X10639230Y-11795127D01*
X10820182Y-11737984D02*
X10953515Y-11737984D01*
X10953515Y-11737984D02*
X10867801Y-11937984D01*
X11182087Y-11937984D02*
X11182087Y-11737984D01*
X11267801Y-11937984D02*
X11267801Y-11833222D01*
X11267801Y-11833222D02*
X11258277Y-11814174D01*
X11258277Y-11814174D02*
X11239230Y-11804650D01*
X11239230Y-11804650D02*
X11210658Y-11804650D01*
X11210658Y-11804650D02*
X11191610Y-11814174D01*
X11191610Y-11814174D02*
X11182087Y-11823698D01*
X11391610Y-11937984D02*
X11372563Y-11928460D01*
X11372563Y-11928460D02*
X11363039Y-11918936D01*
X11363039Y-11918936D02*
X11353515Y-11899888D01*
X11353515Y-11899888D02*
X11353515Y-11842746D01*
X11353515Y-11842746D02*
X11363039Y-11823698D01*
X11363039Y-11823698D02*
X11372563Y-11814174D01*
X11372563Y-11814174D02*
X11391610Y-11804650D01*
X11391610Y-11804650D02*
X11420182Y-11804650D01*
X11420182Y-11804650D02*
X11439230Y-11814174D01*
X11439230Y-11814174D02*
X11448753Y-11823698D01*
X11448753Y-11823698D02*
X11458277Y-11842746D01*
X11458277Y-11842746D02*
X11458277Y-11899888D01*
X11458277Y-11899888D02*
X11448753Y-11918936D01*
X11448753Y-11918936D02*
X11439230Y-11928460D01*
X11439230Y-11928460D02*
X11420182Y-11937984D01*
X11420182Y-11937984D02*
X11391610Y-11937984D01*
X11572563Y-11937984D02*
X11553515Y-11928460D01*
X11553515Y-11928460D02*
X11543991Y-11909412D01*
X11543991Y-11909412D02*
X11543991Y-11737984D01*
X11724944Y-11928460D02*
X11705896Y-11937984D01*
X11705896Y-11937984D02*
X11667801Y-11937984D01*
X11667801Y-11937984D02*
X11648753Y-11928460D01*
X11648753Y-11928460D02*
X11639230Y-11909412D01*
X11639230Y-11909412D02*
X11639230Y-11833222D01*
X11639230Y-11833222D02*
X11648753Y-11814174D01*
X11648753Y-11814174D02*
X11667801Y-11804650D01*
X11667801Y-11804650D02*
X11705896Y-11804650D01*
X11705896Y-11804650D02*
X11724944Y-11814174D01*
X11724944Y-11814174D02*
X11734468Y-11833222D01*
X11734468Y-11833222D02*
X11734468Y-11852269D01*
X11734468Y-11852269D02*
X11639230Y-11871317D01*
X11810658Y-11928460D02*
X11829706Y-11937984D01*
X11829706Y-11937984D02*
X11867801Y-11937984D01*
X11867801Y-11937984D02*
X11886849Y-11928460D01*
X11886849Y-11928460D02*
X11896372Y-11909412D01*
X11896372Y-11909412D02*
X11896372Y-11899888D01*
X11896372Y-11899888D02*
X11886849Y-11880841D01*
X11886849Y-11880841D02*
X11867801Y-11871317D01*
X11867801Y-11871317D02*
X11839230Y-11871317D01*
X11839230Y-11871317D02*
X11820182Y-11861793D01*
X11820182Y-11861793D02*
X11810658Y-11842746D01*
X11810658Y-11842746D02*
X11810658Y-11833222D01*
X11810658Y-11833222D02*
X11820182Y-11814174D01*
X11820182Y-11814174D02*
X11839230Y-11804650D01*
X11839230Y-11804650D02*
X11867801Y-11804650D01*
X11867801Y-11804650D02*
X11886849Y-11814174D01*
X11963039Y-12014174D02*
X11972563Y-12004650D01*
X11972563Y-12004650D02*
X11991611Y-11976079D01*
X11991611Y-11976079D02*
X12001134Y-11957031D01*
X12001134Y-11957031D02*
X12010658Y-11928460D01*
X12010658Y-11928460D02*
X12020182Y-11880841D01*
X12020182Y-11880841D02*
X12020182Y-11842746D01*
X12020182Y-11842746D02*
X12010658Y-11795127D01*
X12010658Y-11795127D02*
X12001134Y-11766555D01*
X12001134Y-11766555D02*
X11991611Y-11747508D01*
X11991611Y-11747508D02*
X11972563Y-11718936D01*
X11972563Y-11718936D02*
X11963039Y-11709412D01*
D12*
X6947500Y-12060500D02*
X6947500Y-12160500D01*
X6897500Y-12110500D02*
X6997500Y-12110500D01*
D11*
X7363039Y-12201984D02*
X7248753Y-12201984D01*
X7305896Y-12201984D02*
X7305896Y-12001984D01*
X7305896Y-12001984D02*
X7286848Y-12030555D01*
X7286848Y-12030555D02*
X7267801Y-12049603D01*
X7267801Y-12049603D02*
X7248753Y-12059127D01*
X7448753Y-12182936D02*
X7458277Y-12192460D01*
X7458277Y-12192460D02*
X7448753Y-12201984D01*
X7448753Y-12201984D02*
X7439229Y-12192460D01*
X7439229Y-12192460D02*
X7448753Y-12182936D01*
X7448753Y-12182936D02*
X7448753Y-12201984D01*
X7582086Y-12001984D02*
X7601134Y-12001984D01*
X7601134Y-12001984D02*
X7620182Y-12011508D01*
X7620182Y-12011508D02*
X7629705Y-12021031D01*
X7629705Y-12021031D02*
X7639229Y-12040079D01*
X7639229Y-12040079D02*
X7648753Y-12078174D01*
X7648753Y-12078174D02*
X7648753Y-12125793D01*
X7648753Y-12125793D02*
X7639229Y-12163888D01*
X7639229Y-12163888D02*
X7629705Y-12182936D01*
X7629705Y-12182936D02*
X7620182Y-12192460D01*
X7620182Y-12192460D02*
X7601134Y-12201984D01*
X7601134Y-12201984D02*
X7582086Y-12201984D01*
X7582086Y-12201984D02*
X7563039Y-12192460D01*
X7563039Y-12192460D02*
X7553515Y-12182936D01*
X7553515Y-12182936D02*
X7543991Y-12163888D01*
X7543991Y-12163888D02*
X7534467Y-12125793D01*
X7534467Y-12125793D02*
X7534467Y-12078174D01*
X7534467Y-12078174D02*
X7543991Y-12040079D01*
X7543991Y-12040079D02*
X7553515Y-12021031D01*
X7553515Y-12021031D02*
X7563039Y-12011508D01*
X7563039Y-12011508D02*
X7582086Y-12001984D01*
X7772562Y-12001984D02*
X7791610Y-12001984D01*
X7791610Y-12001984D02*
X7810658Y-12011508D01*
X7810658Y-12011508D02*
X7820182Y-12021031D01*
X7820182Y-12021031D02*
X7829705Y-12040079D01*
X7829705Y-12040079D02*
X7839229Y-12078174D01*
X7839229Y-12078174D02*
X7839229Y-12125793D01*
X7839229Y-12125793D02*
X7829705Y-12163888D01*
X7829705Y-12163888D02*
X7820182Y-12182936D01*
X7820182Y-12182936D02*
X7810658Y-12192460D01*
X7810658Y-12192460D02*
X7791610Y-12201984D01*
X7791610Y-12201984D02*
X7772562Y-12201984D01*
X7772562Y-12201984D02*
X7753515Y-12192460D01*
X7753515Y-12192460D02*
X7743991Y-12182936D01*
X7743991Y-12182936D02*
X7734467Y-12163888D01*
X7734467Y-12163888D02*
X7724943Y-12125793D01*
X7724943Y-12125793D02*
X7724943Y-12078174D01*
X7724943Y-12078174D02*
X7734467Y-12040079D01*
X7734467Y-12040079D02*
X7743991Y-12021031D01*
X7743991Y-12021031D02*
X7753515Y-12011508D01*
X7753515Y-12011508D02*
X7772562Y-12001984D01*
X7963039Y-12001984D02*
X7982086Y-12001984D01*
X7982086Y-12001984D02*
X8001134Y-12011508D01*
X8001134Y-12011508D02*
X8010658Y-12021031D01*
X8010658Y-12021031D02*
X8020182Y-12040079D01*
X8020182Y-12040079D02*
X8029705Y-12078174D01*
X8029705Y-12078174D02*
X8029705Y-12125793D01*
X8029705Y-12125793D02*
X8020182Y-12163888D01*
X8020182Y-12163888D02*
X8010658Y-12182936D01*
X8010658Y-12182936D02*
X8001134Y-12192460D01*
X8001134Y-12192460D02*
X7982086Y-12201984D01*
X7982086Y-12201984D02*
X7963039Y-12201984D01*
X7963039Y-12201984D02*
X7943991Y-12192460D01*
X7943991Y-12192460D02*
X7934467Y-12182936D01*
X7934467Y-12182936D02*
X7924943Y-12163888D01*
X7924943Y-12163888D02*
X7915420Y-12125793D01*
X7915420Y-12125793D02*
X7915420Y-12078174D01*
X7915420Y-12078174D02*
X7924943Y-12040079D01*
X7924943Y-12040079D02*
X7934467Y-12021031D01*
X7934467Y-12021031D02*
X7943991Y-12011508D01*
X7943991Y-12011508D02*
X7963039Y-12001984D01*
X8115420Y-12201984D02*
X8115420Y-12068650D01*
X8115420Y-12087698D02*
X8124943Y-12078174D01*
X8124943Y-12078174D02*
X8143991Y-12068650D01*
X8143991Y-12068650D02*
X8172563Y-12068650D01*
X8172563Y-12068650D02*
X8191610Y-12078174D01*
X8191610Y-12078174D02*
X8201134Y-12097222D01*
X8201134Y-12097222D02*
X8201134Y-12201984D01*
X8201134Y-12097222D02*
X8210658Y-12078174D01*
X8210658Y-12078174D02*
X8229705Y-12068650D01*
X8229705Y-12068650D02*
X8258277Y-12068650D01*
X8258277Y-12068650D02*
X8277324Y-12078174D01*
X8277324Y-12078174D02*
X8286848Y-12097222D01*
X8286848Y-12097222D02*
X8286848Y-12201984D01*
X8382086Y-12201984D02*
X8382086Y-12068650D01*
X8382086Y-12087698D02*
X8391610Y-12078174D01*
X8391610Y-12078174D02*
X8410658Y-12068650D01*
X8410658Y-12068650D02*
X8439229Y-12068650D01*
X8439229Y-12068650D02*
X8458277Y-12078174D01*
X8458277Y-12078174D02*
X8467801Y-12097222D01*
X8467801Y-12097222D02*
X8467801Y-12201984D01*
X8467801Y-12097222D02*
X8477325Y-12078174D01*
X8477325Y-12078174D02*
X8496372Y-12068650D01*
X8496372Y-12068650D02*
X8524944Y-12068650D01*
X8524944Y-12068650D02*
X8543991Y-12078174D01*
X8543991Y-12078174D02*
X8553515Y-12097222D01*
X8553515Y-12097222D02*
X8553515Y-12201984D01*
X8943991Y-11992460D02*
X8772563Y-12249603D01*
X9201134Y-12001984D02*
X9220182Y-12001984D01*
X9220182Y-12001984D02*
X9239229Y-12011508D01*
X9239229Y-12011508D02*
X9248753Y-12021031D01*
X9248753Y-12021031D02*
X9258277Y-12040079D01*
X9258277Y-12040079D02*
X9267801Y-12078174D01*
X9267801Y-12078174D02*
X9267801Y-12125793D01*
X9267801Y-12125793D02*
X9258277Y-12163888D01*
X9258277Y-12163888D02*
X9248753Y-12182936D01*
X9248753Y-12182936D02*
X9239229Y-12192460D01*
X9239229Y-12192460D02*
X9220182Y-12201984D01*
X9220182Y-12201984D02*
X9201134Y-12201984D01*
X9201134Y-12201984D02*
X9182087Y-12192460D01*
X9182087Y-12192460D02*
X9172563Y-12182936D01*
X9172563Y-12182936D02*
X9163039Y-12163888D01*
X9163039Y-12163888D02*
X9153515Y-12125793D01*
X9153515Y-12125793D02*
X9153515Y-12078174D01*
X9153515Y-12078174D02*
X9163039Y-12040079D01*
X9163039Y-12040079D02*
X9172563Y-12021031D01*
X9172563Y-12021031D02*
X9182087Y-12011508D01*
X9182087Y-12011508D02*
X9201134Y-12001984D01*
X9353515Y-12182936D02*
X9363039Y-12192460D01*
X9363039Y-12192460D02*
X9353515Y-12201984D01*
X9353515Y-12201984D02*
X9343991Y-12192460D01*
X9343991Y-12192460D02*
X9353515Y-12182936D01*
X9353515Y-12182936D02*
X9353515Y-12201984D01*
X9486848Y-12001984D02*
X9505896Y-12001984D01*
X9505896Y-12001984D02*
X9524944Y-12011508D01*
X9524944Y-12011508D02*
X9534468Y-12021031D01*
X9534468Y-12021031D02*
X9543991Y-12040079D01*
X9543991Y-12040079D02*
X9553515Y-12078174D01*
X9553515Y-12078174D02*
X9553515Y-12125793D01*
X9553515Y-12125793D02*
X9543991Y-12163888D01*
X9543991Y-12163888D02*
X9534468Y-12182936D01*
X9534468Y-12182936D02*
X9524944Y-12192460D01*
X9524944Y-12192460D02*
X9505896Y-12201984D01*
X9505896Y-12201984D02*
X9486848Y-12201984D01*
X9486848Y-12201984D02*
X9467801Y-12192460D01*
X9467801Y-12192460D02*
X9458277Y-12182936D01*
X9458277Y-12182936D02*
X9448753Y-12163888D01*
X9448753Y-12163888D02*
X9439229Y-12125793D01*
X9439229Y-12125793D02*
X9439229Y-12078174D01*
X9439229Y-12078174D02*
X9448753Y-12040079D01*
X9448753Y-12040079D02*
X9458277Y-12021031D01*
X9458277Y-12021031D02*
X9467801Y-12011508D01*
X9467801Y-12011508D02*
X9486848Y-12001984D01*
X9620182Y-12001984D02*
X9743991Y-12001984D01*
X9743991Y-12001984D02*
X9677325Y-12078174D01*
X9677325Y-12078174D02*
X9705896Y-12078174D01*
X9705896Y-12078174D02*
X9724944Y-12087698D01*
X9724944Y-12087698D02*
X9734468Y-12097222D01*
X9734468Y-12097222D02*
X9743991Y-12116269D01*
X9743991Y-12116269D02*
X9743991Y-12163888D01*
X9743991Y-12163888D02*
X9734468Y-12182936D01*
X9734468Y-12182936D02*
X9724944Y-12192460D01*
X9724944Y-12192460D02*
X9705896Y-12201984D01*
X9705896Y-12201984D02*
X9648753Y-12201984D01*
X9648753Y-12201984D02*
X9629706Y-12192460D01*
X9629706Y-12192460D02*
X9620182Y-12182936D01*
X9839229Y-12201984D02*
X9877325Y-12201984D01*
X9877325Y-12201984D02*
X9896372Y-12192460D01*
X9896372Y-12192460D02*
X9905896Y-12182936D01*
X9905896Y-12182936D02*
X9924944Y-12154365D01*
X9924944Y-12154365D02*
X9934468Y-12116269D01*
X9934468Y-12116269D02*
X9934468Y-12040079D01*
X9934468Y-12040079D02*
X9924944Y-12021031D01*
X9924944Y-12021031D02*
X9915420Y-12011508D01*
X9915420Y-12011508D02*
X9896372Y-12001984D01*
X9896372Y-12001984D02*
X9858277Y-12001984D01*
X9858277Y-12001984D02*
X9839229Y-12011508D01*
X9839229Y-12011508D02*
X9829706Y-12021031D01*
X9829706Y-12021031D02*
X9820182Y-12040079D01*
X9820182Y-12040079D02*
X9820182Y-12087698D01*
X9820182Y-12087698D02*
X9829706Y-12106746D01*
X9829706Y-12106746D02*
X9839229Y-12116269D01*
X9839229Y-12116269D02*
X9858277Y-12125793D01*
X9858277Y-12125793D02*
X9896372Y-12125793D01*
X9896372Y-12125793D02*
X9915420Y-12116269D01*
X9915420Y-12116269D02*
X9924944Y-12106746D01*
X9924944Y-12106746D02*
X9934468Y-12087698D01*
X10105896Y-12068650D02*
X10105896Y-12201984D01*
X10058277Y-11992460D02*
X10010658Y-12135317D01*
X10010658Y-12135317D02*
X10134468Y-12135317D01*
X10201134Y-12001984D02*
X10201134Y-12040079D01*
X10277325Y-12001984D02*
X10277325Y-12040079D01*
X10572563Y-12278174D02*
X10563039Y-12268650D01*
X10563039Y-12268650D02*
X10543991Y-12240079D01*
X10543991Y-12240079D02*
X10534468Y-12221031D01*
X10534468Y-12221031D02*
X10524944Y-12192460D01*
X10524944Y-12192460D02*
X10515420Y-12144841D01*
X10515420Y-12144841D02*
X10515420Y-12106746D01*
X10515420Y-12106746D02*
X10524944Y-12059127D01*
X10524944Y-12059127D02*
X10534468Y-12030555D01*
X10534468Y-12030555D02*
X10543991Y-12011508D01*
X10543991Y-12011508D02*
X10563039Y-11982936D01*
X10563039Y-11982936D02*
X10572563Y-11973412D01*
X10753515Y-12201984D02*
X10639230Y-12201984D01*
X10696372Y-12201984D02*
X10696372Y-12001984D01*
X10696372Y-12001984D02*
X10677325Y-12030555D01*
X10677325Y-12030555D02*
X10658277Y-12049603D01*
X10658277Y-12049603D02*
X10639230Y-12059127D01*
X10943991Y-12201984D02*
X10829706Y-12201984D01*
X10886849Y-12201984D02*
X10886849Y-12001984D01*
X10886849Y-12001984D02*
X10867801Y-12030555D01*
X10867801Y-12030555D02*
X10848753Y-12049603D01*
X10848753Y-12049603D02*
X10829706Y-12059127D01*
X11182087Y-12201984D02*
X11182087Y-12001984D01*
X11267801Y-12201984D02*
X11267801Y-12097222D01*
X11267801Y-12097222D02*
X11258277Y-12078174D01*
X11258277Y-12078174D02*
X11239230Y-12068650D01*
X11239230Y-12068650D02*
X11210658Y-12068650D01*
X11210658Y-12068650D02*
X11191610Y-12078174D01*
X11191610Y-12078174D02*
X11182087Y-12087698D01*
X11391610Y-12201984D02*
X11372563Y-12192460D01*
X11372563Y-12192460D02*
X11363039Y-12182936D01*
X11363039Y-12182936D02*
X11353515Y-12163888D01*
X11353515Y-12163888D02*
X11353515Y-12106746D01*
X11353515Y-12106746D02*
X11363039Y-12087698D01*
X11363039Y-12087698D02*
X11372563Y-12078174D01*
X11372563Y-12078174D02*
X11391610Y-12068650D01*
X11391610Y-12068650D02*
X11420182Y-12068650D01*
X11420182Y-12068650D02*
X11439230Y-12078174D01*
X11439230Y-12078174D02*
X11448753Y-12087698D01*
X11448753Y-12087698D02*
X11458277Y-12106746D01*
X11458277Y-12106746D02*
X11458277Y-12163888D01*
X11458277Y-12163888D02*
X11448753Y-12182936D01*
X11448753Y-12182936D02*
X11439230Y-12192460D01*
X11439230Y-12192460D02*
X11420182Y-12201984D01*
X11420182Y-12201984D02*
X11391610Y-12201984D01*
X11572563Y-12201984D02*
X11553515Y-12192460D01*
X11553515Y-12192460D02*
X11543991Y-12173412D01*
X11543991Y-12173412D02*
X11543991Y-12001984D01*
X11724944Y-12192460D02*
X11705896Y-12201984D01*
X11705896Y-12201984D02*
X11667801Y-12201984D01*
X11667801Y-12201984D02*
X11648753Y-12192460D01*
X11648753Y-12192460D02*
X11639230Y-12173412D01*
X11639230Y-12173412D02*
X11639230Y-12097222D01*
X11639230Y-12097222D02*
X11648753Y-12078174D01*
X11648753Y-12078174D02*
X11667801Y-12068650D01*
X11667801Y-12068650D02*
X11705896Y-12068650D01*
X11705896Y-12068650D02*
X11724944Y-12078174D01*
X11724944Y-12078174D02*
X11734468Y-12097222D01*
X11734468Y-12097222D02*
X11734468Y-12116269D01*
X11734468Y-12116269D02*
X11639230Y-12135317D01*
X11810658Y-12192460D02*
X11829706Y-12201984D01*
X11829706Y-12201984D02*
X11867801Y-12201984D01*
X11867801Y-12201984D02*
X11886849Y-12192460D01*
X11886849Y-12192460D02*
X11896372Y-12173412D01*
X11896372Y-12173412D02*
X11896372Y-12163888D01*
X11896372Y-12163888D02*
X11886849Y-12144841D01*
X11886849Y-12144841D02*
X11867801Y-12135317D01*
X11867801Y-12135317D02*
X11839230Y-12135317D01*
X11839230Y-12135317D02*
X11820182Y-12125793D01*
X11820182Y-12125793D02*
X11810658Y-12106746D01*
X11810658Y-12106746D02*
X11810658Y-12097222D01*
X11810658Y-12097222D02*
X11820182Y-12078174D01*
X11820182Y-12078174D02*
X11839230Y-12068650D01*
X11839230Y-12068650D02*
X11867801Y-12068650D01*
X11867801Y-12068650D02*
X11886849Y-12078174D01*
X11963039Y-12278174D02*
X11972563Y-12268650D01*
X11972563Y-12268650D02*
X11991611Y-12240079D01*
X11991611Y-12240079D02*
X12001134Y-12221031D01*
X12001134Y-12221031D02*
X12010658Y-12192460D01*
X12010658Y-12192460D02*
X12020182Y-12144841D01*
X12020182Y-12144841D02*
X12020182Y-12106746D01*
X12020182Y-12106746D02*
X12010658Y-12059127D01*
X12010658Y-12059127D02*
X12001134Y-12030555D01*
X12001134Y-12030555D02*
X11991611Y-12011508D01*
X11991611Y-12011508D02*
X11972563Y-11982936D01*
X11972563Y-11982936D02*
X11963039Y-11973412D01*
D13*
X6981391Y-12413391D02*
X6981391Y-12335609D01*
X6903609Y-12335609D01*
X6903609Y-12413391D01*
X6981391Y-12413391D01*
D11*
X7363039Y-12465984D02*
X7248753Y-12465984D01*
X7305896Y-12465984D02*
X7305896Y-12265984D01*
X7305896Y-12265984D02*
X7286848Y-12294555D01*
X7286848Y-12294555D02*
X7267801Y-12313603D01*
X7267801Y-12313603D02*
X7248753Y-12323127D01*
X7448753Y-12446936D02*
X7458277Y-12456460D01*
X7458277Y-12456460D02*
X7448753Y-12465984D01*
X7448753Y-12465984D02*
X7439229Y-12456460D01*
X7439229Y-12456460D02*
X7448753Y-12446936D01*
X7448753Y-12446936D02*
X7448753Y-12465984D01*
X7648753Y-12465984D02*
X7534467Y-12465984D01*
X7591610Y-12465984D02*
X7591610Y-12265984D01*
X7591610Y-12265984D02*
X7572562Y-12294555D01*
X7572562Y-12294555D02*
X7553515Y-12313603D01*
X7553515Y-12313603D02*
X7534467Y-12323127D01*
X7772562Y-12265984D02*
X7791610Y-12265984D01*
X7791610Y-12265984D02*
X7810658Y-12275508D01*
X7810658Y-12275508D02*
X7820182Y-12285031D01*
X7820182Y-12285031D02*
X7829705Y-12304079D01*
X7829705Y-12304079D02*
X7839229Y-12342174D01*
X7839229Y-12342174D02*
X7839229Y-12389793D01*
X7839229Y-12389793D02*
X7829705Y-12427888D01*
X7829705Y-12427888D02*
X7820182Y-12446936D01*
X7820182Y-12446936D02*
X7810658Y-12456460D01*
X7810658Y-12456460D02*
X7791610Y-12465984D01*
X7791610Y-12465984D02*
X7772562Y-12465984D01*
X7772562Y-12465984D02*
X7753515Y-12456460D01*
X7753515Y-12456460D02*
X7743991Y-12446936D01*
X7743991Y-12446936D02*
X7734467Y-12427888D01*
X7734467Y-12427888D02*
X7724943Y-12389793D01*
X7724943Y-12389793D02*
X7724943Y-12342174D01*
X7724943Y-12342174D02*
X7734467Y-12304079D01*
X7734467Y-12304079D02*
X7743991Y-12285031D01*
X7743991Y-12285031D02*
X7753515Y-12275508D01*
X7753515Y-12275508D02*
X7772562Y-12265984D01*
X7963039Y-12265984D02*
X7982086Y-12265984D01*
X7982086Y-12265984D02*
X8001134Y-12275508D01*
X8001134Y-12275508D02*
X8010658Y-12285031D01*
X8010658Y-12285031D02*
X8020182Y-12304079D01*
X8020182Y-12304079D02*
X8029705Y-12342174D01*
X8029705Y-12342174D02*
X8029705Y-12389793D01*
X8029705Y-12389793D02*
X8020182Y-12427888D01*
X8020182Y-12427888D02*
X8010658Y-12446936D01*
X8010658Y-12446936D02*
X8001134Y-12456460D01*
X8001134Y-12456460D02*
X7982086Y-12465984D01*
X7982086Y-12465984D02*
X7963039Y-12465984D01*
X7963039Y-12465984D02*
X7943991Y-12456460D01*
X7943991Y-12456460D02*
X7934467Y-12446936D01*
X7934467Y-12446936D02*
X7924943Y-12427888D01*
X7924943Y-12427888D02*
X7915420Y-12389793D01*
X7915420Y-12389793D02*
X7915420Y-12342174D01*
X7915420Y-12342174D02*
X7924943Y-12304079D01*
X7924943Y-12304079D02*
X7934467Y-12285031D01*
X7934467Y-12285031D02*
X7943991Y-12275508D01*
X7943991Y-12275508D02*
X7963039Y-12265984D01*
X8115420Y-12465984D02*
X8115420Y-12332650D01*
X8115420Y-12351698D02*
X8124943Y-12342174D01*
X8124943Y-12342174D02*
X8143991Y-12332650D01*
X8143991Y-12332650D02*
X8172563Y-12332650D01*
X8172563Y-12332650D02*
X8191610Y-12342174D01*
X8191610Y-12342174D02*
X8201134Y-12361222D01*
X8201134Y-12361222D02*
X8201134Y-12465984D01*
X8201134Y-12361222D02*
X8210658Y-12342174D01*
X8210658Y-12342174D02*
X8229705Y-12332650D01*
X8229705Y-12332650D02*
X8258277Y-12332650D01*
X8258277Y-12332650D02*
X8277324Y-12342174D01*
X8277324Y-12342174D02*
X8286848Y-12361222D01*
X8286848Y-12361222D02*
X8286848Y-12465984D01*
X8382086Y-12465984D02*
X8382086Y-12332650D01*
X8382086Y-12351698D02*
X8391610Y-12342174D01*
X8391610Y-12342174D02*
X8410658Y-12332650D01*
X8410658Y-12332650D02*
X8439229Y-12332650D01*
X8439229Y-12332650D02*
X8458277Y-12342174D01*
X8458277Y-12342174D02*
X8467801Y-12361222D01*
X8467801Y-12361222D02*
X8467801Y-12465984D01*
X8467801Y-12361222D02*
X8477325Y-12342174D01*
X8477325Y-12342174D02*
X8496372Y-12332650D01*
X8496372Y-12332650D02*
X8524944Y-12332650D01*
X8524944Y-12332650D02*
X8543991Y-12342174D01*
X8543991Y-12342174D02*
X8553515Y-12361222D01*
X8553515Y-12361222D02*
X8553515Y-12465984D01*
X8943991Y-12256460D02*
X8772563Y-12513603D01*
X9201134Y-12265984D02*
X9220182Y-12265984D01*
X9220182Y-12265984D02*
X9239229Y-12275508D01*
X9239229Y-12275508D02*
X9248753Y-12285031D01*
X9248753Y-12285031D02*
X9258277Y-12304079D01*
X9258277Y-12304079D02*
X9267801Y-12342174D01*
X9267801Y-12342174D02*
X9267801Y-12389793D01*
X9267801Y-12389793D02*
X9258277Y-12427888D01*
X9258277Y-12427888D02*
X9248753Y-12446936D01*
X9248753Y-12446936D02*
X9239229Y-12456460D01*
X9239229Y-12456460D02*
X9220182Y-12465984D01*
X9220182Y-12465984D02*
X9201134Y-12465984D01*
X9201134Y-12465984D02*
X9182087Y-12456460D01*
X9182087Y-12456460D02*
X9172563Y-12446936D01*
X9172563Y-12446936D02*
X9163039Y-12427888D01*
X9163039Y-12427888D02*
X9153515Y-12389793D01*
X9153515Y-12389793D02*
X9153515Y-12342174D01*
X9153515Y-12342174D02*
X9163039Y-12304079D01*
X9163039Y-12304079D02*
X9172563Y-12285031D01*
X9172563Y-12285031D02*
X9182087Y-12275508D01*
X9182087Y-12275508D02*
X9201134Y-12265984D01*
X9353515Y-12446936D02*
X9363039Y-12456460D01*
X9363039Y-12456460D02*
X9353515Y-12465984D01*
X9353515Y-12465984D02*
X9343991Y-12456460D01*
X9343991Y-12456460D02*
X9353515Y-12446936D01*
X9353515Y-12446936D02*
X9353515Y-12465984D01*
X9486848Y-12265984D02*
X9505896Y-12265984D01*
X9505896Y-12265984D02*
X9524944Y-12275508D01*
X9524944Y-12275508D02*
X9534468Y-12285031D01*
X9534468Y-12285031D02*
X9543991Y-12304079D01*
X9543991Y-12304079D02*
X9553515Y-12342174D01*
X9553515Y-12342174D02*
X9553515Y-12389793D01*
X9553515Y-12389793D02*
X9543991Y-12427888D01*
X9543991Y-12427888D02*
X9534468Y-12446936D01*
X9534468Y-12446936D02*
X9524944Y-12456460D01*
X9524944Y-12456460D02*
X9505896Y-12465984D01*
X9505896Y-12465984D02*
X9486848Y-12465984D01*
X9486848Y-12465984D02*
X9467801Y-12456460D01*
X9467801Y-12456460D02*
X9458277Y-12446936D01*
X9458277Y-12446936D02*
X9448753Y-12427888D01*
X9448753Y-12427888D02*
X9439229Y-12389793D01*
X9439229Y-12389793D02*
X9439229Y-12342174D01*
X9439229Y-12342174D02*
X9448753Y-12304079D01*
X9448753Y-12304079D02*
X9458277Y-12285031D01*
X9458277Y-12285031D02*
X9467801Y-12275508D01*
X9467801Y-12275508D02*
X9486848Y-12265984D01*
X9724944Y-12332650D02*
X9724944Y-12465984D01*
X9677325Y-12256460D02*
X9629706Y-12399317D01*
X9629706Y-12399317D02*
X9753515Y-12399317D01*
X9810658Y-12265984D02*
X9934468Y-12265984D01*
X9934468Y-12265984D02*
X9867801Y-12342174D01*
X9867801Y-12342174D02*
X9896372Y-12342174D01*
X9896372Y-12342174D02*
X9915420Y-12351698D01*
X9915420Y-12351698D02*
X9924944Y-12361222D01*
X9924944Y-12361222D02*
X9934468Y-12380269D01*
X9934468Y-12380269D02*
X9934468Y-12427888D01*
X9934468Y-12427888D02*
X9924944Y-12446936D01*
X9924944Y-12446936D02*
X9915420Y-12456460D01*
X9915420Y-12456460D02*
X9896372Y-12465984D01*
X9896372Y-12465984D02*
X9839229Y-12465984D01*
X9839229Y-12465984D02*
X9820182Y-12456460D01*
X9820182Y-12456460D02*
X9810658Y-12446936D01*
X10001134Y-12265984D02*
X10124944Y-12265984D01*
X10124944Y-12265984D02*
X10058277Y-12342174D01*
X10058277Y-12342174D02*
X10086849Y-12342174D01*
X10086849Y-12342174D02*
X10105896Y-12351698D01*
X10105896Y-12351698D02*
X10115420Y-12361222D01*
X10115420Y-12361222D02*
X10124944Y-12380269D01*
X10124944Y-12380269D02*
X10124944Y-12427888D01*
X10124944Y-12427888D02*
X10115420Y-12446936D01*
X10115420Y-12446936D02*
X10105896Y-12456460D01*
X10105896Y-12456460D02*
X10086849Y-12465984D01*
X10086849Y-12465984D02*
X10029706Y-12465984D01*
X10029706Y-12465984D02*
X10010658Y-12456460D01*
X10010658Y-12456460D02*
X10001134Y-12446936D01*
X10201134Y-12265984D02*
X10201134Y-12304079D01*
X10277325Y-12265984D02*
X10277325Y-12304079D01*
X10572563Y-12542174D02*
X10563039Y-12532650D01*
X10563039Y-12532650D02*
X10543991Y-12504079D01*
X10543991Y-12504079D02*
X10534468Y-12485031D01*
X10534468Y-12485031D02*
X10524944Y-12456460D01*
X10524944Y-12456460D02*
X10515420Y-12408841D01*
X10515420Y-12408841D02*
X10515420Y-12370746D01*
X10515420Y-12370746D02*
X10524944Y-12323127D01*
X10524944Y-12323127D02*
X10534468Y-12294555D01*
X10534468Y-12294555D02*
X10543991Y-12275508D01*
X10543991Y-12275508D02*
X10563039Y-12246936D01*
X10563039Y-12246936D02*
X10572563Y-12237412D01*
X10734468Y-12265984D02*
X10696372Y-12265984D01*
X10696372Y-12265984D02*
X10677325Y-12275508D01*
X10677325Y-12275508D02*
X10667801Y-12285031D01*
X10667801Y-12285031D02*
X10648753Y-12313603D01*
X10648753Y-12313603D02*
X10639230Y-12351698D01*
X10639230Y-12351698D02*
X10639230Y-12427888D01*
X10639230Y-12427888D02*
X10648753Y-12446936D01*
X10648753Y-12446936D02*
X10658277Y-12456460D01*
X10658277Y-12456460D02*
X10677325Y-12465984D01*
X10677325Y-12465984D02*
X10715420Y-12465984D01*
X10715420Y-12465984D02*
X10734468Y-12456460D01*
X10734468Y-12456460D02*
X10743991Y-12446936D01*
X10743991Y-12446936D02*
X10753515Y-12427888D01*
X10753515Y-12427888D02*
X10753515Y-12380269D01*
X10753515Y-12380269D02*
X10743991Y-12361222D01*
X10743991Y-12361222D02*
X10734468Y-12351698D01*
X10734468Y-12351698D02*
X10715420Y-12342174D01*
X10715420Y-12342174D02*
X10677325Y-12342174D01*
X10677325Y-12342174D02*
X10658277Y-12351698D01*
X10658277Y-12351698D02*
X10648753Y-12361222D01*
X10648753Y-12361222D02*
X10639230Y-12380269D01*
X10991611Y-12465984D02*
X10991611Y-12265984D01*
X11077325Y-12465984D02*
X11077325Y-12361222D01*
X11077325Y-12361222D02*
X11067801Y-12342174D01*
X11067801Y-12342174D02*
X11048753Y-12332650D01*
X11048753Y-12332650D02*
X11020182Y-12332650D01*
X11020182Y-12332650D02*
X11001134Y-12342174D01*
X11001134Y-12342174D02*
X10991611Y-12351698D01*
X11201134Y-12465984D02*
X11182087Y-12456460D01*
X11182087Y-12456460D02*
X11172563Y-12446936D01*
X11172563Y-12446936D02*
X11163039Y-12427888D01*
X11163039Y-12427888D02*
X11163039Y-12370746D01*
X11163039Y-12370746D02*
X11172563Y-12351698D01*
X11172563Y-12351698D02*
X11182087Y-12342174D01*
X11182087Y-12342174D02*
X11201134Y-12332650D01*
X11201134Y-12332650D02*
X11229706Y-12332650D01*
X11229706Y-12332650D02*
X11248753Y-12342174D01*
X11248753Y-12342174D02*
X11258277Y-12351698D01*
X11258277Y-12351698D02*
X11267801Y-12370746D01*
X11267801Y-12370746D02*
X11267801Y-12427888D01*
X11267801Y-12427888D02*
X11258277Y-12446936D01*
X11258277Y-12446936D02*
X11248753Y-12456460D01*
X11248753Y-12456460D02*
X11229706Y-12465984D01*
X11229706Y-12465984D02*
X11201134Y-12465984D01*
X11382087Y-12465984D02*
X11363039Y-12456460D01*
X11363039Y-12456460D02*
X11353515Y-12437412D01*
X11353515Y-12437412D02*
X11353515Y-12265984D01*
X11534468Y-12456460D02*
X11515420Y-12465984D01*
X11515420Y-12465984D02*
X11477325Y-12465984D01*
X11477325Y-12465984D02*
X11458277Y-12456460D01*
X11458277Y-12456460D02*
X11448753Y-12437412D01*
X11448753Y-12437412D02*
X11448753Y-12361222D01*
X11448753Y-12361222D02*
X11458277Y-12342174D01*
X11458277Y-12342174D02*
X11477325Y-12332650D01*
X11477325Y-12332650D02*
X11515420Y-12332650D01*
X11515420Y-12332650D02*
X11534468Y-12342174D01*
X11534468Y-12342174D02*
X11543991Y-12361222D01*
X11543991Y-12361222D02*
X11543991Y-12380269D01*
X11543991Y-12380269D02*
X11448753Y-12399317D01*
X11620182Y-12456460D02*
X11639230Y-12465984D01*
X11639230Y-12465984D02*
X11677325Y-12465984D01*
X11677325Y-12465984D02*
X11696372Y-12456460D01*
X11696372Y-12456460D02*
X11705896Y-12437412D01*
X11705896Y-12437412D02*
X11705896Y-12427888D01*
X11705896Y-12427888D02*
X11696372Y-12408841D01*
X11696372Y-12408841D02*
X11677325Y-12399317D01*
X11677325Y-12399317D02*
X11648753Y-12399317D01*
X11648753Y-12399317D02*
X11629706Y-12389793D01*
X11629706Y-12389793D02*
X11620182Y-12370746D01*
X11620182Y-12370746D02*
X11620182Y-12361222D01*
X11620182Y-12361222D02*
X11629706Y-12342174D01*
X11629706Y-12342174D02*
X11648753Y-12332650D01*
X11648753Y-12332650D02*
X11677325Y-12332650D01*
X11677325Y-12332650D02*
X11696372Y-12342174D01*
X11772563Y-12542174D02*
X11782087Y-12532650D01*
X11782087Y-12532650D02*
X11801134Y-12504079D01*
X11801134Y-12504079D02*
X11810658Y-12485031D01*
X11810658Y-12485031D02*
X11820182Y-12456460D01*
X11820182Y-12456460D02*
X11829706Y-12408841D01*
X11829706Y-12408841D02*
X11829706Y-12370746D01*
X11829706Y-12370746D02*
X11820182Y-12323127D01*
X11820182Y-12323127D02*
X11810658Y-12294555D01*
X11810658Y-12294555D02*
X11801134Y-12275508D01*
X11801134Y-12275508D02*
X11782087Y-12246936D01*
X11782087Y-12246936D02*
X11772563Y-12237412D01*
M02*
