M48
; DRILL file {KiCad 8.0.8} date 2025-03-05T20:49:25-0600
; FORMAT={-:-/ absolute / metric / decimal}
; #@! TF.CreationDate,2025-03-05T20:49:25-06:00
; #@! TF.GenerationSoftware,Kicad,Pcbnew,8.0.8
; #@! TF.FileFunction,Plated,1,2,PTH
FMAT,2
METRIC
; #@! TA.AperFunction,Plated,PTH,ViaDrill
T1C0.300
; #@! TA.AperFunction,Plated,PTH,ViaDrill
T2C0.350
; #@! TA.AperFunction,Plated,PTH,ComponentDrill
T3C1.000
; #@! TA.AperFunction,Plated,PTH,ComponentDrill
T4C1.100
%
G90
G05
T1
X71.6Y-77.4
X77.7Y-82.6
X78.8Y-73.7
X80.8Y-96.4
X80.9Y-79.2
X81.6Y-82.6
X87.9Y-93.0
X89.9Y-77.1
X100.5Y-107.8
X104.0Y-73.1
T2
X86.5Y-71.6
X88.4Y-80.2
X89.2Y-71.6
X90.2Y-82.3
X91.4Y-75.4
X91.8Y-85.2
X95.3Y-78.6
X96.2Y-96.7
X97.6Y-96.7
X97.8Y-94.9
X98.0Y-71.2
X98.1Y-78.6
X100.4Y-76.9
X103.1Y-99.0
X104.9Y-99.0
X107.3Y-101.1
X108.1Y-77.4
T3
X93.98Y-81.28
X93.98Y-83.82
X104.14Y-81.28
X104.14Y-83.82
X104.14Y-86.36
X106.68Y-81.28
X106.68Y-83.82
X106.68Y-86.36
X106.68Y-91.44
X106.68Y-93.98
X106.68Y-96.52
T4
X76.8Y-105.0
X80.3Y-105.0
X83.8Y-105.0
X87.3Y-105.0
X90.8Y-105.0
X94.3Y-105.0
M30
