%TF.GenerationSoftware,KiCad,Pcbnew,8.0.8*%
%TF.CreationDate,2025-03-05T20:49:48-06:00*%
%TF.ProjectId,Incipit11,496e6369-7069-4743-9131-2e6b69636164,A*%
%TF.SameCoordinates,Original*%
%TF.FileFunction,Drillmap*%
%TF.FilePolarity,Positive*%
%FSLAX45Y45*%
G04 Gerber Fmt 4.5, Leading zero omitted, Abs format (unit mm)*
G04 Created by KiCad (PCBNEW 8.0.8) date 2025-03-05 20:49:48*
%MOMM*%
%LPD*%
G01*
G04 APERTURE LIST*
%ADD10C,0.050000*%
%ADD11C,0.200000*%
G04 APERTURE END LIST*
D10*
X10500000Y-10540000D02*
G75*
G02*
X10700000Y-10340000I200000J0D01*
G01*
X10700000Y-7600000D02*
G75*
G02*
X10500000Y-7400000I0J200000D01*
G01*
X10500000Y-7400000D02*
X10500000Y-7000000D01*
X10700000Y-10340000D02*
X10940000Y-10340000D01*
X10940000Y-7600000D02*
X10940000Y-10340000D01*
X7240000Y-10340000D02*
X7000000Y-10340000D01*
X7440000Y-7000000D02*
X10500000Y-7000000D01*
X10500000Y-10940000D02*
X7440000Y-10940000D01*
X7440000Y-7400000D02*
X7440000Y-7000000D01*
X7240000Y-7600000D02*
X7000000Y-7600000D01*
X7440000Y-10540000D02*
X7440000Y-10940000D01*
X10500000Y-10540000D02*
X10500000Y-10940000D01*
X7000000Y-10340000D02*
X7000000Y-7600000D01*
X7240000Y-10340000D02*
G75*
G02*
X7440000Y-10540000I0J-200000D01*
G01*
X10700000Y-7600000D02*
X10940000Y-7600000D01*
X7440000Y-7400000D02*
G75*
G02*
X7240000Y-7600000I-200000J0D01*
G01*
D11*
X7258277Y-11253984D02*
X7258277Y-11053984D01*
X7258277Y-11053984D02*
X7305896Y-11053984D01*
X7305896Y-11053984D02*
X7334467Y-11063508D01*
X7334467Y-11063508D02*
X7353515Y-11082555D01*
X7353515Y-11082555D02*
X7363039Y-11101603D01*
X7363039Y-11101603D02*
X7372562Y-11139698D01*
X7372562Y-11139698D02*
X7372562Y-11168270D01*
X7372562Y-11168270D02*
X7363039Y-11206365D01*
X7363039Y-11206365D02*
X7353515Y-11225412D01*
X7353515Y-11225412D02*
X7334467Y-11244460D01*
X7334467Y-11244460D02*
X7305896Y-11253984D01*
X7305896Y-11253984D02*
X7258277Y-11253984D01*
X7458277Y-11253984D02*
X7458277Y-11120650D01*
X7458277Y-11158746D02*
X7467801Y-11139698D01*
X7467801Y-11139698D02*
X7477324Y-11130174D01*
X7477324Y-11130174D02*
X7496372Y-11120650D01*
X7496372Y-11120650D02*
X7515420Y-11120650D01*
X7582086Y-11253984D02*
X7582086Y-11120650D01*
X7582086Y-11053984D02*
X7572562Y-11063508D01*
X7572562Y-11063508D02*
X7582086Y-11073031D01*
X7582086Y-11073031D02*
X7591610Y-11063508D01*
X7591610Y-11063508D02*
X7582086Y-11053984D01*
X7582086Y-11053984D02*
X7582086Y-11073031D01*
X7705896Y-11253984D02*
X7686848Y-11244460D01*
X7686848Y-11244460D02*
X7677324Y-11225412D01*
X7677324Y-11225412D02*
X7677324Y-11053984D01*
X7810658Y-11253984D02*
X7791610Y-11244460D01*
X7791610Y-11244460D02*
X7782086Y-11225412D01*
X7782086Y-11225412D02*
X7782086Y-11053984D01*
X8039229Y-11253984D02*
X8039229Y-11053984D01*
X8039229Y-11053984D02*
X8105896Y-11196841D01*
X8105896Y-11196841D02*
X8172562Y-11053984D01*
X8172562Y-11053984D02*
X8172562Y-11253984D01*
X8353515Y-11253984D02*
X8353515Y-11149222D01*
X8353515Y-11149222D02*
X8343991Y-11130174D01*
X8343991Y-11130174D02*
X8324943Y-11120650D01*
X8324943Y-11120650D02*
X8286848Y-11120650D01*
X8286848Y-11120650D02*
X8267801Y-11130174D01*
X8353515Y-11244460D02*
X8334467Y-11253984D01*
X8334467Y-11253984D02*
X8286848Y-11253984D01*
X8286848Y-11253984D02*
X8267801Y-11244460D01*
X8267801Y-11244460D02*
X8258277Y-11225412D01*
X8258277Y-11225412D02*
X8258277Y-11206365D01*
X8258277Y-11206365D02*
X8267801Y-11187317D01*
X8267801Y-11187317D02*
X8286848Y-11177793D01*
X8286848Y-11177793D02*
X8334467Y-11177793D01*
X8334467Y-11177793D02*
X8353515Y-11168270D01*
X8448753Y-11120650D02*
X8448753Y-11320650D01*
X8448753Y-11130174D02*
X8467801Y-11120650D01*
X8467801Y-11120650D02*
X8505896Y-11120650D01*
X8505896Y-11120650D02*
X8524944Y-11130174D01*
X8524944Y-11130174D02*
X8534467Y-11139698D01*
X8534467Y-11139698D02*
X8543991Y-11158746D01*
X8543991Y-11158746D02*
X8543991Y-11215888D01*
X8543991Y-11215888D02*
X8534467Y-11234936D01*
X8534467Y-11234936D02*
X8524944Y-11244460D01*
X8524944Y-11244460D02*
X8505896Y-11253984D01*
X8505896Y-11253984D02*
X8467801Y-11253984D01*
X8467801Y-11253984D02*
X8448753Y-11244460D01*
X8629705Y-11234936D02*
X8639229Y-11244460D01*
X8639229Y-11244460D02*
X8629705Y-11253984D01*
X8629705Y-11253984D02*
X8620182Y-11244460D01*
X8620182Y-11244460D02*
X8629705Y-11234936D01*
X8629705Y-11234936D02*
X8629705Y-11253984D01*
X8629705Y-11130174D02*
X8639229Y-11139698D01*
X8639229Y-11139698D02*
X8629705Y-11149222D01*
X8629705Y-11149222D02*
X8620182Y-11139698D01*
X8620182Y-11139698D02*
X8629705Y-11130174D01*
X8629705Y-11130174D02*
X8629705Y-11149222D01*
M02*
