G04 #@! TF.GenerationSoftware,KiCad,Pcbnew,8.0.8*
G04 #@! TF.CreationDate,2025-03-05T20:48:14-06:00*
G04 #@! TF.ProjectId,Incipit11,496e6369-7069-4743-9131-2e6b69636164,A*
G04 #@! TF.SameCoordinates,Original*
G04 #@! TF.FileFunction,Soldermask,Top*
G04 #@! TF.FilePolarity,Negative*
%FSLAX46Y46*%
G04 Gerber Fmt 4.6, Leading zero omitted, Abs format (unit mm)*
G04 Created by KiCad (PCBNEW 8.0.8) date 2025-03-05 20:48:14*
%MOMM*%
%LPD*%
G01*
G04 APERTURE LIST*
G04 Aperture macros list*
%AMRoundRect*
0 Rectangle with rounded corners*
0 $1 Rounding radius*
0 $2 $3 $4 $5 $6 $7 $8 $9 X,Y pos of 4 corners*
0 Add a 4 corners polygon primitive as box body*
4,1,4,$2,$3,$4,$5,$6,$7,$8,$9,$2,$3,0*
0 Add four circle primitives for the rounded corners*
1,1,$1+$1,$2,$3*
1,1,$1+$1,$4,$5*
1,1,$1+$1,$6,$7*
1,1,$1+$1,$8,$9*
0 Add four rect primitives between the rounded corners*
20,1,$1+$1,$2,$3,$4,$5,0*
20,1,$1+$1,$4,$5,$6,$7,0*
20,1,$1+$1,$6,$7,$8,$9,0*
20,1,$1+$1,$8,$9,$2,$3,0*%
G04 Aperture macros list end*
%ADD10RoundRect,0.102000X-0.825000X-0.825000X0.825000X-0.825000X0.825000X0.825000X-0.825000X0.825000X0*%
%ADD11C,1.854000*%
%ADD12RoundRect,0.225000X-0.375000X0.225000X-0.375000X-0.225000X0.375000X-0.225000X0.375000X0.225000X0*%
%ADD13R,1.600000X1.900000*%
%ADD14RoundRect,0.200000X-0.275000X0.200000X-0.275000X-0.200000X0.275000X-0.200000X0.275000X0.200000X0*%
%ADD15RoundRect,0.200000X0.200000X0.275000X-0.200000X0.275000X-0.200000X-0.275000X0.200000X-0.275000X0*%
%ADD16RoundRect,0.250000X-1.450000X0.312500X-1.450000X-0.312500X1.450000X-0.312500X1.450000X0.312500X0*%
%ADD17R,1.400000X3.000000*%
%ADD18R,6.000000X6.500000*%
%ADD19RoundRect,0.225000X-0.250000X0.225000X-0.250000X-0.225000X0.250000X-0.225000X0.250000X0.225000X0*%
%ADD20RoundRect,0.200000X0.275000X-0.200000X0.275000X0.200000X-0.275000X0.200000X-0.275000X-0.200000X0*%
%ADD21RoundRect,0.225000X-0.225000X-0.250000X0.225000X-0.250000X0.225000X0.250000X-0.225000X0.250000X0*%
%ADD22RoundRect,0.225000X0.250000X-0.225000X0.250000X0.225000X-0.250000X0.225000X-0.250000X-0.225000X0*%
%ADD23R,0.650000X0.650000*%
%ADD24RoundRect,0.250000X0.475000X-0.250000X0.475000X0.250000X-0.475000X0.250000X-0.475000X-0.250000X0*%
%ADD25RoundRect,0.150000X0.150000X-0.675000X0.150000X0.675000X-0.150000X0.675000X-0.150000X-0.675000X0*%
%ADD26R,1.473200X0.889000*%
%ADD27R,1.473200X3.149600*%
%ADD28R,1.700000X1.700000*%
%ADD29O,1.700000X1.700000*%
%ADD30RoundRect,0.218750X0.256250X-0.218750X0.256250X0.218750X-0.256250X0.218750X-0.256250X-0.218750X0*%
%ADD31RoundRect,0.150000X-0.150000X-0.625000X0.150000X-0.625000X0.150000X0.625000X-0.150000X0.625000X0*%
%ADD32RoundRect,0.250000X-0.350000X-0.650000X0.350000X-0.650000X0.350000X0.650000X-0.350000X0.650000X0*%
%ADD33R,1.308100X0.355600*%
%ADD34R,1.000000X0.600000*%
%ADD35RoundRect,0.225000X0.375000X-0.225000X0.375000X0.225000X-0.375000X0.225000X-0.375000X-0.225000X0*%
G04 APERTURE END LIST*
D10*
X76800000Y-105000000D03*
D11*
X80300000Y-105000000D03*
X83800000Y-105000000D03*
X87300000Y-105000000D03*
X90800000Y-105000000D03*
X94300000Y-105000000D03*
D12*
X93200000Y-96350000D03*
X93200000Y-99650000D03*
D13*
X80645000Y-98700000D03*
X76345000Y-98700000D03*
D14*
X103200000Y-100275000D03*
X103200000Y-101925000D03*
X99200000Y-95775000D03*
X99200000Y-97425000D03*
D15*
X87825000Y-81500000D03*
X86175000Y-81500000D03*
X93795000Y-86900000D03*
X92145000Y-86900000D03*
D16*
X86400000Y-95162500D03*
X86400000Y-99437500D03*
D14*
X80500000Y-71750000D03*
X80500000Y-73400000D03*
D15*
X87825000Y-83100000D03*
X86175000Y-83100000D03*
D17*
X83900000Y-82550000D03*
X79300000Y-82550000D03*
D18*
X81600000Y-88800000D03*
D19*
X90770000Y-88725000D03*
X90770000Y-90275000D03*
D20*
X102400000Y-97425000D03*
X102400000Y-95775000D03*
D21*
X92725000Y-72000000D03*
X94275000Y-72000000D03*
D22*
X100900000Y-97375000D03*
X100900000Y-95825000D03*
D23*
X75875000Y-75275000D03*
X75875000Y-72125000D03*
X77525000Y-75275000D03*
X77525000Y-72125000D03*
D24*
X91000000Y-73850000D03*
X91000000Y-71950000D03*
D25*
X92530000Y-94300000D03*
X93800000Y-94300000D03*
X95070000Y-94300000D03*
X96340000Y-94300000D03*
X96340000Y-89050000D03*
X95070000Y-89050000D03*
X93800000Y-89050000D03*
X92530000Y-89050000D03*
D14*
X105000000Y-100275000D03*
X105000000Y-101925000D03*
D21*
X92725000Y-73600000D03*
X94275000Y-73600000D03*
D26*
X82436100Y-71788600D03*
X82436100Y-74100000D03*
X82436100Y-76411400D03*
D27*
X88963900Y-74100000D03*
D28*
X93980000Y-81280000D03*
D29*
X93980000Y-83820000D03*
D22*
X80500000Y-76375000D03*
X80500000Y-74825000D03*
D30*
X95300000Y-99700000D03*
X95300000Y-98125000D03*
X89400000Y-99700000D03*
X89400000Y-98125000D03*
D28*
X106680000Y-91440000D03*
D29*
X106680000Y-93980000D03*
X106680000Y-96520000D03*
D14*
X89400000Y-94975000D03*
X89400000Y-96625000D03*
D31*
X99000000Y-104000000D03*
X100000000Y-104000000D03*
X101000000Y-104000000D03*
X102000000Y-104000000D03*
D32*
X97700000Y-107875000D03*
X103300000Y-107875000D03*
D14*
X91100000Y-98050000D03*
X91100000Y-99700000D03*
D33*
X96498050Y-73249999D03*
X96498050Y-73900000D03*
X96498050Y-74550001D03*
X96498050Y-75200000D03*
X96498050Y-75849999D03*
X96498050Y-76500000D03*
X96498050Y-77149999D03*
X102301950Y-77150001D03*
X102301950Y-76500000D03*
X102301950Y-75850001D03*
X102301950Y-75200000D03*
X102301950Y-74550001D03*
X102301950Y-73900000D03*
X102301950Y-73250001D03*
D34*
X98400000Y-99800000D03*
X98400000Y-101100000D03*
X100600000Y-101100000D03*
X100600000Y-99800000D03*
D35*
X83100000Y-99550000D03*
X83100000Y-96250000D03*
D28*
X104140000Y-81280000D03*
D29*
X106680000Y-81280000D03*
X104140000Y-83820000D03*
X106680000Y-83820000D03*
X104140000Y-86360000D03*
X106680000Y-86360000D03*
M02*
