G04 #@! TF.GenerationSoftware,KiCad,Pcbnew,9.0.1*
G04 #@! TF.CreationDate,2025-05-14T09:26:50-05:00*
G04 #@! TF.ProjectId,Incipit11,496e6369-7069-4743-9131-2e6b69636164,A*
G04 #@! TF.SameCoordinates,Original*
G04 #@! TF.FileFunction,Copper,L1,Top*
G04 #@! TF.FilePolarity,Positive*
%FSLAX46Y46*%
G04 Gerber Fmt 4.6, Leading zero omitted, Abs format (unit mm)*
G04 Created by KiCad (PCBNEW 9.0.1) date 2025-05-14 09:26:50*
%MOMM*%
%LPD*%
G01*
G04 APERTURE LIST*
G04 Aperture macros list*
%AMRoundRect*
0 Rectangle with rounded corners*
0 $1 Rounding radius*
0 $2 $3 $4 $5 $6 $7 $8 $9 X,Y pos of 4 corners*
0 Add a 4 corners polygon primitive as box body*
4,1,4,$2,$3,$4,$5,$6,$7,$8,$9,$2,$3,0*
0 Add four circle primitives for the rounded corners*
1,1,$1+$1,$2,$3*
1,1,$1+$1,$4,$5*
1,1,$1+$1,$6,$7*
1,1,$1+$1,$8,$9*
0 Add four rect primitives between the rounded corners*
20,1,$1+$1,$2,$3,$4,$5,0*
20,1,$1+$1,$4,$5,$6,$7,0*
20,1,$1+$1,$6,$7,$8,$9,0*
20,1,$1+$1,$8,$9,$2,$3,0*%
%AMFreePoly0*
4,1,23,0.500000,-0.750000,0.000000,-0.750000,0.000000,-0.745722,-0.065263,-0.745722,-0.191342,-0.711940,-0.304381,-0.646677,-0.396677,-0.554381,-0.461940,-0.441342,-0.495722,-0.315263,-0.495722,-0.250000,-0.500000,-0.250000,-0.500000,0.250000,-0.495722,0.250000,-0.495722,0.315263,-0.461940,0.441342,-0.396677,0.554381,-0.304381,0.646677,-0.191342,0.711940,-0.065263,0.745722,0.000000,0.745722,
0.000000,0.750000,0.500000,0.750000,0.500000,-0.750000,0.500000,-0.750000,$1*%
%AMFreePoly1*
4,1,23,0.000000,0.745722,0.065263,0.745722,0.191342,0.711940,0.304381,0.646677,0.396677,0.554381,0.461940,0.441342,0.495722,0.315263,0.495722,0.250000,0.500000,0.250000,0.500000,-0.250000,0.495722,-0.250000,0.495722,-0.315263,0.461940,-0.441342,0.396677,-0.554381,0.304381,-0.646677,0.191342,-0.711940,0.065263,-0.745722,0.000000,-0.745722,0.000000,-0.750000,-0.500000,-0.750000,
-0.500000,0.750000,0.000000,0.750000,0.000000,0.745722,0.000000,0.745722,$1*%
G04 Aperture macros list end*
G04 #@! TA.AperFunction,EtchedComponent*
%ADD10C,0.000000*%
G04 #@! TD*
G04 #@! TA.AperFunction,SMDPad,CuDef*
%ADD11RoundRect,0.225000X-0.375000X0.225000X-0.375000X-0.225000X0.375000X-0.225000X0.375000X0.225000X0*%
G04 #@! TD*
G04 #@! TA.AperFunction,SMDPad,CuDef*
%ADD12R,1.900000X1.600000*%
G04 #@! TD*
G04 #@! TA.AperFunction,SMDPad,CuDef*
%ADD13RoundRect,0.200000X-0.275000X0.200000X-0.275000X-0.200000X0.275000X-0.200000X0.275000X0.200000X0*%
G04 #@! TD*
G04 #@! TA.AperFunction,SMDPad,CuDef*
%ADD14RoundRect,0.200000X0.200000X0.275000X-0.200000X0.275000X-0.200000X-0.275000X0.200000X-0.275000X0*%
G04 #@! TD*
G04 #@! TA.AperFunction,ComponentPad*
%ADD15C,1.650000*%
G04 #@! TD*
G04 #@! TA.AperFunction,SMDPad,CuDef*
%ADD16RoundRect,0.250000X-1.450000X0.312500X-1.450000X-0.312500X1.450000X-0.312500X1.450000X0.312500X0*%
G04 #@! TD*
G04 #@! TA.AperFunction,SMDPad,CuDef*
%ADD17FreePoly0,0.000000*%
G04 #@! TD*
G04 #@! TA.AperFunction,SMDPad,CuDef*
%ADD18FreePoly1,0.000000*%
G04 #@! TD*
G04 #@! TA.AperFunction,SMDPad,CuDef*
%ADD19R,3.000000X1.400000*%
G04 #@! TD*
G04 #@! TA.AperFunction,SMDPad,CuDef*
%ADD20R,6.500000X6.000000*%
G04 #@! TD*
G04 #@! TA.AperFunction,SMDPad,CuDef*
%ADD21RoundRect,0.225000X-0.250000X0.225000X-0.250000X-0.225000X0.250000X-0.225000X0.250000X0.225000X0*%
G04 #@! TD*
G04 #@! TA.AperFunction,ComponentPad*
%ADD22R,1.700000X1.700000*%
G04 #@! TD*
G04 #@! TA.AperFunction,ComponentPad*
%ADD23C,1.700000*%
G04 #@! TD*
G04 #@! TA.AperFunction,ComponentPad*
%ADD24C,2.600000*%
G04 #@! TD*
G04 #@! TA.AperFunction,ConnectorPad*
%ADD25C,3.500000*%
G04 #@! TD*
G04 #@! TA.AperFunction,SMDPad,CuDef*
%ADD26RoundRect,0.200000X0.275000X-0.200000X0.275000X0.200000X-0.275000X0.200000X-0.275000X-0.200000X0*%
G04 #@! TD*
G04 #@! TA.AperFunction,SMDPad,CuDef*
%ADD27RoundRect,0.225000X-0.225000X-0.250000X0.225000X-0.250000X0.225000X0.250000X-0.225000X0.250000X0*%
G04 #@! TD*
G04 #@! TA.AperFunction,SMDPad,CuDef*
%ADD28RoundRect,0.225000X0.250000X-0.225000X0.250000X0.225000X-0.250000X0.225000X-0.250000X-0.225000X0*%
G04 #@! TD*
G04 #@! TA.AperFunction,SMDPad,CuDef*
%ADD29RoundRect,0.250000X0.250000X0.475000X-0.250000X0.475000X-0.250000X-0.475000X0.250000X-0.475000X0*%
G04 #@! TD*
G04 #@! TA.AperFunction,SMDPad,CuDef*
%ADD30RoundRect,0.150000X0.150000X-0.675000X0.150000X0.675000X-0.150000X0.675000X-0.150000X-0.675000X0*%
G04 #@! TD*
G04 #@! TA.AperFunction,ComponentPad*
%ADD31C,2.000000*%
G04 #@! TD*
G04 #@! TA.AperFunction,SMDPad,CuDef*
%ADD32R,0.889000X1.473200*%
G04 #@! TD*
G04 #@! TA.AperFunction,SMDPad,CuDef*
%ADD33R,3.149600X1.473200*%
G04 #@! TD*
G04 #@! TA.AperFunction,SMDPad,CuDef*
%ADD34RoundRect,0.225000X0.225000X0.250000X-0.225000X0.250000X-0.225000X-0.250000X0.225000X-0.250000X0*%
G04 #@! TD*
G04 #@! TA.AperFunction,SMDPad,CuDef*
%ADD35RoundRect,0.218750X0.256250X-0.218750X0.256250X0.218750X-0.256250X0.218750X-0.256250X-0.218750X0*%
G04 #@! TD*
G04 #@! TA.AperFunction,SMDPad,CuDef*
%ADD36R,0.500000X0.800000*%
G04 #@! TD*
G04 #@! TA.AperFunction,SMDPad,CuDef*
%ADD37R,0.400000X0.800000*%
G04 #@! TD*
G04 #@! TA.AperFunction,SMDPad,CuDef*
%ADD38RoundRect,0.150000X-0.625000X0.150000X-0.625000X-0.150000X0.625000X-0.150000X0.625000X0.150000X0*%
G04 #@! TD*
G04 #@! TA.AperFunction,SMDPad,CuDef*
%ADD39RoundRect,0.250000X-0.650000X0.350000X-0.650000X-0.350000X0.650000X-0.350000X0.650000X0.350000X0*%
G04 #@! TD*
G04 #@! TA.AperFunction,SMDPad,CuDef*
%ADD40R,1.308100X0.355600*%
G04 #@! TD*
G04 #@! TA.AperFunction,SMDPad,CuDef*
%ADD41R,1.000000X0.600000*%
G04 #@! TD*
G04 #@! TA.AperFunction,SMDPad,CuDef*
%ADD42RoundRect,0.225000X0.375000X-0.225000X0.375000X0.225000X-0.375000X0.225000X-0.375000X-0.225000X0*%
G04 #@! TD*
G04 #@! TA.AperFunction,ViaPad*
%ADD43C,0.600000*%
G04 #@! TD*
G04 #@! TA.AperFunction,Conductor*
%ADD44C,0.200000*%
G04 #@! TD*
G04 #@! TA.AperFunction,Conductor*
%ADD45C,2.000000*%
G04 #@! TD*
G04 #@! TA.AperFunction,Conductor*
%ADD46C,0.450000*%
G04 #@! TD*
G04 #@! TA.AperFunction,Conductor*
%ADD47C,0.300000*%
G04 #@! TD*
G04 #@! TA.AperFunction,Conductor*
%ADD48C,1.000000*%
G04 #@! TD*
G04 APERTURE END LIST*
D10*
G04 #@! TA.AperFunction,EtchedComponent*
G36*
X151300000Y-71250000D02*
G01*
X150800000Y-71250000D01*
X150800000Y-70650000D01*
X151300000Y-70650000D01*
X151300000Y-71250000D01*
G37*
G04 #@! TD.AperFunction*
G04 #@! TA.AperFunction,EtchedComponent*
G36*
X151300000Y-76250000D02*
G01*
X150800000Y-76250000D01*
X150800000Y-75650000D01*
X151300000Y-75650000D01*
X151300000Y-76250000D01*
G37*
G04 #@! TD.AperFunction*
G04 #@! TA.AperFunction,EtchedComponent*
G36*
X151300000Y-73750000D02*
G01*
X150800000Y-73750000D01*
X150800000Y-73150000D01*
X151300000Y-73150000D01*
X151300000Y-73750000D01*
G37*
G04 #@! TD.AperFunction*
D11*
X154270000Y-95050000D03*
X154270000Y-98350000D03*
D12*
X142400000Y-97800000D03*
X142400000Y-93500000D03*
D13*
X128200000Y-104575000D03*
X128200000Y-106225000D03*
X164500000Y-104175000D03*
X164500000Y-105825000D03*
D14*
X137250000Y-81500000D03*
X135600000Y-81500000D03*
D15*
X137400000Y-107600000D03*
X140900000Y-107600000D03*
X144400000Y-107600000D03*
X147900000Y-107600000D03*
X151400000Y-107600000D03*
X154900000Y-107600000D03*
D12*
X139100000Y-93500000D03*
X139100000Y-97800000D03*
D14*
X154865000Y-85600000D03*
X153215000Y-85600000D03*
D16*
X148700000Y-93862500D03*
X148700000Y-98137500D03*
D17*
X150400000Y-70950000D03*
D18*
X151700000Y-70950000D03*
D14*
X137250000Y-83000000D03*
X135600000Y-83000000D03*
D19*
X136420000Y-85200000D03*
X136420000Y-89800000D03*
D20*
X142670000Y-87500000D03*
D21*
X151840000Y-87425000D03*
X151840000Y-88975000D03*
D22*
X165100000Y-82350000D03*
D23*
X165100000Y-84890000D03*
X165100000Y-87430000D03*
X165100000Y-89970000D03*
X165100000Y-92510000D03*
X165100000Y-95050000D03*
D24*
X128500000Y-76750000D03*
D25*
X128500000Y-76750000D03*
D26*
X162500000Y-100075000D03*
X162500000Y-98425000D03*
D17*
X150400000Y-75950000D03*
D18*
X151700000Y-75950000D03*
D27*
X135436100Y-73350000D03*
X136986100Y-73350000D03*
D28*
X164250000Y-100025000D03*
X164250000Y-98475000D03*
D29*
X129200000Y-80500000D03*
X127300000Y-80500000D03*
D30*
X153600000Y-93000000D03*
X154870000Y-93000000D03*
X156140000Y-93000000D03*
X157410000Y-93000000D03*
X157410000Y-87750000D03*
X156140000Y-87750000D03*
X154870000Y-87750000D03*
X153600000Y-87750000D03*
D13*
X126700000Y-104575000D03*
X126700000Y-106225000D03*
D31*
X162555826Y-77610369D03*
X157959632Y-73014175D03*
X165737806Y-74428389D03*
X161141612Y-69832195D03*
X158949581Y-76620420D03*
D27*
X135436100Y-74950000D03*
X136986100Y-74950000D03*
D24*
X128500000Y-99750000D03*
D25*
X128500000Y-99750000D03*
D32*
X127138600Y-89063900D03*
X129450000Y-89063900D03*
X131761400Y-89063900D03*
D33*
X129450000Y-82536100D03*
D34*
X131725000Y-91000000D03*
X130175000Y-91000000D03*
D35*
X160500000Y-110187500D03*
X160500000Y-108612500D03*
X158500000Y-110187500D03*
X158500000Y-108612500D03*
D36*
X142811100Y-70750000D03*
D37*
X142011100Y-70750000D03*
X141211100Y-70750000D03*
D36*
X140411100Y-70750000D03*
X140411100Y-72550000D03*
D37*
X141211100Y-72550000D03*
X142011100Y-72550000D03*
D36*
X142811100Y-72550000D03*
D13*
X160750000Y-98425000D03*
X160750000Y-100075000D03*
D17*
X150400000Y-73450000D03*
D18*
X151700000Y-73450000D03*
D38*
X130675000Y-105900000D03*
X130675000Y-106900000D03*
X130675000Y-107900000D03*
X130675000Y-108900000D03*
D39*
X133200000Y-104600000D03*
X133200000Y-110200000D03*
D13*
X152170000Y-96750000D03*
X152170000Y-98400000D03*
D24*
X158000000Y-96500000D03*
D25*
X158000000Y-96500000D03*
D40*
X139209150Y-74599999D03*
X139209150Y-75250000D03*
X139209150Y-75900001D03*
X139209150Y-76550000D03*
X139209150Y-77199999D03*
X139209150Y-77850000D03*
X139209150Y-78499999D03*
X145013050Y-78500001D03*
X145013050Y-77850000D03*
X145013050Y-77200001D03*
X145013050Y-76550000D03*
X145013050Y-75900001D03*
X145013050Y-75250000D03*
X145013050Y-74600001D03*
D41*
X161500000Y-106350000D03*
X161500000Y-105050000D03*
X159300000Y-105050000D03*
X159300000Y-106350000D03*
D42*
X145300000Y-98250000D03*
X145300000Y-94950000D03*
D43*
X165200000Y-79300000D03*
X156000000Y-72800000D03*
X151800000Y-78600000D03*
X154200000Y-89400000D03*
X143400000Y-77800000D03*
X162800000Y-103200000D03*
X166000000Y-100000000D03*
X153200000Y-100200000D03*
X150000000Y-100200000D03*
X153000000Y-69400000D03*
X139200000Y-69600000D03*
X132400000Y-82000000D03*
X132400000Y-83000000D03*
X133200000Y-91000000D03*
X153900000Y-84600000D03*
X133800000Y-107900000D03*
X145513863Y-79586135D03*
X146500000Y-78800000D03*
X133800000Y-108800000D03*
X146400000Y-73400000D03*
X137500000Y-88000000D03*
X146250000Y-110250000D03*
X159000000Y-100500000D03*
X135500000Y-87000000D03*
X141400000Y-75200000D03*
X130250000Y-110250000D03*
X136500000Y-87000000D03*
X147800000Y-78400000D03*
X156100000Y-110300000D03*
X136000000Y-78500000D03*
X149000000Y-70600000D03*
X142800000Y-95600000D03*
X139000000Y-80000000D03*
X143000000Y-91500000D03*
X156750000Y-100250000D03*
X144000000Y-73200000D03*
X152250000Y-95000000D03*
X135500000Y-88000000D03*
X156200000Y-106100000D03*
X133600000Y-91800000D03*
X137500000Y-87000000D03*
X142400000Y-101800000D03*
X147800000Y-79800000D03*
X150200000Y-82000000D03*
X162000000Y-109250000D03*
X136500000Y-88000000D03*
X135250000Y-110250000D03*
X147400000Y-75200000D03*
X140900000Y-83100000D03*
X143800000Y-71600000D03*
X147900000Y-81900000D03*
X147900000Y-82900000D03*
D44*
X154050000Y-82350000D02*
X165100000Y-82350000D01*
X148900001Y-77200001D02*
X154050000Y-82350000D01*
X145013050Y-77200001D02*
X148900001Y-77200001D01*
D45*
X139100000Y-105800000D02*
X140900000Y-107600000D01*
X139100000Y-97800000D02*
X139100000Y-105800000D01*
X144400000Y-99800000D02*
X144400000Y-107600000D01*
X147900000Y-98937500D02*
X147900000Y-107600000D01*
D46*
X151400000Y-99170000D02*
X151400000Y-107600000D01*
X154900000Y-98980000D02*
X154900000Y-107600000D01*
D44*
X156451000Y-109351000D02*
X154900000Y-107800000D01*
X159663500Y-109351000D02*
X156451000Y-109351000D01*
X160500000Y-110187500D02*
X159663500Y-109351000D01*
D47*
X140411100Y-70150000D02*
X140411100Y-70750000D01*
X141361100Y-69200000D02*
X140411100Y-70150000D01*
X151000000Y-69200000D02*
X141361100Y-69200000D01*
X151700000Y-69900000D02*
X151000000Y-69200000D01*
X151700000Y-70950000D02*
X151700000Y-69900000D01*
X166301000Y-78701000D02*
X158550000Y-70950000D01*
X166301000Y-83689000D02*
X166301000Y-78701000D01*
X165100000Y-84890000D02*
X166301000Y-83689000D01*
X158550000Y-70950000D02*
X151700000Y-70950000D01*
X137750000Y-73350000D02*
X136986100Y-73350000D01*
D44*
X164250000Y-100025000D02*
X166251000Y-98024000D01*
X160500000Y-105150000D02*
X160500000Y-103775000D01*
X152165000Y-87750000D02*
X151840000Y-87425000D01*
X151700000Y-75950000D02*
X151700000Y-73450000D01*
X137336101Y-74599999D02*
X136986100Y-74950000D01*
D48*
X129200000Y-80500000D02*
X131911100Y-80500000D01*
D44*
X159300000Y-106350000D02*
X160500000Y-105150000D01*
D48*
X129450000Y-82536100D02*
X129450000Y-80750000D01*
D47*
X140350000Y-70750000D02*
X137750000Y-73350000D01*
D44*
X151840000Y-87425000D02*
X153275000Y-87425000D01*
X166251000Y-86041000D02*
X165100000Y-84890000D01*
X139209150Y-74599999D02*
X137336101Y-74599999D01*
X151840000Y-86975000D02*
X153215000Y-85600000D01*
D48*
X131911100Y-80500000D02*
X136986100Y-75425000D01*
D44*
X166251000Y-98024000D02*
X166251000Y-86041000D01*
D48*
X129200000Y-82286100D02*
X129450000Y-82536100D01*
X129450000Y-80750000D02*
X129200000Y-80500000D01*
X136986100Y-75425000D02*
X136986100Y-74950000D01*
D44*
X153275000Y-87425000D02*
X153600000Y-87750000D01*
X151840000Y-87425000D02*
X151840000Y-86975000D01*
X151700000Y-70950000D02*
X151700000Y-73450000D01*
D47*
X140411100Y-70750000D02*
X140350000Y-70750000D01*
X136986100Y-74950000D02*
X136986100Y-73350000D01*
D44*
X160500000Y-103775000D02*
X164250000Y-100025000D01*
X153215000Y-85285000D02*
X153900000Y-84600000D01*
X153215000Y-85600000D02*
X153215000Y-85285000D01*
D46*
X152170000Y-96750000D02*
X152570000Y-96750000D01*
X152570000Y-96750000D02*
X154270000Y-95050000D01*
X153600000Y-94380000D02*
X154270000Y-95050000D01*
D44*
X153870000Y-95050000D02*
X154270000Y-95050000D01*
D46*
X153600000Y-93000000D02*
X153600000Y-94380000D01*
D44*
X155500000Y-97750000D02*
X157124000Y-99374000D01*
X154870000Y-93000000D02*
X154870000Y-93824999D01*
X160160500Y-108612500D02*
X160500000Y-108612500D01*
X158500000Y-103514064D02*
X161526000Y-100488064D01*
X158500000Y-106952000D02*
X160160500Y-108612500D01*
X155500000Y-94454999D02*
X155500000Y-97750000D01*
X158500000Y-103514064D02*
X158500000Y-106952000D01*
X154870000Y-93824999D02*
X155500000Y-94454999D01*
X157124000Y-99374000D02*
X161238064Y-99374000D01*
X161526000Y-99661936D02*
X161526000Y-100488064D01*
X161238064Y-99374000D02*
X161526000Y-99661936D01*
D45*
X144400000Y-99800000D02*
X145300000Y-98900000D01*
X145300000Y-98900000D02*
X145300000Y-98250000D01*
X144400000Y-99800000D02*
X142400000Y-97800000D01*
D44*
X158099000Y-102726000D02*
X160750000Y-100075000D01*
X158500000Y-108612500D02*
X158099000Y-108211500D01*
X158099000Y-108211500D02*
X158099000Y-102726000D01*
D45*
X147900000Y-98937500D02*
X148700000Y-98137500D01*
D44*
X130675000Y-107900000D02*
X129875000Y-107900000D01*
X129875000Y-107900000D02*
X128200000Y-106225000D01*
X145013050Y-78500001D02*
X145013050Y-79085322D01*
X145013050Y-79085322D02*
X145513863Y-79586135D01*
X133800000Y-107900000D02*
X130675000Y-107900000D01*
X154865000Y-84715057D02*
X151048943Y-80899000D01*
X154865000Y-85600000D02*
X154865000Y-84715057D01*
X154870000Y-87750000D02*
X154870000Y-85605000D01*
X154870000Y-85605000D02*
X154865000Y-85600000D01*
X151048943Y-80899000D02*
X144899000Y-80899000D01*
X140550000Y-76550000D02*
X139209150Y-76550000D01*
X144899000Y-80899000D02*
X140550000Y-76550000D01*
X133800000Y-108800000D02*
X133700000Y-108900000D01*
X129375000Y-108900000D02*
X126700000Y-106225000D01*
X145013050Y-77850000D02*
X145867100Y-77850000D01*
X145867100Y-77850000D02*
X146500000Y-78482900D01*
X133700000Y-108900000D02*
X130675000Y-108900000D01*
X146500000Y-78482900D02*
X146500000Y-78800000D01*
X130675000Y-108900000D02*
X129375000Y-108900000D01*
X164480000Y-82970000D02*
X165100000Y-82350000D01*
D48*
X133000000Y-93500000D02*
X139100000Y-93500000D01*
D45*
X142400000Y-93500000D02*
X139100000Y-93500000D01*
D48*
X131725000Y-89100300D02*
X131761400Y-89063900D01*
X131761400Y-90963600D02*
X131725000Y-91000000D01*
X131725000Y-92225000D02*
X133000000Y-93500000D01*
X131725000Y-91000000D02*
X131725000Y-92225000D01*
X131725000Y-91000000D02*
X131725000Y-89100300D01*
D46*
X154900000Y-98980000D02*
X154270000Y-98350000D01*
D44*
X154320000Y-98400000D02*
X154270000Y-98350000D01*
D46*
X151400000Y-99170000D02*
X152170000Y-98400000D01*
D44*
X135600000Y-83000000D02*
X135600000Y-84380000D01*
X135600000Y-84380000D02*
X136420000Y-85200000D01*
X156677968Y-90801000D02*
X151873790Y-90801000D01*
X140900000Y-83100000D02*
X140800000Y-83100000D01*
X147000000Y-83100000D02*
X140900000Y-83100000D01*
X137250000Y-77005101D02*
X137250000Y-81500000D01*
X139209150Y-75900001D02*
X138355100Y-75900001D01*
X151873790Y-90801000D02*
X150663000Y-89590210D01*
X150663000Y-86763000D02*
X147000000Y-83100000D01*
X140800000Y-83100000D02*
X140700000Y-83000000D01*
X160750000Y-94873032D02*
X156677968Y-90801000D01*
X138355100Y-75900001D02*
X137250000Y-77005101D01*
X160750000Y-98425000D02*
X160750000Y-94873032D01*
X150663000Y-89590210D02*
X150663000Y-86763000D01*
X137250000Y-81500000D02*
X137250000Y-83000000D01*
X140700000Y-83000000D02*
X137250000Y-83000000D01*
X140063200Y-75250000D02*
X140411100Y-74902100D01*
X140411100Y-72550000D02*
X140411100Y-72148000D01*
X139209150Y-75250000D02*
X140063200Y-75250000D01*
X140411100Y-74902100D02*
X140411100Y-72550000D01*
X140959100Y-71600000D02*
X143800000Y-71600000D01*
X140411100Y-72148000D02*
X140959100Y-71600000D01*
X140350000Y-77850000D02*
X139209150Y-77850000D01*
X147900000Y-81900000D02*
X144400000Y-81900000D01*
X144400000Y-81900000D02*
X140350000Y-77850000D01*
X147648943Y-82648943D02*
X147900000Y-82900000D01*
X143358094Y-82648943D02*
X147648943Y-82648943D01*
X139209150Y-78499999D02*
X143358094Y-82648943D01*
X144159000Y-75900001D02*
X142011100Y-73752101D01*
X145013050Y-75900001D02*
X144159000Y-75900001D01*
X145013050Y-75900001D02*
X147949999Y-75900001D01*
X142011100Y-73752101D02*
X142011100Y-72550000D01*
X147949999Y-75900001D02*
X150400000Y-73450000D01*
X145013050Y-76550000D02*
X144159000Y-76550000D01*
X145013050Y-76550000D02*
X149800000Y-76550000D01*
X149800000Y-76550000D02*
X150400000Y-75950000D01*
X141211100Y-73602100D02*
X141211100Y-72550000D01*
X144159000Y-76550000D02*
X141211100Y-73602100D01*
X144159000Y-75250000D02*
X142811100Y-73902100D01*
X146100000Y-75250000D02*
X150400000Y-70950000D01*
X145013050Y-75250000D02*
X144159000Y-75250000D01*
X142811100Y-73902100D02*
X142811100Y-72550000D01*
X145013050Y-75250000D02*
X146100000Y-75250000D01*
X159300000Y-105050000D02*
X159300000Y-103700000D01*
X162500000Y-100500000D02*
X162500000Y-100075000D01*
X159300000Y-103700000D02*
X162500000Y-100500000D01*
X163975000Y-106350000D02*
X164500000Y-105825000D01*
X161500000Y-106350000D02*
X163975000Y-106350000D01*
X144600000Y-81300000D02*
X140499999Y-77199999D01*
X162500000Y-98425000D02*
X162500000Y-95900000D01*
X162500000Y-95900000D02*
X157000000Y-90400000D01*
X140499999Y-77199999D02*
X139209150Y-77199999D01*
X148149943Y-81300000D02*
X144600000Y-81300000D01*
X157000000Y-90400000D02*
X152039890Y-90400000D01*
X151064000Y-89424110D02*
X151064000Y-84214057D01*
X151064000Y-84214057D02*
X148149943Y-81300000D01*
X152039890Y-90400000D02*
X151064000Y-89424110D01*
X130258032Y-106900000D02*
X129300000Y-105941968D01*
X130675000Y-106900000D02*
X130258032Y-106900000D01*
X128475000Y-104575000D02*
X128200000Y-104575000D01*
X129300000Y-105400000D02*
X128475000Y-104575000D01*
X126700000Y-104575000D02*
X128200000Y-104575000D01*
X129300000Y-105941968D02*
X129300000Y-105400000D01*
G04 #@! TA.AperFunction,Conductor*
G36*
X131193039Y-81519685D02*
G01*
X131238794Y-81572489D01*
X131250000Y-81624000D01*
X131250000Y-84970500D01*
X131230315Y-85037539D01*
X131177511Y-85083294D01*
X131126000Y-85094500D01*
X130774000Y-85094500D01*
X130773991Y-85094500D01*
X130773990Y-85094501D01*
X130666549Y-85106052D01*
X130666537Y-85106054D01*
X130615027Y-85117260D01*
X130512497Y-85151385D01*
X130512495Y-85151386D01*
X130467485Y-85180314D01*
X130400446Y-85200000D01*
X130250000Y-85200000D01*
X130250000Y-85344498D01*
X130238794Y-85396010D01*
X130184664Y-85514534D01*
X130164976Y-85581582D01*
X130151325Y-85676528D01*
X130144500Y-85724000D01*
X130144500Y-87876000D01*
X130144501Y-87876009D01*
X130156052Y-87983450D01*
X130156054Y-87983462D01*
X130167260Y-88034972D01*
X130201385Y-88137502D01*
X130201386Y-88137504D01*
X130230314Y-88182515D01*
X130250000Y-88249554D01*
X130250000Y-89876000D01*
X130230315Y-89943039D01*
X130177511Y-89988794D01*
X130126000Y-90000000D01*
X128774000Y-90000000D01*
X128706961Y-89980315D01*
X128661206Y-89927511D01*
X128650000Y-89876000D01*
X128650000Y-85200000D01*
X127774000Y-85200000D01*
X127706961Y-85180315D01*
X127661206Y-85127511D01*
X127650000Y-85076000D01*
X127650000Y-81822035D01*
X127669685Y-81754996D01*
X127722489Y-81709241D01*
X127734991Y-81704330D01*
X127869334Y-81659814D01*
X128018656Y-81567712D01*
X128050049Y-81536319D01*
X128111372Y-81502834D01*
X128137730Y-81500000D01*
X131126000Y-81500000D01*
X131193039Y-81519685D01*
G37*
G04 #@! TD.AperFunction*
G04 #@! TA.AperFunction,Conductor*
G36*
X132993039Y-85619685D02*
G01*
X133038794Y-85672489D01*
X133050000Y-85724000D01*
X133050000Y-87876000D01*
X133030315Y-87943039D01*
X132977511Y-87988794D01*
X132926000Y-88000000D01*
X132450000Y-88000000D01*
X132450000Y-89876000D01*
X132430315Y-89943039D01*
X132377511Y-89988794D01*
X132326000Y-90000000D01*
X130974000Y-90000000D01*
X130906961Y-89980315D01*
X130861206Y-89927511D01*
X130850000Y-89876000D01*
X130850000Y-88000000D01*
X130774000Y-88000000D01*
X130706961Y-87980315D01*
X130661206Y-87927511D01*
X130650000Y-87876000D01*
X130650000Y-85724000D01*
X130669685Y-85656961D01*
X130722489Y-85611206D01*
X130774000Y-85600000D01*
X132926000Y-85600000D01*
X132993039Y-85619685D01*
G37*
G04 #@! TD.AperFunction*
G04 #@! TA.AperFunction,Conductor*
G36*
X147066442Y-84019685D02*
G01*
X147087084Y-84036319D01*
X149963681Y-86912916D01*
X149997166Y-86974239D01*
X150000000Y-87000597D01*
X150000000Y-91000000D01*
X150493858Y-91246929D01*
X150505760Y-91253727D01*
X150649266Y-91346596D01*
X150656230Y-91351103D01*
X150677449Y-91368441D01*
X150798014Y-91491538D01*
X150814907Y-91513113D01*
X150905495Y-91659688D01*
X150917237Y-91684445D01*
X150973421Y-91847333D01*
X150979439Y-91874065D01*
X150999241Y-92052189D01*
X151000000Y-92065890D01*
X151000000Y-95140354D01*
X150999403Y-95152508D01*
X150984796Y-95300811D01*
X150980054Y-95324653D01*
X150938571Y-95461403D01*
X150929268Y-95483861D01*
X150861907Y-95609883D01*
X150848403Y-95630093D01*
X150757748Y-95740558D01*
X150740558Y-95757748D01*
X150630093Y-95848403D01*
X150609883Y-95861907D01*
X150483861Y-95929268D01*
X150461403Y-95938571D01*
X150324653Y-95980054D01*
X150300811Y-95984796D01*
X150152508Y-95999403D01*
X150140354Y-96000000D01*
X145065891Y-96000000D01*
X145052190Y-95999241D01*
X144874065Y-95979439D01*
X144847333Y-95973421D01*
X144684445Y-95917237D01*
X144659688Y-95905495D01*
X144513113Y-95814907D01*
X144491538Y-95798014D01*
X144368441Y-95677449D01*
X144351103Y-95656230D01*
X144253731Y-95505766D01*
X144246929Y-95493858D01*
X144108791Y-95217582D01*
X144103122Y-95204384D01*
X144031671Y-95007259D01*
X144025081Y-94979344D01*
X144000832Y-94771077D01*
X144000000Y-94756736D01*
X144000000Y-91000000D01*
X143500000Y-90500000D01*
X143146447Y-90500000D01*
X140006093Y-90500000D01*
X139993939Y-90499403D01*
X139817065Y-90481982D01*
X139793224Y-90477240D01*
X139629001Y-90427424D01*
X139606543Y-90418121D01*
X139455201Y-90337227D01*
X139434989Y-90323722D01*
X139302333Y-90214854D01*
X139285145Y-90197666D01*
X139176277Y-90065010D01*
X139162772Y-90044798D01*
X139081878Y-89893456D01*
X139072575Y-89870998D01*
X139022757Y-89706769D01*
X139018018Y-89682941D01*
X139000597Y-89506061D01*
X139000000Y-89493907D01*
X139000000Y-85006092D01*
X139000597Y-84993938D01*
X139006572Y-84933273D01*
X139018018Y-84817056D01*
X139022757Y-84793232D01*
X139072577Y-84628994D01*
X139081875Y-84606549D01*
X139162775Y-84455195D01*
X139176272Y-84434995D01*
X139285149Y-84302328D01*
X139302328Y-84285149D01*
X139434995Y-84176272D01*
X139455195Y-84162775D01*
X139606549Y-84081875D01*
X139628994Y-84072577D01*
X139793232Y-84022757D01*
X139817056Y-84018018D01*
X139993939Y-84000597D01*
X140006093Y-84000000D01*
X146999403Y-84000000D01*
X147066442Y-84019685D01*
G37*
G04 #@! TD.AperFunction*
G04 #@! TA.AperFunction,Conductor*
G36*
X127433664Y-85605567D02*
G01*
X127433667Y-85605568D01*
X127433668Y-85605569D01*
X127486690Y-85629784D01*
X127564541Y-85665338D01*
X127631580Y-85685023D01*
X127631584Y-85685024D01*
X127774000Y-85705500D01*
X128020500Y-85705500D01*
X128087539Y-85725185D01*
X128133294Y-85777989D01*
X128144500Y-85829500D01*
X128144500Y-88000000D01*
X128050000Y-88000000D01*
X128050000Y-90000000D01*
X126450000Y-90000000D01*
X126450000Y-88000000D01*
X125850000Y-88000000D01*
X125850000Y-85600000D01*
X127427239Y-85600000D01*
X127433664Y-85605567D01*
G37*
G04 #@! TD.AperFunction*
G04 #@! TA.AperFunction,Conductor*
G36*
X140608331Y-68820185D02*
G01*
X140654086Y-68872989D01*
X140664030Y-68942147D01*
X140635005Y-69005703D01*
X140628973Y-69012181D01*
X139905827Y-69735325D01*
X139905821Y-69735332D01*
X139850606Y-69817968D01*
X139850607Y-69817969D01*
X139834634Y-69841874D01*
X139785598Y-69960258D01*
X139775866Y-70009178D01*
X139753518Y-70059291D01*
X139717303Y-70107670D01*
X139717302Y-70107671D01*
X139667008Y-70242517D01*
X139660601Y-70302116D01*
X139660600Y-70302135D01*
X139660600Y-70468091D01*
X139640915Y-70535130D01*
X139624281Y-70555772D01*
X137726594Y-72453458D01*
X137665271Y-72486943D01*
X137595579Y-72481959D01*
X137573817Y-72471316D01*
X137519803Y-72438000D01*
X137519798Y-72437998D01*
X137519797Y-72437997D01*
X137406635Y-72400499D01*
X137358809Y-72384651D01*
X137259446Y-72374500D01*
X136712762Y-72374500D01*
X136712744Y-72374501D01*
X136613392Y-72384650D01*
X136613389Y-72384651D01*
X136452405Y-72437996D01*
X136452394Y-72438001D01*
X136308059Y-72527029D01*
X136308053Y-72527033D01*
X136298424Y-72536663D01*
X136237100Y-72570146D01*
X136167408Y-72565159D01*
X136123065Y-72536660D01*
X136113832Y-72527427D01*
X136113828Y-72527424D01*
X135969592Y-72438457D01*
X135969581Y-72438452D01*
X135808706Y-72385144D01*
X135709422Y-72375000D01*
X135686100Y-72375000D01*
X135686100Y-74826000D01*
X135666415Y-74893039D01*
X135613611Y-74938794D01*
X135562100Y-74950000D01*
X135436100Y-74950000D01*
X135436100Y-75076000D01*
X135416415Y-75143039D01*
X135363611Y-75188794D01*
X135312100Y-75200000D01*
X134486101Y-75200000D01*
X134486101Y-75248322D01*
X134496244Y-75347607D01*
X134549552Y-75508481D01*
X134549557Y-75508492D01*
X134638524Y-75652728D01*
X134638527Y-75652732D01*
X134758367Y-75772572D01*
X134758371Y-75772575D01*
X134908763Y-75865339D01*
X134907740Y-75866996D01*
X134952790Y-75906665D01*
X134971940Y-75973859D01*
X134951723Y-76040740D01*
X134935625Y-76060553D01*
X131532999Y-79463181D01*
X131471676Y-79496666D01*
X131445318Y-79499500D01*
X130037230Y-79499500D01*
X129970191Y-79479815D01*
X129949549Y-79463181D01*
X129918657Y-79432289D01*
X129918656Y-79432288D01*
X129769334Y-79340186D01*
X129602797Y-79285001D01*
X129602795Y-79285000D01*
X129500010Y-79274500D01*
X128899998Y-79274500D01*
X128899980Y-79274501D01*
X128797203Y-79285000D01*
X128797200Y-79285001D01*
X128630668Y-79340185D01*
X128630663Y-79340187D01*
X128481342Y-79432289D01*
X128357288Y-79556343D01*
X128357283Y-79556349D01*
X128355241Y-79559661D01*
X128353247Y-79561453D01*
X128352807Y-79562011D01*
X128352711Y-79561935D01*
X128303291Y-79606383D01*
X128234328Y-79617602D01*
X128170247Y-79589755D01*
X128144168Y-79559656D01*
X128142319Y-79556659D01*
X128142316Y-79556655D01*
X128018345Y-79432684D01*
X127869124Y-79340643D01*
X127869119Y-79340641D01*
X127702697Y-79285494D01*
X127702690Y-79285493D01*
X127599986Y-79275000D01*
X127550000Y-79275000D01*
X127550000Y-80376000D01*
X127530315Y-80443039D01*
X127477511Y-80488794D01*
X127426000Y-80500000D01*
X127300000Y-80500000D01*
X127300000Y-80626000D01*
X127280315Y-80693039D01*
X127227511Y-80738794D01*
X127176000Y-80750000D01*
X126300001Y-80750000D01*
X126300001Y-81024986D01*
X126310494Y-81127697D01*
X126365641Y-81294119D01*
X126365643Y-81294124D01*
X126457684Y-81443345D01*
X126581654Y-81567315D01*
X126730875Y-81659356D01*
X126730880Y-81659358D01*
X126897302Y-81714505D01*
X126897309Y-81714506D01*
X127000018Y-81724999D01*
X127020495Y-81724999D01*
X127087535Y-81744681D01*
X127133292Y-81797483D01*
X127144500Y-81848999D01*
X127144500Y-85076000D01*
X127144501Y-85076009D01*
X127156052Y-85183450D01*
X127156054Y-85183462D01*
X127167260Y-85234972D01*
X127201383Y-85337497D01*
X127201386Y-85337503D01*
X127279171Y-85458537D01*
X127279179Y-85458548D01*
X127324923Y-85511340D01*
X127324926Y-85511343D01*
X127324930Y-85511347D01*
X127427239Y-85600000D01*
X125850000Y-85600000D01*
X125850000Y-88000000D01*
X126314535Y-88000000D01*
X126250749Y-88085206D01*
X126250745Y-88085213D01*
X126200503Y-88219920D01*
X126200501Y-88219927D01*
X126194100Y-88279455D01*
X126194100Y-88813900D01*
X126450000Y-88813900D01*
X126450000Y-89313900D01*
X126194100Y-89313900D01*
X126194100Y-89848344D01*
X126200501Y-89907872D01*
X126200503Y-89907879D01*
X126250745Y-90042586D01*
X126250749Y-90042593D01*
X126336909Y-90157687D01*
X126336912Y-90157690D01*
X126452006Y-90243850D01*
X126452013Y-90243854D01*
X126586720Y-90294096D01*
X126586727Y-90294098D01*
X126646255Y-90300499D01*
X126646272Y-90300500D01*
X126888600Y-90300500D01*
X126888600Y-90000000D01*
X127388600Y-90000000D01*
X127388600Y-90300500D01*
X127630928Y-90300500D01*
X127630944Y-90300499D01*
X127690472Y-90294098D01*
X127690479Y-90294096D01*
X127825186Y-90243854D01*
X127825193Y-90243850D01*
X127940286Y-90157690D01*
X127983618Y-90099808D01*
X128039552Y-90057937D01*
X128109244Y-90052953D01*
X128170567Y-90086438D01*
X128197843Y-90130595D01*
X128198037Y-90130503D01*
X128198897Y-90132300D01*
X128200538Y-90134957D01*
X128201383Y-90137496D01*
X128201386Y-90137503D01*
X128279171Y-90258537D01*
X128279179Y-90258548D01*
X128324923Y-90311340D01*
X128324926Y-90311343D01*
X128324930Y-90311347D01*
X128433664Y-90405567D01*
X128433667Y-90405568D01*
X128433668Y-90405569D01*
X128448360Y-90412279D01*
X128564541Y-90465338D01*
X128631580Y-90485023D01*
X128631584Y-90485024D01*
X128774000Y-90505500D01*
X128774003Y-90505500D01*
X129107729Y-90505500D01*
X129174768Y-90525185D01*
X129220523Y-90577989D01*
X129231087Y-90642103D01*
X129225000Y-90701677D01*
X129225000Y-90750000D01*
X130051000Y-90750000D01*
X130118039Y-90769685D01*
X130163794Y-90822489D01*
X130175000Y-90874000D01*
X130175000Y-91000000D01*
X130301000Y-91000000D01*
X130368039Y-91019685D01*
X130413794Y-91072489D01*
X130425000Y-91124000D01*
X130425000Y-91974999D01*
X130448308Y-91974999D01*
X130448322Y-91974998D01*
X130547606Y-91964855D01*
X130561493Y-91960254D01*
X130631321Y-91957850D01*
X130691364Y-91993581D01*
X130722558Y-92056100D01*
X130724500Y-92077959D01*
X130724500Y-92323544D01*
X130762947Y-92516833D01*
X130762949Y-92516837D01*
X130785038Y-92570164D01*
X130838366Y-92698911D01*
X130838371Y-92698920D01*
X130947859Y-92862780D01*
X130947860Y-92862781D01*
X130947861Y-92862782D01*
X131087218Y-93002139D01*
X131087219Y-93002139D01*
X131094286Y-93009206D01*
X131094285Y-93009206D01*
X131094288Y-93009208D01*
X132222860Y-94137781D01*
X132222861Y-94137782D01*
X132310329Y-94225250D01*
X132362219Y-94277140D01*
X132526079Y-94386628D01*
X132526092Y-94386635D01*
X132654833Y-94439961D01*
X132708159Y-94462049D01*
X132708164Y-94462051D01*
X132785882Y-94477510D01*
X132814776Y-94483257D01*
X132901456Y-94500500D01*
X132901459Y-94500500D01*
X132901460Y-94500500D01*
X133098540Y-94500500D01*
X137612820Y-94500500D01*
X137679859Y-94520185D01*
X137712085Y-94550187D01*
X137792454Y-94657546D01*
X137838643Y-94692123D01*
X137907664Y-94743793D01*
X137907671Y-94743797D01*
X137952618Y-94760561D01*
X138042517Y-94794091D01*
X138102127Y-94800500D01*
X138317467Y-94800499D01*
X138373763Y-94814014D01*
X138524003Y-94890566D01*
X138524005Y-94890566D01*
X138524008Y-94890568D01*
X138584300Y-94910158D01*
X138748631Y-94963553D01*
X138981903Y-95000500D01*
X138981908Y-95000500D01*
X142518097Y-95000500D01*
X142751368Y-94963553D01*
X142759521Y-94960904D01*
X142975992Y-94890568D01*
X143126237Y-94814013D01*
X143139240Y-94810892D01*
X143147597Y-94805522D01*
X143182532Y-94800499D01*
X143384943Y-94800499D01*
X143451982Y-94820184D01*
X143497737Y-94872988D01*
X143508111Y-94910158D01*
X143522972Y-95037802D01*
X143533102Y-95095481D01*
X143539693Y-95123399D01*
X143542144Y-95131619D01*
X143556427Y-95179519D01*
X143556430Y-95179527D01*
X143556434Y-95179540D01*
X143627874Y-95376637D01*
X143638649Y-95403873D01*
X143644336Y-95417111D01*
X143656646Y-95443625D01*
X143794804Y-95719940D01*
X143807986Y-95744577D01*
X143807991Y-95744585D01*
X143814793Y-95756493D01*
X143826883Y-95776359D01*
X143829359Y-95780428D01*
X143913817Y-95910935D01*
X143926717Y-95930869D01*
X143926724Y-95930878D01*
X143926729Y-95930886D01*
X143959653Y-95976068D01*
X143959654Y-95976070D01*
X143959660Y-95976077D01*
X143976998Y-95997296D01*
X144001404Y-96024002D01*
X144014739Y-96038594D01*
X144054715Y-96077747D01*
X144137829Y-96159151D01*
X144179900Y-96196024D01*
X144201475Y-96212917D01*
X144247357Y-96244911D01*
X144393932Y-96335499D01*
X144443064Y-96362227D01*
X144467821Y-96373969D01*
X144519615Y-96395109D01*
X144682503Y-96451293D01*
X144736312Y-96466579D01*
X144736325Y-96466582D01*
X144736340Y-96466586D01*
X144751905Y-96470089D01*
X144763044Y-96472597D01*
X144818213Y-96481844D01*
X144996338Y-96501646D01*
X145024229Y-96503967D01*
X145037930Y-96504726D01*
X145065891Y-96505500D01*
X145065908Y-96505500D01*
X145146891Y-96505500D01*
X145213930Y-96525185D01*
X145259685Y-96577989D01*
X145269629Y-96647147D01*
X145240604Y-96710703D01*
X145181826Y-96748477D01*
X145166289Y-96751973D01*
X144948631Y-96786446D01*
X144724003Y-96859433D01*
X144513566Y-96966657D01*
X144404550Y-97045862D01*
X144322490Y-97105483D01*
X144322488Y-97105485D01*
X144322487Y-97105485D01*
X144162681Y-97265292D01*
X144154735Y-97269630D01*
X144149310Y-97276878D01*
X144124550Y-97286112D01*
X144101358Y-97298777D01*
X144092328Y-97298131D01*
X144083846Y-97301295D01*
X144058025Y-97295678D01*
X144031666Y-97293793D01*
X144022612Y-97287974D01*
X144015573Y-97286443D01*
X143987319Y-97265292D01*
X143886818Y-97164791D01*
X143853333Y-97103468D01*
X143850499Y-97077110D01*
X143850499Y-96952129D01*
X143850498Y-96952123D01*
X143850497Y-96952116D01*
X143844091Y-96892517D01*
X143831751Y-96859433D01*
X143793797Y-96757671D01*
X143793793Y-96757664D01*
X143707547Y-96642455D01*
X143707544Y-96642452D01*
X143592335Y-96556206D01*
X143592328Y-96556202D01*
X143457482Y-96505908D01*
X143457483Y-96505908D01*
X143397883Y-96499501D01*
X143397881Y-96499500D01*
X143397873Y-96499500D01*
X143397865Y-96499500D01*
X143182531Y-96499500D01*
X143126236Y-96485985D01*
X142975996Y-96409433D01*
X142751368Y-96336446D01*
X142518097Y-96299500D01*
X142518092Y-96299500D01*
X142281908Y-96299500D01*
X142281903Y-96299500D01*
X142048630Y-96336447D01*
X142048627Y-96336447D01*
X141824009Y-96409431D01*
X141824008Y-96409431D01*
X141673760Y-96485985D01*
X141617467Y-96499500D01*
X141402130Y-96499500D01*
X141402123Y-96499501D01*
X141342516Y-96505908D01*
X141207671Y-96556202D01*
X141207664Y-96556206D01*
X141092455Y-96642452D01*
X141092452Y-96642455D01*
X141006206Y-96757664D01*
X141006202Y-96757671D01*
X140955908Y-96892517D01*
X140949501Y-96952116D01*
X140949501Y-96952123D01*
X140949500Y-96952135D01*
X140949500Y-97388819D01*
X140946948Y-97397507D01*
X140948237Y-97406469D01*
X140943431Y-97427138D01*
X140936446Y-97448633D01*
X140899500Y-97681902D01*
X140899500Y-97918097D01*
X140936446Y-98151366D01*
X140943432Y-98172866D01*
X140949500Y-98211182D01*
X140949500Y-98647870D01*
X140949501Y-98647876D01*
X140955908Y-98707483D01*
X141006202Y-98842328D01*
X141006206Y-98842335D01*
X141092452Y-98957544D01*
X141092455Y-98957547D01*
X141207664Y-99043793D01*
X141207671Y-99043797D01*
X141251610Y-99060185D01*
X141342517Y-99094091D01*
X141402127Y-99100500D01*
X141527109Y-99100499D01*
X141594149Y-99120183D01*
X141614791Y-99136818D01*
X142863181Y-100385208D01*
X142896666Y-100446531D01*
X142899500Y-100472889D01*
X142899500Y-107718097D01*
X142936446Y-107951368D01*
X143009433Y-108175996D01*
X143109213Y-108371824D01*
X143116657Y-108386433D01*
X143255483Y-108577510D01*
X143422490Y-108744517D01*
X143613567Y-108883343D01*
X143687134Y-108920827D01*
X143824003Y-108990566D01*
X143824005Y-108990566D01*
X143824008Y-108990568D01*
X143944412Y-109029689D01*
X144048631Y-109063553D01*
X144281903Y-109100500D01*
X144281908Y-109100500D01*
X144518097Y-109100500D01*
X144751368Y-109063553D01*
X144751374Y-109063551D01*
X144975992Y-108990568D01*
X145186433Y-108883343D01*
X145377510Y-108744517D01*
X145544517Y-108577510D01*
X145683343Y-108386433D01*
X145790568Y-108175992D01*
X145863553Y-107951368D01*
X145865717Y-107937708D01*
X145900500Y-107718097D01*
X145900500Y-100472889D01*
X145920185Y-100405850D01*
X145936819Y-100385208D01*
X146187819Y-100134208D01*
X146249142Y-100100723D01*
X146318834Y-100105707D01*
X146374767Y-100147579D01*
X146399184Y-100213043D01*
X146399500Y-100221889D01*
X146399500Y-107718097D01*
X146436446Y-107951368D01*
X146509433Y-108175996D01*
X146609213Y-108371824D01*
X146616657Y-108386433D01*
X146755483Y-108577510D01*
X146922490Y-108744517D01*
X147113567Y-108883343D01*
X147187134Y-108920827D01*
X147324003Y-108990566D01*
X147324005Y-108990566D01*
X147324008Y-108990568D01*
X147444412Y-109029689D01*
X147548631Y-109063553D01*
X147781903Y-109100500D01*
X147781908Y-109100500D01*
X148018097Y-109100500D01*
X148251368Y-109063553D01*
X148251374Y-109063551D01*
X148475992Y-108990568D01*
X148686433Y-108883343D01*
X148877510Y-108744517D01*
X149044517Y-108577510D01*
X149183343Y-108386433D01*
X149290568Y-108175992D01*
X149363553Y-107951368D01*
X149365717Y-107937708D01*
X149400500Y-107718097D01*
X149400500Y-99610388D01*
X149420185Y-99543349D01*
X149436815Y-99522711D01*
X149722708Y-99236817D01*
X149784031Y-99203333D01*
X149810389Y-99200499D01*
X150200002Y-99200499D01*
X150200008Y-99200499D01*
X150302797Y-99189999D01*
X150469334Y-99134814D01*
X150485404Y-99124901D01*
X150552795Y-99106462D01*
X150619459Y-99127384D01*
X150664229Y-99181026D01*
X150674500Y-99230441D01*
X150674500Y-106425516D01*
X150654815Y-106492555D01*
X150623387Y-106525833D01*
X150536495Y-106588964D01*
X150388966Y-106736493D01*
X150266330Y-106905285D01*
X150171612Y-107091179D01*
X150107137Y-107289610D01*
X150074500Y-107495675D01*
X150074500Y-107704324D01*
X150107137Y-107910389D01*
X150171612Y-108108820D01*
X150259397Y-108281108D01*
X150266330Y-108294714D01*
X150388965Y-108463505D01*
X150536495Y-108611035D01*
X150705286Y-108733670D01*
X150793116Y-108778421D01*
X150891179Y-108828387D01*
X150891181Y-108828387D01*
X150891184Y-108828389D01*
X150997545Y-108862948D01*
X151089610Y-108892862D01*
X151295676Y-108925500D01*
X151295681Y-108925500D01*
X151504324Y-108925500D01*
X151710389Y-108892862D01*
X151739688Y-108883342D01*
X151908816Y-108828389D01*
X152094714Y-108733670D01*
X152263505Y-108611035D01*
X152411035Y-108463505D01*
X152533670Y-108294714D01*
X152628389Y-108108816D01*
X152692862Y-107910389D01*
X152692881Y-107910272D01*
X152725500Y-107704324D01*
X152725500Y-107495675D01*
X152692862Y-107289610D01*
X152647662Y-107150500D01*
X152628389Y-107091184D01*
X152628387Y-107091181D01*
X152628387Y-107091179D01*
X152535856Y-106909577D01*
X152533670Y-106905286D01*
X152411035Y-106736495D01*
X152263505Y-106588965D01*
X152263303Y-106588818D01*
X152176613Y-106525833D01*
X152133948Y-106470503D01*
X152125500Y-106425516D01*
X152125500Y-99521874D01*
X152134144Y-99492433D01*
X152140668Y-99462447D01*
X152144422Y-99457431D01*
X152145185Y-99454835D01*
X152161819Y-99434193D01*
X152259193Y-99336819D01*
X152320516Y-99303334D01*
X152346874Y-99300500D01*
X152501613Y-99300500D01*
X152501616Y-99300500D01*
X152572196Y-99294086D01*
X152734606Y-99243478D01*
X152880185Y-99155472D01*
X153000472Y-99035185D01*
X153056763Y-98942067D01*
X153108290Y-98894882D01*
X153177149Y-98883043D01*
X153241478Y-98910312D01*
X153268417Y-98941122D01*
X153322029Y-99028040D01*
X153322032Y-99028044D01*
X153441955Y-99147967D01*
X153441959Y-99147970D01*
X153586294Y-99236998D01*
X153586297Y-99236999D01*
X153586303Y-99237003D01*
X153747292Y-99290349D01*
X153846655Y-99300500D01*
X154050500Y-99300499D01*
X154117539Y-99320183D01*
X154163294Y-99372987D01*
X154174500Y-99424499D01*
X154174500Y-106425516D01*
X154154815Y-106492555D01*
X154123387Y-106525833D01*
X154036495Y-106588964D01*
X153888966Y-106736493D01*
X153766330Y-106905285D01*
X153671612Y-107091179D01*
X153607137Y-107289610D01*
X153574500Y-107495675D01*
X153574500Y-107704324D01*
X153607137Y-107910389D01*
X153671612Y-108108820D01*
X153759397Y-108281108D01*
X153766330Y-108294714D01*
X153888965Y-108463505D01*
X154036495Y-108611035D01*
X154205286Y-108733670D01*
X154293116Y-108778421D01*
X154391179Y-108828387D01*
X154391181Y-108828387D01*
X154391184Y-108828389D01*
X154497545Y-108862948D01*
X154589610Y-108892862D01*
X154795676Y-108925500D01*
X154795681Y-108925500D01*
X155004317Y-108925500D01*
X155004319Y-108925500D01*
X155090353Y-108911873D01*
X155159644Y-108920827D01*
X155197430Y-108946665D01*
X155966139Y-109715374D01*
X155966149Y-109715385D01*
X155970479Y-109719715D01*
X155970480Y-109719716D01*
X156082284Y-109831520D01*
X156169095Y-109881639D01*
X156169097Y-109881641D01*
X156219213Y-109910576D01*
X156219215Y-109910577D01*
X156371942Y-109951500D01*
X156371943Y-109951500D01*
X158376000Y-109951500D01*
X158384685Y-109954050D01*
X158393647Y-109952762D01*
X158417687Y-109963740D01*
X158443039Y-109971185D01*
X158448966Y-109978025D01*
X158457203Y-109981787D01*
X158471492Y-110004021D01*
X158488794Y-110023989D01*
X158491081Y-110034503D01*
X158494977Y-110040565D01*
X158500000Y-110075500D01*
X158500000Y-110313500D01*
X158480315Y-110380539D01*
X158427511Y-110426294D01*
X158376000Y-110437500D01*
X157525001Y-110437500D01*
X157525001Y-110454152D01*
X157535056Y-110552583D01*
X157562863Y-110636496D01*
X157565265Y-110706324D01*
X157529533Y-110766366D01*
X157467013Y-110797559D01*
X157445157Y-110799500D01*
X134716930Y-110799500D01*
X134649891Y-110779815D01*
X134604136Y-110727011D01*
X134593572Y-110662897D01*
X134599999Y-110599986D01*
X134600000Y-110599973D01*
X134600000Y-110450000D01*
X131800001Y-110450000D01*
X131800001Y-110599989D01*
X131806428Y-110662899D01*
X131793658Y-110731592D01*
X131745777Y-110782476D01*
X131683070Y-110799500D01*
X129508676Y-110799500D01*
X129441637Y-110779815D01*
X129420995Y-110763181D01*
X124786819Y-106129005D01*
X124753334Y-106067682D01*
X124750500Y-106041324D01*
X124750500Y-104318386D01*
X125724500Y-104318386D01*
X125724500Y-104831613D01*
X125730913Y-104902192D01*
X125730913Y-104902194D01*
X125730914Y-104902196D01*
X125781522Y-105064606D01*
X125857211Y-105189811D01*
X125869530Y-105210188D01*
X125971661Y-105312319D01*
X126005146Y-105373642D01*
X126000162Y-105443334D01*
X125971661Y-105487681D01*
X125869531Y-105589810D01*
X125869530Y-105589811D01*
X125781522Y-105735393D01*
X125730913Y-105897807D01*
X125725782Y-105954275D01*
X125724500Y-105968384D01*
X125724500Y-106481616D01*
X125726409Y-106502627D01*
X125730913Y-106552192D01*
X125730913Y-106552194D01*
X125730914Y-106552196D01*
X125752818Y-106622490D01*
X125781522Y-106714606D01*
X125869530Y-106860188D01*
X125989811Y-106980469D01*
X125989813Y-106980470D01*
X125989815Y-106980472D01*
X126135394Y-107068478D01*
X126297804Y-107119086D01*
X126368384Y-107125500D01*
X126699903Y-107125500D01*
X126766942Y-107145185D01*
X126787584Y-107161819D01*
X128890139Y-109264374D01*
X128890149Y-109264385D01*
X128894479Y-109268715D01*
X128894480Y-109268716D01*
X129006284Y-109380520D01*
X129077765Y-109421789D01*
X129143215Y-109459577D01*
X129295942Y-109500500D01*
X129295943Y-109500500D01*
X129529192Y-109500500D01*
X129596231Y-109520185D01*
X129616874Y-109536820D01*
X129648129Y-109568076D01*
X129648133Y-109568079D01*
X129648135Y-109568081D01*
X129789602Y-109651744D01*
X129827326Y-109662704D01*
X129947426Y-109697597D01*
X129947429Y-109697597D01*
X129947431Y-109697598D01*
X129984306Y-109700500D01*
X129984314Y-109700500D01*
X131365686Y-109700500D01*
X131365694Y-109700500D01*
X131402569Y-109697598D01*
X131402571Y-109697597D01*
X131402573Y-109697597D01*
X131477301Y-109675886D01*
X131560398Y-109651744D01*
X131620086Y-109616444D01*
X131687805Y-109599262D01*
X131754068Y-109621421D01*
X131797832Y-109675886D01*
X131806562Y-109735778D01*
X131800000Y-109800008D01*
X131800000Y-109950000D01*
X134599999Y-109950000D01*
X134599999Y-109800028D01*
X134599998Y-109800013D01*
X134589505Y-109697302D01*
X134534358Y-109530880D01*
X134534356Y-109530875D01*
X134451377Y-109396346D01*
X134432937Y-109328954D01*
X134453813Y-109262361D01*
X134509394Y-109179179D01*
X134569737Y-109033497D01*
X134600500Y-108878842D01*
X134600500Y-108721158D01*
X134595769Y-108697372D01*
X134591180Y-108674302D01*
X134591180Y-108674299D01*
X134569738Y-108566508D01*
X134569737Y-108566507D01*
X134569737Y-108566503D01*
X134527075Y-108463506D01*
X134509397Y-108420827D01*
X134509395Y-108420824D01*
X134509394Y-108420821D01*
X134508103Y-108418889D01*
X134507737Y-108417723D01*
X134506525Y-108415454D01*
X134506955Y-108415223D01*
X134487226Y-108352214D01*
X134505710Y-108284834D01*
X134508077Y-108281149D01*
X134509394Y-108279179D01*
X134569737Y-108133497D01*
X134600500Y-107978842D01*
X134600500Y-107821158D01*
X134600500Y-107821155D01*
X134600499Y-107821153D01*
X134583850Y-107737455D01*
X134569737Y-107666503D01*
X134560555Y-107644336D01*
X134516635Y-107538300D01*
X134516634Y-107538299D01*
X134509398Y-107520829D01*
X134509390Y-107520814D01*
X134492623Y-107495720D01*
X136075000Y-107495720D01*
X136075000Y-107704279D01*
X136107626Y-107910272D01*
X136172075Y-108108627D01*
X136266759Y-108294451D01*
X136302627Y-108343818D01*
X136302627Y-108343819D01*
X136876212Y-107770234D01*
X136887482Y-107812292D01*
X136959890Y-107937708D01*
X137062292Y-108040110D01*
X137187708Y-108112518D01*
X137229765Y-108123787D01*
X136656179Y-108697371D01*
X136656180Y-108697372D01*
X136705543Y-108733236D01*
X136705556Y-108733244D01*
X136891372Y-108827924D01*
X137089727Y-108892373D01*
X137295721Y-108925000D01*
X137504279Y-108925000D01*
X137710272Y-108892373D01*
X137908627Y-108827924D01*
X138094451Y-108733240D01*
X138143818Y-108697372D01*
X138143818Y-108697371D01*
X137570234Y-108123787D01*
X137612292Y-108112518D01*
X137737708Y-108040110D01*
X137840110Y-107937708D01*
X137912518Y-107812292D01*
X137923787Y-107770233D01*
X138497371Y-108343818D01*
X138497372Y-108343818D01*
X138533240Y-108294451D01*
X138627924Y-108108627D01*
X138692372Y-107910278D01*
X138708429Y-107808895D01*
X138738359Y-107745760D01*
X138797670Y-107708828D01*
X138867532Y-107709826D01*
X138918584Y-107740611D01*
X139922490Y-108744517D01*
X140113566Y-108883343D01*
X140187133Y-108920827D01*
X140324006Y-108990568D01*
X140324009Y-108990569D01*
X140436319Y-109027060D01*
X140548631Y-109063552D01*
X140656673Y-109080663D01*
X140781903Y-109100499D01*
X140781908Y-109100499D01*
X141018096Y-109100499D01*
X141131183Y-109082587D01*
X141251368Y-109063552D01*
X141475992Y-108990568D01*
X141686433Y-108883343D01*
X141877510Y-108744517D01*
X142044517Y-108577510D01*
X142183343Y-108386433D01*
X142290568Y-108175992D01*
X142363552Y-107951368D01*
X142384175Y-107821158D01*
X142400499Y-107718096D01*
X142400499Y-107481902D01*
X142379004Y-107346197D01*
X142363552Y-107248631D01*
X142311192Y-107087482D01*
X142290569Y-107024009D01*
X142290568Y-107024006D01*
X142232263Y-106909577D01*
X142183343Y-106813566D01*
X142044517Y-106622490D01*
X140636819Y-105214792D01*
X140603334Y-105153469D01*
X140600500Y-105127111D01*
X140600500Y-97681902D01*
X140563553Y-97448631D01*
X140556568Y-97427134D01*
X140550499Y-97388815D01*
X140550499Y-96952129D01*
X140550498Y-96952123D01*
X140550497Y-96952116D01*
X140544091Y-96892517D01*
X140531751Y-96859433D01*
X140493797Y-96757671D01*
X140493793Y-96757664D01*
X140407547Y-96642455D01*
X140407544Y-96642452D01*
X140292335Y-96556206D01*
X140292328Y-96556202D01*
X140157482Y-96505908D01*
X140157483Y-96505908D01*
X140097883Y-96499501D01*
X140097881Y-96499500D01*
X140097873Y-96499500D01*
X140097865Y-96499500D01*
X139882530Y-96499500D01*
X139826235Y-96485985D01*
X139675996Y-96409433D01*
X139451368Y-96336446D01*
X139218097Y-96299500D01*
X139218092Y-96299500D01*
X138981908Y-96299500D01*
X138981903Y-96299500D01*
X138748630Y-96336447D01*
X138748627Y-96336447D01*
X138524011Y-96409430D01*
X138524010Y-96409430D01*
X138373761Y-96485985D01*
X138317468Y-96499500D01*
X138102130Y-96499500D01*
X138102123Y-96499501D01*
X138042516Y-96505908D01*
X137907671Y-96556202D01*
X137907664Y-96556206D01*
X137792455Y-96642452D01*
X137792452Y-96642455D01*
X137706206Y-96757664D01*
X137706202Y-96757671D01*
X137655908Y-96892517D01*
X137649501Y-96952116D01*
X137649501Y-96952123D01*
X137649500Y-96952135D01*
X137649500Y-97388819D01*
X137643431Y-97427138D01*
X137636446Y-97448633D01*
X137599500Y-97681902D01*
X137599500Y-105918097D01*
X137633337Y-106131736D01*
X137624382Y-106201030D01*
X137579386Y-106254482D01*
X137512635Y-106275121D01*
X137508840Y-106275000D01*
X137295721Y-106275000D01*
X137089727Y-106307626D01*
X136891372Y-106372075D01*
X136705552Y-106466757D01*
X136656180Y-106502627D01*
X137229766Y-107076212D01*
X137187708Y-107087482D01*
X137062292Y-107159890D01*
X136959890Y-107262292D01*
X136887482Y-107387708D01*
X136876212Y-107429765D01*
X136302627Y-106856180D01*
X136266757Y-106905552D01*
X136172075Y-107091372D01*
X136107626Y-107289727D01*
X136075000Y-107495720D01*
X134492623Y-107495720D01*
X134421789Y-107389711D01*
X134421786Y-107389707D01*
X134310292Y-107278213D01*
X134310288Y-107278210D01*
X134179185Y-107190609D01*
X134179172Y-107190602D01*
X134033501Y-107130264D01*
X134033489Y-107130261D01*
X133878845Y-107099500D01*
X133878842Y-107099500D01*
X133721158Y-107099500D01*
X133721155Y-107099500D01*
X133566510Y-107130261D01*
X133566498Y-107130264D01*
X133420827Y-107190602D01*
X133420814Y-107190609D01*
X133289125Y-107278602D01*
X133222447Y-107299480D01*
X133220234Y-107299500D01*
X132069461Y-107299500D01*
X132002422Y-107279815D01*
X131956667Y-107227011D01*
X131946723Y-107157853D01*
X131947480Y-107153215D01*
X131947598Y-107152568D01*
X131949353Y-107130263D01*
X131950500Y-107115694D01*
X131950500Y-106684306D01*
X131947598Y-106647431D01*
X131901744Y-106489602D01*
X131880147Y-106453084D01*
X131876286Y-106442689D01*
X131874584Y-106418453D01*
X131868611Y-106394905D01*
X131872098Y-106383027D01*
X131871394Y-106372990D01*
X131879265Y-106358619D01*
X131885794Y-106336386D01*
X131901281Y-106310199D01*
X131947100Y-106152486D01*
X131947295Y-106150001D01*
X131947295Y-106150000D01*
X131584050Y-106150000D01*
X131549455Y-106145076D01*
X131402573Y-106102402D01*
X131402567Y-106102401D01*
X131365701Y-106099500D01*
X131365694Y-106099500D01*
X130799000Y-106099500D01*
X130731961Y-106079815D01*
X130686206Y-106027011D01*
X130675000Y-105975500D01*
X130675000Y-105900000D01*
X130549000Y-105900000D01*
X130481961Y-105880315D01*
X130436206Y-105827511D01*
X130425000Y-105776000D01*
X130425000Y-105100000D01*
X130925000Y-105100000D01*
X130925000Y-105650000D01*
X131947295Y-105650000D01*
X131963441Y-105632533D01*
X131965060Y-105624828D01*
X132014112Y-105575072D01*
X132082278Y-105559734D01*
X132139410Y-105577940D01*
X132230869Y-105634353D01*
X132230880Y-105634358D01*
X132397302Y-105689505D01*
X132397309Y-105689506D01*
X132500019Y-105699999D01*
X132949999Y-105699999D01*
X133450000Y-105699999D01*
X133899972Y-105699999D01*
X133899986Y-105699998D01*
X134002697Y-105689505D01*
X134169119Y-105634358D01*
X134169124Y-105634356D01*
X134318345Y-105542315D01*
X134442315Y-105418345D01*
X134534356Y-105269124D01*
X134534358Y-105269119D01*
X134589505Y-105102697D01*
X134589506Y-105102690D01*
X134599999Y-104999986D01*
X134600000Y-104999973D01*
X134600000Y-104850000D01*
X133450000Y-104850000D01*
X133450000Y-105699999D01*
X132949999Y-105699999D01*
X132950000Y-105699998D01*
X132950000Y-104850000D01*
X131800001Y-104850000D01*
X131800001Y-104999971D01*
X131800002Y-104999991D01*
X131806626Y-105064840D01*
X131793856Y-105133532D01*
X131745975Y-105184416D01*
X131678185Y-105201336D01*
X131620147Y-105184172D01*
X131560196Y-105148717D01*
X131560193Y-105148716D01*
X131402495Y-105102900D01*
X131402489Y-105102899D01*
X131365649Y-105100000D01*
X130925000Y-105100000D01*
X130425000Y-105100000D01*
X129984350Y-105100000D01*
X129947515Y-105102899D01*
X129947502Y-105102901D01*
X129933276Y-105107034D01*
X129863406Y-105106831D01*
X129807140Y-105071594D01*
X129798044Y-105061638D01*
X129780520Y-105031284D01*
X129668716Y-104919480D01*
X129668713Y-104919478D01*
X129211819Y-104462584D01*
X129178334Y-104401261D01*
X129175500Y-104374903D01*
X129175500Y-104318386D01*
X129175500Y-104318384D01*
X129169086Y-104247804D01*
X129154194Y-104200013D01*
X131800000Y-104200013D01*
X131800000Y-104350000D01*
X132950000Y-104350000D01*
X133450000Y-104350000D01*
X134599999Y-104350000D01*
X134599999Y-104200028D01*
X134599998Y-104200013D01*
X134589505Y-104097302D01*
X134534358Y-103930880D01*
X134534356Y-103930875D01*
X134442315Y-103781654D01*
X134318345Y-103657684D01*
X134169124Y-103565643D01*
X134169119Y-103565641D01*
X134002697Y-103510494D01*
X134002690Y-103510493D01*
X133899986Y-103500000D01*
X133450000Y-103500000D01*
X133450000Y-104350000D01*
X132950000Y-104350000D01*
X132950000Y-103500000D01*
X132500028Y-103500000D01*
X132500012Y-103500001D01*
X132397302Y-103510494D01*
X132230880Y-103565641D01*
X132230875Y-103565643D01*
X132081654Y-103657684D01*
X131957684Y-103781654D01*
X131865643Y-103930875D01*
X131865641Y-103930880D01*
X131810494Y-104097302D01*
X131810493Y-104097309D01*
X131800000Y-104200013D01*
X129154194Y-104200013D01*
X129118478Y-104085394D01*
X129030472Y-103939815D01*
X129030470Y-103939813D01*
X129030469Y-103939811D01*
X128910188Y-103819530D01*
X128764606Y-103731522D01*
X128602196Y-103680914D01*
X128602194Y-103680913D01*
X128602192Y-103680913D01*
X128552778Y-103676423D01*
X128531616Y-103674500D01*
X127868384Y-103674500D01*
X127849145Y-103676248D01*
X127797807Y-103680913D01*
X127635393Y-103731522D01*
X127514150Y-103804817D01*
X127446595Y-103822653D01*
X127385850Y-103804817D01*
X127264606Y-103731522D01*
X127102196Y-103680914D01*
X127102194Y-103680913D01*
X127102192Y-103680913D01*
X127052778Y-103676423D01*
X127031616Y-103674500D01*
X126368384Y-103674500D01*
X126349145Y-103676248D01*
X126297807Y-103680913D01*
X126135393Y-103731522D01*
X125989811Y-103819530D01*
X125869530Y-103939811D01*
X125781522Y-104085393D01*
X125730913Y-104247807D01*
X125724500Y-104318386D01*
X124750500Y-104318386D01*
X124750500Y-99602533D01*
X126250000Y-99602533D01*
X126250000Y-99897466D01*
X126250001Y-99897483D01*
X126288496Y-100189884D01*
X126288499Y-100189897D01*
X126364835Y-100474790D01*
X126364838Y-100474800D01*
X126477704Y-100747281D01*
X126477709Y-100747292D01*
X126625174Y-101002707D01*
X126625180Y-101002715D01*
X126741777Y-101154667D01*
X127563708Y-100332736D01*
X127660967Y-100466602D01*
X127783398Y-100589033D01*
X127917262Y-100686290D01*
X127095331Y-101508221D01*
X127247284Y-101624819D01*
X127247292Y-101624825D01*
X127502707Y-101772290D01*
X127502718Y-101772295D01*
X127775199Y-101885161D01*
X127775209Y-101885164D01*
X128060102Y-101961500D01*
X128060115Y-101961503D01*
X128352516Y-101999998D01*
X128352534Y-102000000D01*
X128647466Y-102000000D01*
X128647483Y-101999998D01*
X128939884Y-101961503D01*
X128939897Y-101961500D01*
X129224790Y-101885164D01*
X129224800Y-101885161D01*
X129497281Y-101772295D01*
X129497292Y-101772290D01*
X129752707Y-101624825D01*
X129752725Y-101624813D01*
X129904667Y-101508222D01*
X129904667Y-101508220D01*
X129082737Y-100686290D01*
X129216602Y-100589033D01*
X129339033Y-100466602D01*
X129436290Y-100332737D01*
X130258220Y-101154667D01*
X130258222Y-101154667D01*
X130374813Y-101002725D01*
X130374825Y-101002707D01*
X130522290Y-100747292D01*
X130522295Y-100747281D01*
X130635161Y-100474800D01*
X130635164Y-100474790D01*
X130711500Y-100189897D01*
X130711503Y-100189884D01*
X130749998Y-99897483D01*
X130750000Y-99897466D01*
X130750000Y-99602533D01*
X130749998Y-99602516D01*
X130711503Y-99310115D01*
X130711500Y-99310102D01*
X130635164Y-99025209D01*
X130635161Y-99025199D01*
X130522295Y-98752718D01*
X130522290Y-98752707D01*
X130374825Y-98497292D01*
X130374819Y-98497284D01*
X130258221Y-98345331D01*
X129436290Y-99167262D01*
X129339033Y-99033398D01*
X129216602Y-98910967D01*
X129082736Y-98813709D01*
X129904667Y-97991777D01*
X129752715Y-97875180D01*
X129752707Y-97875174D01*
X129497292Y-97727709D01*
X129497281Y-97727704D01*
X129224800Y-97614838D01*
X129224790Y-97614835D01*
X128939897Y-97538499D01*
X128939884Y-97538496D01*
X128647483Y-97500001D01*
X128647466Y-97500000D01*
X128352534Y-97500000D01*
X128352516Y-97500001D01*
X128060115Y-97538496D01*
X128060102Y-97538499D01*
X127775209Y-97614835D01*
X127775199Y-97614838D01*
X127502718Y-97727704D01*
X127502707Y-97727709D01*
X127247292Y-97875174D01*
X127247276Y-97875185D01*
X127095331Y-97991775D01*
X127095331Y-97991777D01*
X127917263Y-98813709D01*
X127783398Y-98910967D01*
X127660967Y-99033398D01*
X127563709Y-99167263D01*
X126741777Y-98345331D01*
X126741775Y-98345331D01*
X126625185Y-98497276D01*
X126625174Y-98497292D01*
X126477709Y-98752707D01*
X126477704Y-98752718D01*
X126364838Y-99025199D01*
X126364835Y-99025209D01*
X126288499Y-99310102D01*
X126288496Y-99310115D01*
X126250001Y-99602516D01*
X126250000Y-99602533D01*
X124750500Y-99602533D01*
X124750500Y-91298322D01*
X129225001Y-91298322D01*
X129235144Y-91397607D01*
X129288452Y-91558481D01*
X129288457Y-91558492D01*
X129377424Y-91702728D01*
X129377427Y-91702732D01*
X129497267Y-91822572D01*
X129497271Y-91822575D01*
X129641507Y-91911542D01*
X129641518Y-91911547D01*
X129802393Y-91964855D01*
X129901683Y-91974999D01*
X129925000Y-91974998D01*
X129925000Y-91250000D01*
X129225001Y-91250000D01*
X129225001Y-91298322D01*
X124750500Y-91298322D01*
X124750500Y-79975013D01*
X126300000Y-79975013D01*
X126300000Y-80250000D01*
X127050000Y-80250000D01*
X127050000Y-79275000D01*
X127049999Y-79274999D01*
X127000029Y-79275000D01*
X127000011Y-79275001D01*
X126897302Y-79285494D01*
X126730880Y-79340641D01*
X126730875Y-79340643D01*
X126581654Y-79432684D01*
X126457684Y-79556654D01*
X126365643Y-79705875D01*
X126365641Y-79705880D01*
X126310494Y-79872302D01*
X126310493Y-79872309D01*
X126300000Y-79975013D01*
X124750500Y-79975013D01*
X124750500Y-76602533D01*
X126250000Y-76602533D01*
X126250000Y-76897466D01*
X126250001Y-76897483D01*
X126288496Y-77189884D01*
X126288499Y-77189897D01*
X126364835Y-77474790D01*
X126364838Y-77474800D01*
X126477704Y-77747281D01*
X126477709Y-77747292D01*
X126625174Y-78002707D01*
X126625180Y-78002715D01*
X126741777Y-78154667D01*
X127563708Y-77332736D01*
X127660967Y-77466602D01*
X127783398Y-77589033D01*
X127917262Y-77686290D01*
X127095331Y-78508221D01*
X127247284Y-78624819D01*
X127247292Y-78624825D01*
X127502707Y-78772290D01*
X127502718Y-78772295D01*
X127775199Y-78885161D01*
X127775209Y-78885164D01*
X128060102Y-78961500D01*
X128060115Y-78961503D01*
X128352516Y-78999998D01*
X128352534Y-79000000D01*
X128647466Y-79000000D01*
X128647483Y-78999998D01*
X128939884Y-78961503D01*
X128939897Y-78961500D01*
X129224790Y-78885164D01*
X129224800Y-78885161D01*
X129497281Y-78772295D01*
X129497292Y-78772290D01*
X129752707Y-78624825D01*
X129752725Y-78624813D01*
X129904667Y-78508222D01*
X129904667Y-78508220D01*
X129082737Y-77686290D01*
X129216602Y-77589033D01*
X129339033Y-77466602D01*
X129436290Y-77332737D01*
X130258220Y-78154667D01*
X130258222Y-78154667D01*
X130374813Y-78002725D01*
X130374825Y-78002707D01*
X130522290Y-77747292D01*
X130522295Y-77747281D01*
X130635161Y-77474800D01*
X130635164Y-77474790D01*
X130711500Y-77189897D01*
X130711503Y-77189884D01*
X130749998Y-76897483D01*
X130750000Y-76897466D01*
X130750000Y-76602533D01*
X130749998Y-76602516D01*
X130711503Y-76310115D01*
X130711500Y-76310102D01*
X130635164Y-76025209D01*
X130635161Y-76025199D01*
X130522295Y-75752718D01*
X130522290Y-75752707D01*
X130374825Y-75497292D01*
X130374819Y-75497284D01*
X130258221Y-75345331D01*
X129436290Y-76167262D01*
X129339033Y-76033398D01*
X129216602Y-75910967D01*
X129082736Y-75813709D01*
X129904667Y-74991777D01*
X129752715Y-74875180D01*
X129752707Y-74875174D01*
X129546145Y-74755915D01*
X129497292Y-74727709D01*
X129497281Y-74727704D01*
X129313737Y-74651677D01*
X134486100Y-74651677D01*
X134486100Y-74700000D01*
X135186100Y-74700000D01*
X135186100Y-73600000D01*
X134486101Y-73600000D01*
X134486101Y-73648322D01*
X134496244Y-73747607D01*
X134549552Y-73908481D01*
X134549557Y-73908492D01*
X134638524Y-74052728D01*
X134638527Y-74052732D01*
X134648114Y-74062319D01*
X134681599Y-74123642D01*
X134676615Y-74193334D01*
X134648114Y-74237681D01*
X134638527Y-74247267D01*
X134638524Y-74247271D01*
X134549557Y-74391507D01*
X134549552Y-74391518D01*
X134496244Y-74552393D01*
X134486100Y-74651677D01*
X129313737Y-74651677D01*
X129224800Y-74614838D01*
X129224790Y-74614835D01*
X128939897Y-74538499D01*
X128939884Y-74538496D01*
X128647483Y-74500001D01*
X128647466Y-74500000D01*
X128352534Y-74500000D01*
X128352516Y-74500001D01*
X128060115Y-74538496D01*
X128060102Y-74538499D01*
X127775209Y-74614835D01*
X127775199Y-74614838D01*
X127502718Y-74727704D01*
X127502707Y-74727709D01*
X127247292Y-74875174D01*
X127247276Y-74875185D01*
X127095331Y-74991775D01*
X127095331Y-74991777D01*
X127917263Y-75813709D01*
X127783398Y-75910967D01*
X127660967Y-76033398D01*
X127563709Y-76167263D01*
X126741777Y-75345331D01*
X126741775Y-75345331D01*
X126625185Y-75497276D01*
X126625174Y-75497292D01*
X126477709Y-75752707D01*
X126477704Y-75752718D01*
X126364838Y-76025199D01*
X126364835Y-76025209D01*
X126288499Y-76310102D01*
X126288496Y-76310115D01*
X126250001Y-76602516D01*
X126250000Y-76602533D01*
X124750500Y-76602533D01*
X124750500Y-73558676D01*
X124770185Y-73491637D01*
X124786819Y-73470995D01*
X125206137Y-73051677D01*
X134486100Y-73051677D01*
X134486100Y-73100000D01*
X135186100Y-73100000D01*
X135186100Y-72374999D01*
X135162793Y-72375000D01*
X135162774Y-72375001D01*
X135063492Y-72385144D01*
X134902618Y-72438452D01*
X134902607Y-72438457D01*
X134758371Y-72527424D01*
X134758367Y-72527427D01*
X134638527Y-72647267D01*
X134638524Y-72647271D01*
X134549557Y-72791507D01*
X134549552Y-72791518D01*
X134496244Y-72952393D01*
X134486100Y-73051677D01*
X125206137Y-73051677D01*
X129420995Y-68836819D01*
X129482318Y-68803334D01*
X129508676Y-68800500D01*
X140541292Y-68800500D01*
X140608331Y-68820185D01*
G37*
G04 #@! TD.AperFunction*
G04 #@! TA.AperFunction,Conductor*
G36*
X166668834Y-98557914D02*
G01*
X166724767Y-98599786D01*
X166749184Y-98665250D01*
X166749500Y-98674096D01*
X166749500Y-106041324D01*
X166729815Y-106108363D01*
X166713181Y-106129005D01*
X162079005Y-110763181D01*
X162017682Y-110796666D01*
X161991324Y-110799500D01*
X161555369Y-110799500D01*
X161488330Y-110779815D01*
X161442575Y-110727011D01*
X161432631Y-110657853D01*
X161437661Y-110636503D01*
X161465436Y-110552685D01*
X161475500Y-110454174D01*
X161475500Y-109920826D01*
X161465436Y-109822315D01*
X161412549Y-109662713D01*
X161412545Y-109662707D01*
X161412544Y-109662704D01*
X161324283Y-109519612D01*
X161324280Y-109519608D01*
X161292353Y-109487681D01*
X161258868Y-109426358D01*
X161263852Y-109356666D01*
X161292353Y-109312319D01*
X161294383Y-109310289D01*
X161324281Y-109280391D01*
X161412549Y-109137287D01*
X161465436Y-108977685D01*
X161475500Y-108879174D01*
X161475500Y-108345826D01*
X161465436Y-108247315D01*
X161412549Y-108087713D01*
X161412545Y-108087707D01*
X161412544Y-108087704D01*
X161324283Y-107944612D01*
X161324280Y-107944608D01*
X161205391Y-107825719D01*
X161205387Y-107825716D01*
X161062295Y-107737455D01*
X161062289Y-107737452D01*
X161062287Y-107737451D01*
X160902685Y-107684564D01*
X160902683Y-107684563D01*
X160804181Y-107674500D01*
X160804174Y-107674500D01*
X160195826Y-107674500D01*
X160195813Y-107674500D01*
X160141854Y-107680013D01*
X160073161Y-107667243D01*
X160041572Y-107644336D01*
X159918050Y-107520814D01*
X159759414Y-107362179D01*
X159725930Y-107300857D01*
X159730914Y-107231166D01*
X159772785Y-107175232D01*
X159838250Y-107150815D01*
X159847096Y-107150499D01*
X159847871Y-107150499D01*
X159847872Y-107150499D01*
X159907483Y-107144091D01*
X160042331Y-107093796D01*
X160157546Y-107007546D01*
X160243796Y-106892331D01*
X160266850Y-106830520D01*
X160283818Y-106785027D01*
X160325689Y-106729093D01*
X160391153Y-106704676D01*
X160459426Y-106719527D01*
X160508832Y-106768932D01*
X160516182Y-106785027D01*
X160556202Y-106892328D01*
X160556206Y-106892335D01*
X160642452Y-107007544D01*
X160642455Y-107007547D01*
X160757664Y-107093793D01*
X160757671Y-107093797D01*
X160892517Y-107144091D01*
X160892516Y-107144091D01*
X160899444Y-107144835D01*
X160952127Y-107150500D01*
X162047872Y-107150499D01*
X162107483Y-107144091D01*
X162242331Y-107093796D01*
X162357546Y-107007546D01*
X162363052Y-107000191D01*
X162418985Y-106958319D01*
X162462320Y-106950500D01*
X163888331Y-106950500D01*
X163888347Y-106950501D01*
X163895943Y-106950501D01*
X164054054Y-106950501D01*
X164054057Y-106950501D01*
X164206785Y-106909577D01*
X164256904Y-106880639D01*
X164343716Y-106830520D01*
X164418242Y-106755993D01*
X164424786Y-106750991D01*
X164450011Y-106741289D01*
X164473739Y-106728334D01*
X164487568Y-106726847D01*
X164490000Y-106725912D01*
X164492142Y-106726355D01*
X164500098Y-106725500D01*
X164831613Y-106725500D01*
X164831616Y-106725500D01*
X164902196Y-106719086D01*
X165064606Y-106668478D01*
X165210185Y-106580472D01*
X165330472Y-106460185D01*
X165418478Y-106314606D01*
X165469086Y-106152196D01*
X165475500Y-106081616D01*
X165475500Y-105568384D01*
X165469086Y-105497804D01*
X165418478Y-105335394D01*
X165330472Y-105189815D01*
X165330470Y-105189813D01*
X165330469Y-105189811D01*
X165228339Y-105087681D01*
X165194854Y-105026358D01*
X165199838Y-104956666D01*
X165228339Y-104912319D01*
X165330468Y-104810189D01*
X165330469Y-104810188D01*
X165330472Y-104810185D01*
X165418478Y-104664606D01*
X165469086Y-104502196D01*
X165475500Y-104431616D01*
X165475500Y-103918384D01*
X165469086Y-103847804D01*
X165418478Y-103685394D01*
X165330472Y-103539815D01*
X165330470Y-103539813D01*
X165330469Y-103539811D01*
X165210188Y-103419530D01*
X165064606Y-103331522D01*
X164902196Y-103280914D01*
X164902194Y-103280913D01*
X164902192Y-103280913D01*
X164852778Y-103276423D01*
X164831616Y-103274500D01*
X164168384Y-103274500D01*
X164149145Y-103276248D01*
X164097807Y-103280913D01*
X163935393Y-103331522D01*
X163789811Y-103419530D01*
X163669530Y-103539811D01*
X163581522Y-103685393D01*
X163530913Y-103847807D01*
X163524500Y-103918386D01*
X163524500Y-104431613D01*
X163530913Y-104502192D01*
X163530913Y-104502194D01*
X163530914Y-104502196D01*
X163574671Y-104642620D01*
X163581522Y-104664606D01*
X163669530Y-104810188D01*
X163771661Y-104912319D01*
X163805146Y-104973642D01*
X163800162Y-105043334D01*
X163771661Y-105087681D01*
X163669531Y-105189810D01*
X163669530Y-105189811D01*
X163581522Y-105335393D01*
X163530913Y-105497807D01*
X163524500Y-105568386D01*
X163524500Y-105625500D01*
X163504815Y-105692539D01*
X163452011Y-105738294D01*
X163400500Y-105749500D01*
X162563235Y-105749500D01*
X162496196Y-105729815D01*
X162450441Y-105677011D01*
X162440497Y-105607853D01*
X162447053Y-105582166D01*
X162493597Y-105457376D01*
X162493598Y-105457372D01*
X162499999Y-105397844D01*
X162500000Y-105397827D01*
X162500000Y-105300000D01*
X161624000Y-105300000D01*
X161556961Y-105280315D01*
X161511206Y-105227511D01*
X161500000Y-105176000D01*
X161500000Y-105050000D01*
X161374000Y-105050000D01*
X161306961Y-105030315D01*
X161261206Y-104977511D01*
X161250000Y-104926000D01*
X161250000Y-104800000D01*
X161750000Y-104800000D01*
X162500000Y-104800000D01*
X162500000Y-104702172D01*
X162499999Y-104702155D01*
X162493598Y-104642627D01*
X162493596Y-104642620D01*
X162443354Y-104507913D01*
X162443350Y-104507906D01*
X162357190Y-104392812D01*
X162357187Y-104392809D01*
X162242093Y-104306649D01*
X162242086Y-104306645D01*
X162107379Y-104256403D01*
X162107372Y-104256401D01*
X162047844Y-104250000D01*
X161750000Y-104250000D01*
X161750000Y-104800000D01*
X161250000Y-104800000D01*
X161250000Y-104276251D01*
X161170310Y-104237532D01*
X161164715Y-104232445D01*
X161157461Y-104230315D01*
X161139224Y-104209269D01*
X161118613Y-104190529D01*
X161116656Y-104183223D01*
X161111706Y-104177511D01*
X161100500Y-104126000D01*
X161100500Y-104075096D01*
X161120185Y-104008057D01*
X161136814Y-103987420D01*
X164112416Y-101011817D01*
X164173739Y-100978333D01*
X164200097Y-100975499D01*
X164548338Y-100975499D01*
X164548344Y-100975499D01*
X164548352Y-100975498D01*
X164548355Y-100975498D01*
X164602760Y-100969940D01*
X164647708Y-100965349D01*
X164808697Y-100912003D01*
X164953044Y-100822968D01*
X165072968Y-100703044D01*
X165162003Y-100558697D01*
X165215349Y-100397708D01*
X165225500Y-100298345D01*
X165225499Y-99950095D01*
X165245183Y-99883057D01*
X165261813Y-99862420D01*
X166537819Y-98586415D01*
X166599142Y-98552930D01*
X166668834Y-98557914D01*
G37*
G04 #@! TD.AperFunction*
G04 #@! TA.AperFunction,Conductor*
G36*
X155830703Y-98930384D02*
G01*
X155837181Y-98936416D01*
X156639139Y-99738374D01*
X156639149Y-99738385D01*
X156643479Y-99742715D01*
X156643480Y-99742716D01*
X156755284Y-99854520D01*
X156804713Y-99883057D01*
X156842095Y-99904639D01*
X156842097Y-99904641D01*
X156880151Y-99926611D01*
X156892215Y-99933577D01*
X157044943Y-99974501D01*
X157044946Y-99974501D01*
X157210653Y-99974501D01*
X157210669Y-99974500D01*
X159650500Y-99974500D01*
X159659185Y-99977050D01*
X159668147Y-99975762D01*
X159692187Y-99986740D01*
X159717539Y-99994185D01*
X159723466Y-100001025D01*
X159731703Y-100004787D01*
X159745992Y-100027021D01*
X159763294Y-100046989D01*
X159765581Y-100057503D01*
X159769477Y-100063565D01*
X159774500Y-100098500D01*
X159774500Y-100149902D01*
X159754815Y-100216941D01*
X159738181Y-100237583D01*
X157618481Y-102357282D01*
X157618479Y-102357285D01*
X157568361Y-102444094D01*
X157568359Y-102444096D01*
X157539425Y-102494209D01*
X157539424Y-102494210D01*
X157539423Y-102494215D01*
X157498499Y-102646943D01*
X157498499Y-102646945D01*
X157498499Y-102815046D01*
X157498500Y-102815059D01*
X157498500Y-108124830D01*
X157498499Y-108124848D01*
X157498499Y-108132443D01*
X157498499Y-108290557D01*
X157520275Y-108371824D01*
X157524500Y-108403918D01*
X157524500Y-108626500D01*
X157504815Y-108693539D01*
X157452011Y-108739294D01*
X157400500Y-108750500D01*
X156751097Y-108750500D01*
X156684058Y-108730815D01*
X156663416Y-108714181D01*
X156164870Y-108215635D01*
X156131385Y-108154312D01*
X156134619Y-108089639D01*
X156192862Y-107910389D01*
X156192881Y-107910272D01*
X156225500Y-107704324D01*
X156225500Y-107495675D01*
X156192862Y-107289610D01*
X156147662Y-107150500D01*
X156128389Y-107091184D01*
X156128387Y-107091181D01*
X156128387Y-107091179D01*
X156035856Y-106909577D01*
X156033670Y-106905286D01*
X155911035Y-106736495D01*
X155763505Y-106588965D01*
X155763303Y-106588818D01*
X155676613Y-106525833D01*
X155633948Y-106470503D01*
X155625500Y-106425516D01*
X155625500Y-99024097D01*
X155645185Y-98957058D01*
X155697989Y-98911303D01*
X155767147Y-98901359D01*
X155830703Y-98930384D01*
G37*
G04 #@! TD.AperFunction*
G04 #@! TA.AperFunction,Conductor*
G36*
X159768402Y-97914849D02*
G01*
X159801887Y-97976172D01*
X159799107Y-98039418D01*
X159780914Y-98097803D01*
X159774500Y-98168386D01*
X159774500Y-98649500D01*
X159754815Y-98716539D01*
X159702011Y-98762294D01*
X159650500Y-98773500D01*
X159014211Y-98773500D01*
X158947172Y-98753815D01*
X158901417Y-98701011D01*
X158891473Y-98631853D01*
X158920498Y-98568297D01*
X158966758Y-98534939D01*
X158997281Y-98522295D01*
X158997292Y-98522290D01*
X159252707Y-98374825D01*
X159252725Y-98374813D01*
X159404667Y-98258222D01*
X159404667Y-98258220D01*
X158582737Y-97436290D01*
X158716602Y-97339033D01*
X158839033Y-97216602D01*
X158936290Y-97082737D01*
X159768402Y-97914849D01*
G37*
G04 #@! TD.AperFunction*
G04 #@! TA.AperFunction,Conductor*
G36*
X163692540Y-82970185D02*
G01*
X163738295Y-83022989D01*
X163749501Y-83074500D01*
X163749501Y-83247876D01*
X163755908Y-83307483D01*
X163806202Y-83442328D01*
X163806206Y-83442335D01*
X163892452Y-83557544D01*
X163892455Y-83557547D01*
X164007664Y-83643793D01*
X164007671Y-83643797D01*
X164139082Y-83692810D01*
X164195016Y-83734681D01*
X164219433Y-83800145D01*
X164204582Y-83868418D01*
X164183431Y-83896673D01*
X164069889Y-84010215D01*
X163944951Y-84182179D01*
X163848444Y-84371585D01*
X163782753Y-84573760D01*
X163749500Y-84783713D01*
X163749500Y-84996286D01*
X163782753Y-85206239D01*
X163782753Y-85206241D01*
X163782754Y-85206243D01*
X163837431Y-85374522D01*
X163848444Y-85408414D01*
X163944951Y-85597820D01*
X164069890Y-85769786D01*
X164220213Y-85920109D01*
X164392179Y-86045048D01*
X164392181Y-86045049D01*
X164392184Y-86045051D01*
X164401493Y-86049794D01*
X164452290Y-86097766D01*
X164469087Y-86165587D01*
X164446552Y-86231722D01*
X164401505Y-86270760D01*
X164392446Y-86275376D01*
X164392440Y-86275380D01*
X164338282Y-86314727D01*
X164338282Y-86314728D01*
X164970591Y-86947037D01*
X164907007Y-86964075D01*
X164792993Y-87029901D01*
X164699901Y-87122993D01*
X164634075Y-87237007D01*
X164617037Y-87300591D01*
X163984728Y-86668282D01*
X163984727Y-86668282D01*
X163945380Y-86722439D01*
X163848904Y-86911782D01*
X163783242Y-87113869D01*
X163783242Y-87113872D01*
X163750000Y-87323753D01*
X163750000Y-87536246D01*
X163783242Y-87746127D01*
X163783242Y-87746130D01*
X163848904Y-87948217D01*
X163945375Y-88137550D01*
X163984728Y-88191716D01*
X164617037Y-87559408D01*
X164634075Y-87622993D01*
X164699901Y-87737007D01*
X164792993Y-87830099D01*
X164907007Y-87895925D01*
X164970589Y-87912962D01*
X164338282Y-88545269D01*
X164338282Y-88545270D01*
X164392452Y-88584626D01*
X164392451Y-88584626D01*
X164401495Y-88589234D01*
X164452292Y-88637208D01*
X164469087Y-88705029D01*
X164446550Y-88771164D01*
X164401499Y-88810202D01*
X164392182Y-88814949D01*
X164220213Y-88939890D01*
X164069890Y-89090213D01*
X163944951Y-89262179D01*
X163848444Y-89451585D01*
X163782753Y-89653760D01*
X163749500Y-89863713D01*
X163749500Y-90076286D01*
X163782254Y-90283091D01*
X163782754Y-90286243D01*
X163847342Y-90485024D01*
X163848444Y-90488414D01*
X163944951Y-90677820D01*
X164069890Y-90849786D01*
X164220213Y-91000109D01*
X164392182Y-91125050D01*
X164400946Y-91129516D01*
X164451742Y-91177491D01*
X164468536Y-91245312D01*
X164445998Y-91311447D01*
X164400946Y-91350484D01*
X164392182Y-91354949D01*
X164220213Y-91479890D01*
X164069890Y-91630213D01*
X163944951Y-91802179D01*
X163848444Y-91991585D01*
X163782753Y-92193760D01*
X163749500Y-92403713D01*
X163749500Y-92616287D01*
X163782754Y-92826243D01*
X163839906Y-93002139D01*
X163848444Y-93028414D01*
X163944951Y-93217820D01*
X164069890Y-93389786D01*
X164220213Y-93540109D01*
X164392179Y-93665048D01*
X164392181Y-93665049D01*
X164392184Y-93665051D01*
X164401493Y-93669794D01*
X164452290Y-93717766D01*
X164469087Y-93785587D01*
X164446552Y-93851722D01*
X164401505Y-93890760D01*
X164392446Y-93895376D01*
X164392440Y-93895380D01*
X164338282Y-93934727D01*
X164338282Y-93934728D01*
X164970591Y-94567037D01*
X164907007Y-94584075D01*
X164792993Y-94649901D01*
X164699901Y-94742993D01*
X164634075Y-94857007D01*
X164617037Y-94920591D01*
X163984728Y-94288282D01*
X163984727Y-94288282D01*
X163945380Y-94342439D01*
X163848904Y-94531782D01*
X163783242Y-94733869D01*
X163783242Y-94733872D01*
X163750000Y-94943753D01*
X163750000Y-95156246D01*
X163783242Y-95366127D01*
X163783242Y-95366130D01*
X163848904Y-95568217D01*
X163945375Y-95757550D01*
X163984728Y-95811716D01*
X164617037Y-95179408D01*
X164634075Y-95242993D01*
X164699901Y-95357007D01*
X164792993Y-95450099D01*
X164907007Y-95515925D01*
X164970589Y-95532962D01*
X164338282Y-96165269D01*
X164338282Y-96165270D01*
X164392449Y-96204624D01*
X164581782Y-96301095D01*
X164783870Y-96366757D01*
X164993754Y-96400000D01*
X165206246Y-96400000D01*
X165416127Y-96366757D01*
X165416133Y-96366756D01*
X165488180Y-96343346D01*
X165558021Y-96341349D01*
X165617855Y-96377429D01*
X165648684Y-96440129D01*
X165650500Y-96461276D01*
X165650500Y-97723902D01*
X165630815Y-97790941D01*
X165614181Y-97811584D01*
X165384016Y-98041747D01*
X165322693Y-98075231D01*
X165253001Y-98070247D01*
X165197068Y-98028375D01*
X165178629Y-97993068D01*
X165161548Y-97941520D01*
X165161542Y-97941507D01*
X165072575Y-97797271D01*
X165072572Y-97797267D01*
X164952732Y-97677427D01*
X164952728Y-97677424D01*
X164808492Y-97588457D01*
X164808481Y-97588452D01*
X164647606Y-97535144D01*
X164548322Y-97525000D01*
X164500000Y-97525000D01*
X164500000Y-98351000D01*
X164480315Y-98418039D01*
X164427511Y-98463794D01*
X164376000Y-98475000D01*
X164124000Y-98475000D01*
X164056961Y-98455315D01*
X164011206Y-98402511D01*
X164000000Y-98351000D01*
X164000000Y-97525000D01*
X163999999Y-97524999D01*
X163951693Y-97525000D01*
X163951675Y-97525001D01*
X163852392Y-97535144D01*
X163691518Y-97588452D01*
X163691507Y-97588457D01*
X163547271Y-97677424D01*
X163470357Y-97754338D01*
X163467098Y-97756117D01*
X163465134Y-97759266D01*
X163436670Y-97772731D01*
X163409033Y-97787822D01*
X163405331Y-97787557D01*
X163401975Y-97789145D01*
X163370752Y-97785084D01*
X163339342Y-97782838D01*
X163335293Y-97780472D01*
X163332689Y-97780134D01*
X163320868Y-97772044D01*
X163302743Y-97761454D01*
X163298712Y-97758055D01*
X163210185Y-97669528D01*
X163152016Y-97634363D01*
X163144567Y-97628082D01*
X163130442Y-97606742D01*
X163113162Y-97587871D01*
X163110577Y-97576728D01*
X163106004Y-97569819D01*
X163105820Y-97556222D01*
X163100500Y-97533284D01*
X163100500Y-95989060D01*
X163100501Y-95989047D01*
X163100501Y-95820944D01*
X163098421Y-95813181D01*
X163059577Y-95668216D01*
X163055392Y-95660967D01*
X162980524Y-95531290D01*
X162980518Y-95531282D01*
X162475798Y-95026562D01*
X157487590Y-90038355D01*
X157487588Y-90038352D01*
X157368717Y-89919481D01*
X157368716Y-89919480D01*
X157272124Y-89863713D01*
X157231785Y-89840423D01*
X157079057Y-89799499D01*
X156920943Y-89799499D01*
X156913347Y-89799499D01*
X156913331Y-89799500D01*
X152794221Y-89799500D01*
X152727182Y-89779815D01*
X152681427Y-89727011D01*
X152671483Y-89657853D01*
X152688682Y-89610403D01*
X152751545Y-89508486D01*
X152751547Y-89508481D01*
X152804855Y-89347606D01*
X152814999Y-89248322D01*
X152815000Y-89248309D01*
X152815000Y-89225000D01*
X151964000Y-89225000D01*
X151896961Y-89205315D01*
X151851206Y-89152511D01*
X151840000Y-89101000D01*
X151840000Y-88849000D01*
X151859685Y-88781961D01*
X151912489Y-88736206D01*
X151964000Y-88725000D01*
X152800948Y-88725000D01*
X152867987Y-88744685D01*
X152907680Y-88785879D01*
X152931917Y-88826862D01*
X152931923Y-88826870D01*
X153048129Y-88943076D01*
X153048133Y-88943079D01*
X153048135Y-88943081D01*
X153189602Y-89026744D01*
X153231224Y-89038836D01*
X153347426Y-89072597D01*
X153347429Y-89072597D01*
X153347431Y-89072598D01*
X153384306Y-89075500D01*
X153384314Y-89075500D01*
X153815686Y-89075500D01*
X153815694Y-89075500D01*
X153852569Y-89072598D01*
X153852571Y-89072597D01*
X153852573Y-89072597D01*
X153894191Y-89060505D01*
X154010398Y-89026744D01*
X154151865Y-88943081D01*
X154151870Y-88943075D01*
X154158031Y-88938298D01*
X154159933Y-88940750D01*
X154208579Y-88914155D01*
X154278274Y-88919104D01*
X154310695Y-88939940D01*
X154311969Y-88938298D01*
X154318132Y-88943078D01*
X154318135Y-88943081D01*
X154459602Y-89026744D01*
X154501224Y-89038836D01*
X154617426Y-89072597D01*
X154617429Y-89072597D01*
X154617431Y-89072598D01*
X154654306Y-89075500D01*
X154654314Y-89075500D01*
X155085686Y-89075500D01*
X155085694Y-89075500D01*
X155122569Y-89072598D01*
X155122571Y-89072597D01*
X155122573Y-89072597D01*
X155164191Y-89060505D01*
X155280398Y-89026744D01*
X155421865Y-88943081D01*
X155421870Y-88943075D01*
X155428031Y-88938298D01*
X155429933Y-88940750D01*
X155478579Y-88914155D01*
X155548274Y-88919104D01*
X155580695Y-88939940D01*
X155581969Y-88938298D01*
X155588132Y-88943078D01*
X155588135Y-88943081D01*
X155729602Y-89026744D01*
X155771224Y-89038836D01*
X155887426Y-89072597D01*
X155887429Y-89072597D01*
X155887431Y-89072598D01*
X155924306Y-89075500D01*
X155924314Y-89075500D01*
X156355686Y-89075500D01*
X156355694Y-89075500D01*
X156392569Y-89072598D01*
X156392571Y-89072597D01*
X156392573Y-89072597D01*
X156434191Y-89060505D01*
X156550398Y-89026744D01*
X156691865Y-88943081D01*
X156691870Y-88943076D01*
X156698026Y-88938301D01*
X156699839Y-88940638D01*
X156748949Y-88913798D01*
X156818643Y-88918756D01*
X156850996Y-88939551D01*
X156852278Y-88937900D01*
X156858447Y-88942685D01*
X156999801Y-89026281D01*
X157157514Y-89072100D01*
X157157511Y-89072100D01*
X157159998Y-89072295D01*
X157160000Y-89072295D01*
X157660000Y-89072295D01*
X157660001Y-89072295D01*
X157662486Y-89072100D01*
X157820198Y-89026281D01*
X157961552Y-88942685D01*
X157961561Y-88942678D01*
X158077678Y-88826561D01*
X158077685Y-88826552D01*
X158161282Y-88685196D01*
X158161283Y-88685193D01*
X158207099Y-88527495D01*
X158207100Y-88527489D01*
X158209999Y-88490649D01*
X158210000Y-88490634D01*
X158210000Y-88000000D01*
X157660000Y-88000000D01*
X157660000Y-89072295D01*
X157160000Y-89072295D01*
X157160000Y-87500000D01*
X157660000Y-87500000D01*
X158210000Y-87500000D01*
X158210000Y-87009365D01*
X158209999Y-87009350D01*
X158207100Y-86972510D01*
X158207099Y-86972504D01*
X158161283Y-86814806D01*
X158161282Y-86814803D01*
X158077685Y-86673447D01*
X158077678Y-86673438D01*
X157961561Y-86557321D01*
X157961552Y-86557314D01*
X157820196Y-86473717D01*
X157820193Y-86473716D01*
X157662494Y-86427900D01*
X157662497Y-86427900D01*
X157660000Y-86427703D01*
X157660000Y-87500000D01*
X157160000Y-87500000D01*
X157160000Y-86427703D01*
X157157503Y-86427900D01*
X156999806Y-86473716D01*
X156999803Y-86473717D01*
X156858449Y-86557313D01*
X156852283Y-86562097D01*
X156850389Y-86559655D01*
X156801580Y-86586239D01*
X156731894Y-86581179D01*
X156699227Y-86560159D01*
X156698031Y-86561702D01*
X156691862Y-86556917D01*
X156613681Y-86510681D01*
X156550398Y-86473256D01*
X156550397Y-86473255D01*
X156550396Y-86473255D01*
X156550393Y-86473254D01*
X156392573Y-86427402D01*
X156392567Y-86427401D01*
X156355701Y-86424500D01*
X156355694Y-86424500D01*
X155924306Y-86424500D01*
X155924298Y-86424500D01*
X155887432Y-86427401D01*
X155887426Y-86427402D01*
X155782692Y-86457831D01*
X155712822Y-86457632D01*
X155654152Y-86419690D01*
X155625309Y-86356051D01*
X155635450Y-86286922D01*
X155641973Y-86274617D01*
X155708478Y-86164606D01*
X155759086Y-86002196D01*
X155765500Y-85931616D01*
X155765500Y-85268384D01*
X155759086Y-85197804D01*
X155708478Y-85035394D01*
X155620472Y-84889815D01*
X155620470Y-84889813D01*
X155620469Y-84889811D01*
X155501820Y-84771162D01*
X155468335Y-84709839D01*
X155465501Y-84683481D01*
X155465501Y-84636001D01*
X155464138Y-84630913D01*
X155424577Y-84483273D01*
X155423991Y-84482258D01*
X155345524Y-84346347D01*
X155345518Y-84346339D01*
X154161360Y-83162181D01*
X154127875Y-83100858D01*
X154132859Y-83031166D01*
X154174731Y-82975233D01*
X154240195Y-82950816D01*
X154249041Y-82950500D01*
X163625501Y-82950500D01*
X163692540Y-82970185D01*
G37*
G04 #@! TD.AperFunction*
G04 #@! TA.AperFunction,Conductor*
G36*
X151517231Y-91293871D02*
G01*
X151518575Y-91293852D01*
X151547359Y-91305933D01*
X151642006Y-91360577D01*
X151794733Y-91401501D01*
X151794735Y-91401501D01*
X151960444Y-91401501D01*
X151960460Y-91401500D01*
X156377871Y-91401500D01*
X156444910Y-91421185D01*
X156465552Y-91437819D01*
X156494165Y-91466432D01*
X156527650Y-91527755D01*
X156522666Y-91597447D01*
X156480794Y-91653380D01*
X156415330Y-91677797D01*
X156396757Y-91677731D01*
X156355704Y-91674500D01*
X156355694Y-91674500D01*
X155924306Y-91674500D01*
X155924298Y-91674500D01*
X155887432Y-91677401D01*
X155887426Y-91677402D01*
X155729606Y-91723254D01*
X155729603Y-91723255D01*
X155588137Y-91806917D01*
X155581969Y-91811702D01*
X155580072Y-91809256D01*
X155531358Y-91835857D01*
X155461666Y-91830873D01*
X155429296Y-91810069D01*
X155428031Y-91811702D01*
X155421862Y-91806917D01*
X155302522Y-91736340D01*
X155280398Y-91723256D01*
X155280397Y-91723255D01*
X155280396Y-91723255D01*
X155280393Y-91723254D01*
X155122573Y-91677402D01*
X155122567Y-91677401D01*
X155085701Y-91674500D01*
X155085694Y-91674500D01*
X154654306Y-91674500D01*
X154654298Y-91674500D01*
X154617432Y-91677401D01*
X154617426Y-91677402D01*
X154459606Y-91723254D01*
X154459603Y-91723255D01*
X154318137Y-91806917D01*
X154311969Y-91811702D01*
X154310072Y-91809256D01*
X154261358Y-91835857D01*
X154191666Y-91830873D01*
X154159296Y-91810069D01*
X154158031Y-91811702D01*
X154151862Y-91806917D01*
X154032522Y-91736340D01*
X154010398Y-91723256D01*
X154010397Y-91723255D01*
X154010396Y-91723255D01*
X154010393Y-91723254D01*
X153852573Y-91677402D01*
X153852567Y-91677401D01*
X153815701Y-91674500D01*
X153815694Y-91674500D01*
X153384306Y-91674500D01*
X153384298Y-91674500D01*
X153347432Y-91677401D01*
X153347426Y-91677402D01*
X153189606Y-91723254D01*
X153189603Y-91723255D01*
X153048137Y-91806917D01*
X153048129Y-91806923D01*
X152931923Y-91923129D01*
X152931917Y-91923137D01*
X152848255Y-92064603D01*
X152848254Y-92064606D01*
X152802402Y-92222426D01*
X152802401Y-92222432D01*
X152799500Y-92259298D01*
X152799500Y-93740701D01*
X152802401Y-93777567D01*
X152802402Y-93777573D01*
X152848253Y-93935393D01*
X152848255Y-93935396D01*
X152848256Y-93935398D01*
X152857232Y-93950576D01*
X152874500Y-94013696D01*
X152874500Y-94451457D01*
X152890931Y-94534057D01*
X152890931Y-94534058D01*
X152902379Y-94591612D01*
X152902381Y-94591620D01*
X152929688Y-94657546D01*
X152957071Y-94723653D01*
X153036468Y-94842480D01*
X153133182Y-94939194D01*
X153147888Y-94966125D01*
X153164477Y-94991939D01*
X153165368Y-94998138D01*
X153166666Y-95000515D01*
X153169500Y-95026874D01*
X153169500Y-95073125D01*
X153149815Y-95140164D01*
X153133181Y-95160806D01*
X152480807Y-95813181D01*
X152419484Y-95846666D01*
X152393126Y-95849500D01*
X151838384Y-95849500D01*
X151819145Y-95851248D01*
X151767807Y-95855913D01*
X151605391Y-95906523D01*
X151505831Y-95966709D01*
X151438277Y-95984545D01*
X151371803Y-95963027D01*
X151327516Y-95908986D01*
X151319475Y-95839581D01*
X151332323Y-95802140D01*
X151375078Y-95722154D01*
X151396285Y-95677318D01*
X151405588Y-95654860D01*
X151422304Y-95608143D01*
X151463787Y-95471393D01*
X151475843Y-95423262D01*
X151480585Y-95399420D01*
X151487862Y-95350360D01*
X151502469Y-95202057D01*
X151504294Y-95177308D01*
X151504891Y-95165154D01*
X151505500Y-95140354D01*
X151505500Y-92065890D01*
X151504726Y-92037929D01*
X151503967Y-92024228D01*
X151501646Y-91996337D01*
X151481844Y-91818213D01*
X151472597Y-91763044D01*
X151470089Y-91751905D01*
X151466586Y-91736340D01*
X151466582Y-91736325D01*
X151466579Y-91736312D01*
X151451293Y-91682503D01*
X151395109Y-91519615D01*
X151373969Y-91467821D01*
X151373967Y-91467817D01*
X151373961Y-91467802D01*
X151373960Y-91467801D01*
X151373322Y-91466455D01*
X151373296Y-91466294D01*
X151373269Y-91466232D01*
X151373285Y-91466224D01*
X151368160Y-91433898D01*
X151361922Y-91401534D01*
X151362714Y-91399553D01*
X151362381Y-91397447D01*
X151375635Y-91367279D01*
X151387890Y-91336669D01*
X151389628Y-91335431D01*
X151390486Y-91333479D01*
X151417949Y-91315263D01*
X151444804Y-91296141D01*
X151446934Y-91296039D01*
X151448713Y-91294860D01*
X151481674Y-91294384D01*
X151514595Y-91292816D01*
X151517231Y-91293871D01*
G37*
G04 #@! TD.AperFunction*
G04 #@! TA.AperFunction,Conductor*
G36*
X156791978Y-94167236D02*
G01*
X156818274Y-94169104D01*
X156827381Y-94174957D01*
X156834483Y-94176506D01*
X156851325Y-94189127D01*
X156851969Y-94188298D01*
X156858138Y-94193083D01*
X156990435Y-94271323D01*
X157038118Y-94322392D01*
X157050622Y-94391134D01*
X157023977Y-94455723D01*
X156989315Y-94485442D01*
X156747285Y-94625179D01*
X156747276Y-94625185D01*
X156595331Y-94741775D01*
X156595331Y-94741777D01*
X157417263Y-95563709D01*
X157283398Y-95660967D01*
X157160967Y-95783398D01*
X157063709Y-95917263D01*
X156241777Y-95095331D01*
X156232609Y-95095932D01*
X156164426Y-95080673D01*
X156115316Y-95030975D01*
X156100500Y-94972197D01*
X156100500Y-94544058D01*
X156100500Y-94534059D01*
X156100501Y-94534057D01*
X156100501Y-94449499D01*
X156120186Y-94382459D01*
X156172991Y-94336705D01*
X156173001Y-94336703D01*
X156224501Y-94325500D01*
X156355686Y-94325500D01*
X156355694Y-94325500D01*
X156392569Y-94322598D01*
X156392571Y-94322597D01*
X156392573Y-94322597D01*
X156434191Y-94310505D01*
X156550398Y-94276744D01*
X156691865Y-94193081D01*
X156691870Y-94193075D01*
X156698031Y-94188298D01*
X156698534Y-94188947D01*
X156700741Y-94186003D01*
X156725444Y-94176803D01*
X156748579Y-94164155D01*
X156757674Y-94164800D01*
X156766218Y-94161619D01*
X156791978Y-94167236D01*
G37*
G04 #@! TD.AperFunction*
G04 #@! TA.AperFunction,Conductor*
G36*
X136568834Y-77359699D02*
G01*
X136624767Y-77401571D01*
X136649184Y-77467035D01*
X136649500Y-77475881D01*
X136649500Y-80583480D01*
X136640855Y-80612920D01*
X136634332Y-80642907D01*
X136630577Y-80647922D01*
X136629815Y-80650519D01*
X136613181Y-80671161D01*
X136512327Y-80772015D01*
X136451004Y-80805500D01*
X136381312Y-80800516D01*
X136336965Y-80772015D01*
X136234877Y-80669927D01*
X136089395Y-80581980D01*
X136089396Y-80581980D01*
X135927105Y-80531409D01*
X135927106Y-80531409D01*
X135856572Y-80525000D01*
X135850000Y-80525000D01*
X135850000Y-81376000D01*
X135830315Y-81443039D01*
X135777511Y-81488794D01*
X135726000Y-81500000D01*
X135600000Y-81500000D01*
X135600000Y-81626000D01*
X135580315Y-81693039D01*
X135527511Y-81738794D01*
X135476000Y-81750000D01*
X134700001Y-81750000D01*
X134700001Y-81831582D01*
X134706408Y-81902102D01*
X134706409Y-81902107D01*
X134756981Y-82064397D01*
X134830109Y-82185366D01*
X134847945Y-82252921D01*
X134830109Y-82313666D01*
X134756522Y-82435393D01*
X134705913Y-82597807D01*
X134699500Y-82668386D01*
X134699500Y-83331613D01*
X134705913Y-83402192D01*
X134705913Y-83402194D01*
X134705914Y-83402196D01*
X134756522Y-83564606D01*
X134844528Y-83710185D01*
X134925172Y-83790829D01*
X134958656Y-83852150D01*
X134953672Y-83921842D01*
X134911801Y-83977776D01*
X134850745Y-84001799D01*
X134812516Y-84005909D01*
X134677671Y-84056202D01*
X134677664Y-84056206D01*
X134562455Y-84142452D01*
X134562452Y-84142455D01*
X134476206Y-84257664D01*
X134476202Y-84257671D01*
X134425908Y-84392517D01*
X134419501Y-84452116D01*
X134419500Y-84452135D01*
X134419500Y-85947870D01*
X134419501Y-85947876D01*
X134425908Y-86007483D01*
X134476202Y-86142328D01*
X134476206Y-86142335D01*
X134562452Y-86257544D01*
X134562455Y-86257547D01*
X134677664Y-86343793D01*
X134677671Y-86343797D01*
X134812517Y-86394091D01*
X134812516Y-86394091D01*
X134819444Y-86394835D01*
X134872127Y-86400500D01*
X137967872Y-86400499D01*
X138027483Y-86394091D01*
X138162331Y-86343796D01*
X138277546Y-86257546D01*
X138277548Y-86257542D01*
X138282819Y-86252273D01*
X138344142Y-86218788D01*
X138413834Y-86223772D01*
X138469767Y-86265644D01*
X138494184Y-86331108D01*
X138494500Y-86339954D01*
X138494500Y-88660760D01*
X138474815Y-88727799D01*
X138422011Y-88773554D01*
X138352853Y-88783498D01*
X138289297Y-88754473D01*
X138282819Y-88748441D01*
X138277187Y-88742809D01*
X138162093Y-88656649D01*
X138162086Y-88656645D01*
X138027379Y-88606403D01*
X138027372Y-88606401D01*
X137967844Y-88600000D01*
X136670000Y-88600000D01*
X136670000Y-91000000D01*
X137967828Y-91000000D01*
X137967844Y-90999999D01*
X138027372Y-90993598D01*
X138027379Y-90993596D01*
X138162086Y-90943354D01*
X138162093Y-90943350D01*
X138277187Y-90857190D01*
X138277190Y-90857187D01*
X138363350Y-90742093D01*
X138363354Y-90742086D01*
X138413596Y-90607379D01*
X138413598Y-90607372D01*
X138419999Y-90547844D01*
X138420000Y-90547827D01*
X138420000Y-90222549D01*
X138439685Y-90155510D01*
X138492489Y-90109755D01*
X138561647Y-90099811D01*
X138625203Y-90128836D01*
X138653358Y-90164096D01*
X138716957Y-90283083D01*
X138716962Y-90283091D01*
X138742454Y-90325623D01*
X138742461Y-90325634D01*
X138742462Y-90325635D01*
X138755967Y-90345847D01*
X138755973Y-90345855D01*
X138755975Y-90345858D01*
X138785514Y-90385688D01*
X138785526Y-90385704D01*
X138895353Y-90519528D01*
X138894977Y-90519836D01*
X138923076Y-90581776D01*
X138923583Y-90585858D01*
X138925907Y-90607480D01*
X138976202Y-90742328D01*
X138976206Y-90742335D01*
X139062452Y-90857544D01*
X139062455Y-90857547D01*
X139177664Y-90943793D01*
X139177671Y-90943797D01*
X139220203Y-90959660D01*
X139312517Y-90994091D01*
X139372127Y-91000500D01*
X139918305Y-91000499D01*
X139930466Y-91001097D01*
X139944390Y-91002469D01*
X139969139Y-91004294D01*
X139981293Y-91004891D01*
X140006093Y-91005500D01*
X143239254Y-91005500D01*
X143268694Y-91014144D01*
X143298681Y-91020668D01*
X143303696Y-91024422D01*
X143306293Y-91025185D01*
X143326935Y-91041819D01*
X143458181Y-91173065D01*
X143491666Y-91234388D01*
X143494500Y-91260746D01*
X143494500Y-92075500D01*
X143474815Y-92142539D01*
X143422011Y-92188294D01*
X143370500Y-92199500D01*
X143182530Y-92199500D01*
X143126235Y-92185985D01*
X142975996Y-92109433D01*
X142751368Y-92036446D01*
X142518097Y-91999500D01*
X142518092Y-91999500D01*
X138981908Y-91999500D01*
X138981903Y-91999500D01*
X138748630Y-92036447D01*
X138748627Y-92036447D01*
X138524011Y-92109430D01*
X138524010Y-92109430D01*
X138373761Y-92185985D01*
X138317468Y-92199500D01*
X138102130Y-92199500D01*
X138102123Y-92199501D01*
X138042516Y-92205908D01*
X137907671Y-92256202D01*
X137907664Y-92256206D01*
X137792456Y-92342452D01*
X137792455Y-92342453D01*
X137792454Y-92342454D01*
X137712087Y-92449811D01*
X137656153Y-92491682D01*
X137612820Y-92499500D01*
X133465783Y-92499500D01*
X133398744Y-92479815D01*
X133378102Y-92463181D01*
X132761819Y-91846898D01*
X132728334Y-91785575D01*
X132725500Y-91759217D01*
X132725500Y-91257346D01*
X132727883Y-91233154D01*
X132734185Y-91201475D01*
X132748498Y-91129516D01*
X132761900Y-91062143D01*
X132761900Y-90865057D01*
X132727883Y-90694045D01*
X132725500Y-90669853D01*
X132725500Y-90547844D01*
X134420000Y-90547844D01*
X134426401Y-90607372D01*
X134426403Y-90607379D01*
X134476645Y-90742086D01*
X134476649Y-90742093D01*
X134562809Y-90857187D01*
X134562812Y-90857190D01*
X134677906Y-90943350D01*
X134677913Y-90943354D01*
X134812620Y-90993596D01*
X134812627Y-90993598D01*
X134872155Y-90999999D01*
X134872172Y-91000000D01*
X136170000Y-91000000D01*
X136170000Y-90050000D01*
X134420000Y-90050000D01*
X134420000Y-90547844D01*
X132725500Y-90547844D01*
X132725500Y-90412279D01*
X132745185Y-90345240D01*
X132758620Y-90328566D01*
X132758447Y-90328416D01*
X132761344Y-90325072D01*
X132761347Y-90325070D01*
X132855567Y-90216336D01*
X132915338Y-90085459D01*
X132935023Y-90018420D01*
X132935024Y-90018416D01*
X132955500Y-89876000D01*
X132955500Y-89052155D01*
X134420000Y-89052155D01*
X134420000Y-89550000D01*
X136170000Y-89550000D01*
X136170000Y-88600000D01*
X134872155Y-88600000D01*
X134812627Y-88606401D01*
X134812620Y-88606403D01*
X134677913Y-88656645D01*
X134677906Y-88656649D01*
X134562812Y-88742809D01*
X134562809Y-88742812D01*
X134476649Y-88857906D01*
X134476645Y-88857913D01*
X134426403Y-88992620D01*
X134426401Y-88992627D01*
X134420000Y-89052155D01*
X132955500Y-89052155D01*
X132955500Y-88610830D01*
X132975185Y-88543791D01*
X133027989Y-88498036D01*
X133053141Y-88489664D01*
X133084967Y-88482741D01*
X133119094Y-88471382D01*
X133187497Y-88448616D01*
X133187501Y-88448613D01*
X133187504Y-88448613D01*
X133308543Y-88370825D01*
X133361347Y-88325070D01*
X133455567Y-88216336D01*
X133515338Y-88085459D01*
X133535023Y-88018420D01*
X133535024Y-88018416D01*
X133555500Y-87876000D01*
X133555500Y-85724000D01*
X133543947Y-85616544D01*
X133532741Y-85565033D01*
X133515636Y-85513641D01*
X133498616Y-85462502D01*
X133498613Y-85462496D01*
X133420828Y-85341462D01*
X133420825Y-85341457D01*
X133402918Y-85320791D01*
X133375076Y-85288659D01*
X133375072Y-85288656D01*
X133375070Y-85288653D01*
X133266336Y-85194433D01*
X133266333Y-85194431D01*
X133266331Y-85194430D01*
X133135465Y-85134664D01*
X133135460Y-85134662D01*
X133135459Y-85134662D01*
X133068420Y-85114977D01*
X133068422Y-85114977D01*
X133068417Y-85114976D01*
X133020944Y-85108150D01*
X132926000Y-85094500D01*
X132925998Y-85094500D01*
X131879500Y-85094500D01*
X131812461Y-85074815D01*
X131766706Y-85022011D01*
X131755500Y-84970500D01*
X131755500Y-81624500D01*
X131775185Y-81557461D01*
X131827989Y-81511706D01*
X131879500Y-81500500D01*
X132009643Y-81500500D01*
X132068490Y-81488794D01*
X132187944Y-81465033D01*
X132202936Y-81462051D01*
X132256265Y-81439961D01*
X132385014Y-81386632D01*
X132548882Y-81277139D01*
X132657594Y-81168427D01*
X134700000Y-81168427D01*
X134700000Y-81250000D01*
X135350000Y-81250000D01*
X135350000Y-80525000D01*
X135349999Y-80524999D01*
X135343436Y-80525000D01*
X135343417Y-80525001D01*
X135272897Y-80531408D01*
X135272892Y-80531409D01*
X135110603Y-80581981D01*
X134965122Y-80669927D01*
X134844927Y-80790122D01*
X134756980Y-80935604D01*
X134706409Y-81097893D01*
X134700000Y-81168427D01*
X132657594Y-81168427D01*
X132688239Y-81137782D01*
X132688240Y-81137779D01*
X132695306Y-81130714D01*
X132695308Y-81130710D01*
X136437821Y-77388198D01*
X136499142Y-77354715D01*
X136568834Y-77359699D01*
G37*
G04 #@! TD.AperFunction*
G04 #@! TA.AperFunction,Conductor*
G36*
X150815885Y-81519185D02*
G01*
X150836527Y-81535819D01*
X153251196Y-83950489D01*
X153284681Y-84011812D01*
X153279697Y-84081504D01*
X153266617Y-84107061D01*
X153190609Y-84220814D01*
X153190602Y-84220827D01*
X153130264Y-84366498D01*
X153130261Y-84366508D01*
X153099361Y-84521850D01*
X153090601Y-84538595D01*
X153086587Y-84557066D01*
X153067824Y-84582138D01*
X153066976Y-84583761D01*
X153065441Y-84585324D01*
X153062597Y-84588167D01*
X153001282Y-84621662D01*
X152974903Y-84624500D01*
X152958384Y-84624500D01*
X152939145Y-84626248D01*
X152887807Y-84630913D01*
X152725393Y-84681522D01*
X152579811Y-84769530D01*
X152459530Y-84889811D01*
X152371522Y-85035393D01*
X152320913Y-85197807D01*
X152314500Y-85268386D01*
X152314500Y-85599902D01*
X152294815Y-85666941D01*
X152278181Y-85687583D01*
X151876181Y-86089583D01*
X151814858Y-86123068D01*
X151745166Y-86118084D01*
X151689233Y-86076212D01*
X151664816Y-86010748D01*
X151664500Y-86001902D01*
X151664500Y-84303116D01*
X151664501Y-84303103D01*
X151664501Y-84135002D01*
X151664501Y-84135000D01*
X151623577Y-83982272D01*
X151586745Y-83918478D01*
X151586745Y-83918477D01*
X151544522Y-83845344D01*
X151544521Y-83845343D01*
X151544520Y-83845341D01*
X151432716Y-83733537D01*
X151432715Y-83733536D01*
X151428385Y-83729206D01*
X151428374Y-83729196D01*
X149410359Y-81711181D01*
X149376874Y-81649858D01*
X149381858Y-81580166D01*
X149423730Y-81524233D01*
X149489194Y-81499816D01*
X149498040Y-81499500D01*
X150748846Y-81499500D01*
X150815885Y-81519185D01*
G37*
G04 #@! TD.AperFunction*
G04 #@! TA.AperFunction,Conductor*
G36*
X138055703Y-78814460D02*
G01*
X138090682Y-78864840D01*
X138111302Y-78920127D01*
X138111306Y-78920134D01*
X138197552Y-79035343D01*
X138197555Y-79035346D01*
X138312764Y-79121592D01*
X138312771Y-79121596D01*
X138312774Y-79121597D01*
X138447617Y-79171890D01*
X138507227Y-79178299D01*
X138986852Y-79178298D01*
X139053891Y-79197982D01*
X139074533Y-79214617D01*
X142147735Y-82287819D01*
X142181220Y-82349142D01*
X142176236Y-82418834D01*
X142134364Y-82474767D01*
X142068900Y-82499184D01*
X142060054Y-82499500D01*
X141479766Y-82499500D01*
X141412727Y-82479815D01*
X141410875Y-82478602D01*
X141279185Y-82390609D01*
X141279172Y-82390602D01*
X141133501Y-82330264D01*
X141133489Y-82330261D01*
X140978845Y-82299500D01*
X140978842Y-82299500D01*
X140821158Y-82299500D01*
X140821155Y-82299500D01*
X140666510Y-82330261D01*
X140666498Y-82330264D01*
X140522136Y-82390061D01*
X140474684Y-82399500D01*
X138141715Y-82399500D01*
X138131392Y-82396468D01*
X138120705Y-82397707D01*
X138098452Y-82386796D01*
X138074676Y-82379815D01*
X138065976Y-82370873D01*
X138057970Y-82366948D01*
X138035598Y-82339650D01*
X138029924Y-82330264D01*
X138020181Y-82314147D01*
X138002346Y-82246595D01*
X138020181Y-82185852D01*
X138093478Y-82064606D01*
X138144086Y-81902196D01*
X138150500Y-81831616D01*
X138150500Y-81168384D01*
X138144086Y-81097804D01*
X138093478Y-80935394D01*
X138005472Y-80789815D01*
X138005470Y-80789813D01*
X138005469Y-80789811D01*
X137886819Y-80671161D01*
X137853334Y-80609838D01*
X137850500Y-80583480D01*
X137850500Y-78908173D01*
X137870185Y-78841134D01*
X137922989Y-78795379D01*
X137992147Y-78785435D01*
X138055703Y-78814460D01*
G37*
G04 #@! TD.AperFunction*
G04 #@! TA.AperFunction,Conductor*
G36*
X157001204Y-71609382D02*
G01*
X157031927Y-71616527D01*
X157034479Y-71619153D01*
X157037992Y-71620185D01*
X157058640Y-71644014D01*
X157080622Y-71666633D01*
X157081349Y-71670221D01*
X157083747Y-71672989D01*
X157088235Y-71704204D01*
X157094498Y-71735110D01*
X157093169Y-71738521D01*
X157093691Y-71742147D01*
X157080587Y-71770839D01*
X157069149Y-71800220D01*
X157065590Y-71803678D01*
X157064666Y-71805703D01*
X157043839Y-71824818D01*
X156982120Y-71869659D01*
X156815117Y-72036662D01*
X156815117Y-72036663D01*
X156815115Y-72036665D01*
X156761625Y-72110288D01*
X156676289Y-72227741D01*
X156569065Y-72438178D01*
X156496078Y-72662806D01*
X156459132Y-72896077D01*
X156459132Y-73132272D01*
X156496078Y-73365543D01*
X156569065Y-73590171D01*
X156649335Y-73747708D01*
X156676289Y-73800608D01*
X156815115Y-73991685D01*
X156982122Y-74158692D01*
X157173199Y-74297518D01*
X157272623Y-74348177D01*
X157383635Y-74404741D01*
X157383637Y-74404741D01*
X157383640Y-74404743D01*
X157504044Y-74443864D01*
X157608263Y-74477728D01*
X157841535Y-74514675D01*
X157841540Y-74514675D01*
X158077729Y-74514675D01*
X158311000Y-74477728D01*
X158336677Y-74469385D01*
X158535624Y-74404743D01*
X158746065Y-74297518D01*
X158937142Y-74158692D01*
X159104149Y-73991685D01*
X159242975Y-73800608D01*
X159350200Y-73590167D01*
X159423185Y-73365543D01*
X159424343Y-73358230D01*
X159460132Y-73132272D01*
X159460132Y-73079440D01*
X159479817Y-73012401D01*
X159532621Y-72966646D01*
X159601779Y-72956702D01*
X159665335Y-72985727D01*
X159671813Y-72991759D01*
X162578242Y-75898188D01*
X162611727Y-75959511D01*
X162606743Y-76029203D01*
X162564871Y-76085136D01*
X162499407Y-76109553D01*
X162490561Y-76109869D01*
X162437729Y-76109869D01*
X162204457Y-76146815D01*
X161979829Y-76219802D01*
X161769392Y-76327026D01*
X161660376Y-76406231D01*
X161578316Y-76465852D01*
X161578314Y-76465854D01*
X161578313Y-76465854D01*
X161411311Y-76632856D01*
X161411311Y-76632857D01*
X161411309Y-76632859D01*
X161367738Y-76692829D01*
X161272483Y-76823935D01*
X161165259Y-77034372D01*
X161092272Y-77259000D01*
X161055326Y-77492271D01*
X161055326Y-77728466D01*
X161092272Y-77961737D01*
X161165259Y-78186365D01*
X161217915Y-78289707D01*
X161272483Y-78396802D01*
X161411309Y-78587879D01*
X161578316Y-78754886D01*
X161769393Y-78893712D01*
X161848712Y-78934127D01*
X161979829Y-79000935D01*
X161979831Y-79000935D01*
X161979834Y-79000937D01*
X162085731Y-79035345D01*
X162204457Y-79073922D01*
X162437729Y-79110869D01*
X162437734Y-79110869D01*
X162673923Y-79110869D01*
X162907194Y-79073922D01*
X163131818Y-79000937D01*
X163342259Y-78893712D01*
X163533336Y-78754886D01*
X163700343Y-78587879D01*
X163839169Y-78396802D01*
X163946394Y-78186361D01*
X164019379Y-77961737D01*
X164032140Y-77881167D01*
X164056326Y-77728466D01*
X164056326Y-77675634D01*
X164076011Y-77608595D01*
X164128815Y-77562840D01*
X164197973Y-77552896D01*
X164261529Y-77581921D01*
X164268007Y-77587953D01*
X165614181Y-78934127D01*
X165647666Y-78995450D01*
X165650500Y-79021808D01*
X165650500Y-80875500D01*
X165630815Y-80942539D01*
X165578011Y-80988294D01*
X165526500Y-80999500D01*
X164202129Y-80999500D01*
X164202123Y-80999501D01*
X164142516Y-81005908D01*
X164007671Y-81056202D01*
X164007664Y-81056206D01*
X163892455Y-81142452D01*
X163892452Y-81142455D01*
X163806206Y-81257664D01*
X163806202Y-81257671D01*
X163755908Y-81392517D01*
X163749501Y-81452116D01*
X163749500Y-81452135D01*
X163749500Y-81625500D01*
X163729815Y-81692539D01*
X163677011Y-81738294D01*
X163625500Y-81749500D01*
X154350097Y-81749500D01*
X154283058Y-81729815D01*
X154262416Y-81713181D01*
X149889498Y-77340263D01*
X149886589Y-77334936D01*
X149881562Y-77331534D01*
X149870037Y-77304624D01*
X149856013Y-77278940D01*
X149856445Y-77272886D01*
X149854056Y-77267306D01*
X149858909Y-77238441D01*
X149860997Y-77209248D01*
X149864634Y-77204388D01*
X149865641Y-77198404D01*
X149885329Y-77176744D01*
X149902869Y-77153315D01*
X149909598Y-77150045D01*
X149912638Y-77146702D01*
X149945077Y-77132810D01*
X149952664Y-77130777D01*
X150022511Y-77132438D01*
X150032205Y-77135988D01*
X150076171Y-77154200D01*
X150203338Y-77188275D01*
X150318629Y-77203453D01*
X150325727Y-77204388D01*
X150334174Y-77205500D01*
X150334181Y-77205500D01*
X150900000Y-77205500D01*
X150971940Y-77200355D01*
X151009259Y-77189396D01*
X151061841Y-77185636D01*
X151200000Y-77205500D01*
X151200003Y-77205500D01*
X151765819Y-77205500D01*
X151765826Y-77205500D01*
X151896662Y-77188275D01*
X152023829Y-77154200D01*
X152145743Y-77103701D01*
X152259757Y-77037875D01*
X152364449Y-76957541D01*
X152457541Y-76864449D01*
X152537875Y-76759757D01*
X152603701Y-76645743D01*
X152654200Y-76523829D01*
X152688275Y-76396662D01*
X152691730Y-76370420D01*
X157470479Y-76370420D01*
X158458833Y-76370420D01*
X158437063Y-76408128D01*
X158399581Y-76548011D01*
X158399581Y-76692829D01*
X158437063Y-76832712D01*
X158458833Y-76870420D01*
X157470479Y-76870420D01*
X157486515Y-76971667D01*
X157559478Y-77196222D01*
X157666666Y-77406591D01*
X157805447Y-77597606D01*
X157972394Y-77764553D01*
X158163409Y-77903334D01*
X158373776Y-78010522D01*
X158598325Y-78083483D01*
X158598331Y-78083485D01*
X158699581Y-78099521D01*
X158699581Y-77111167D01*
X158737289Y-77132938D01*
X158877172Y-77170420D01*
X159021990Y-77170420D01*
X159161873Y-77132938D01*
X159199581Y-77111167D01*
X159199581Y-78099520D01*
X159300830Y-78083485D01*
X159300836Y-78083483D01*
X159525385Y-78010522D01*
X159735752Y-77903334D01*
X159926767Y-77764553D01*
X160093714Y-77597606D01*
X160232495Y-77406591D01*
X160339683Y-77196222D01*
X160412646Y-76971667D01*
X160428683Y-76870420D01*
X159440329Y-76870420D01*
X159462099Y-76832712D01*
X159499581Y-76692829D01*
X159499581Y-76548011D01*
X159462099Y-76408128D01*
X159440329Y-76370420D01*
X160428683Y-76370420D01*
X160412646Y-76269172D01*
X160339683Y-76044617D01*
X160232495Y-75834248D01*
X160093714Y-75643233D01*
X159926767Y-75476286D01*
X159735752Y-75337505D01*
X159525383Y-75230317D01*
X159300828Y-75157354D01*
X159199581Y-75141317D01*
X159199581Y-76129672D01*
X159161873Y-76107902D01*
X159021990Y-76070420D01*
X158877172Y-76070420D01*
X158737289Y-76107902D01*
X158699581Y-76129672D01*
X158699581Y-75141317D01*
X158598333Y-75157354D01*
X158373778Y-75230317D01*
X158163409Y-75337505D01*
X157972394Y-75476286D01*
X157805447Y-75643233D01*
X157666666Y-75834248D01*
X157559478Y-76044617D01*
X157486515Y-76269172D01*
X157470479Y-76370420D01*
X152691730Y-76370420D01*
X152705500Y-76265826D01*
X152705500Y-75634174D01*
X152688275Y-75503338D01*
X152654200Y-75376171D01*
X152603701Y-75254257D01*
X152603698Y-75254252D01*
X152603697Y-75254249D01*
X152603696Y-75254248D01*
X152537879Y-75140250D01*
X152537875Y-75140243D01*
X152532996Y-75133885D01*
X152457544Y-75035555D01*
X152457541Y-75035551D01*
X152364449Y-74942459D01*
X152364447Y-74942457D01*
X152364443Y-74942454D01*
X152349010Y-74930611D01*
X152307809Y-74874182D01*
X152300500Y-74832238D01*
X152300500Y-74567761D01*
X152320185Y-74500722D01*
X152349014Y-74469385D01*
X152364446Y-74457543D01*
X152364449Y-74457541D01*
X152457541Y-74364449D01*
X152537875Y-74259757D01*
X152603701Y-74145743D01*
X152654200Y-74023829D01*
X152688275Y-73896662D01*
X152705500Y-73765826D01*
X152705500Y-73134174D01*
X152688275Y-73003338D01*
X152654200Y-72876171D01*
X152603701Y-72754257D01*
X152603698Y-72754252D01*
X152603697Y-72754249D01*
X152603696Y-72754248D01*
X152537879Y-72640250D01*
X152537875Y-72640243D01*
X152484761Y-72571025D01*
X152457544Y-72535555D01*
X152457541Y-72535551D01*
X152364449Y-72442459D01*
X152364447Y-72442457D01*
X152364443Y-72442454D01*
X152349010Y-72430611D01*
X152307809Y-72374182D01*
X152300500Y-72332238D01*
X152300500Y-72067761D01*
X152320185Y-72000722D01*
X152349014Y-71969385D01*
X152364446Y-71957543D01*
X152364449Y-71957541D01*
X152457541Y-71864449D01*
X152537875Y-71759757D01*
X152594026Y-71662499D01*
X152644593Y-71614285D01*
X152701413Y-71600500D01*
X156970953Y-71600500D01*
X157001204Y-71609382D01*
G37*
G04 #@! TD.AperFunction*
G04 #@! TA.AperFunction,Conductor*
G36*
X148666943Y-77820186D02*
G01*
X148687585Y-77836820D01*
X150937584Y-80086819D01*
X150971069Y-80148142D01*
X150966085Y-80217834D01*
X150924213Y-80273767D01*
X150858749Y-80298184D01*
X150849903Y-80298500D01*
X146231989Y-80298500D01*
X146164950Y-80278815D01*
X146119195Y-80226011D01*
X146109251Y-80156853D01*
X146133330Y-80102198D01*
X146132268Y-80101489D01*
X146223253Y-79965320D01*
X146223253Y-79965319D01*
X146223257Y-79965314D01*
X146283600Y-79819632D01*
X146288130Y-79796854D01*
X146307336Y-79700308D01*
X146339721Y-79638397D01*
X146400437Y-79603823D01*
X146428953Y-79600500D01*
X146578844Y-79600500D01*
X146578845Y-79600499D01*
X146733497Y-79569737D01*
X146879179Y-79509394D01*
X147010289Y-79421789D01*
X147121789Y-79310289D01*
X147209394Y-79179179D01*
X147269737Y-79033497D01*
X147300500Y-78878842D01*
X147300500Y-78721158D01*
X147300500Y-78721155D01*
X147300499Y-78721153D01*
X147281337Y-78624819D01*
X147269737Y-78566503D01*
X147269735Y-78566498D01*
X147209397Y-78420827D01*
X147209390Y-78420814D01*
X147121789Y-78289711D01*
X147121786Y-78289707D01*
X147038859Y-78206780D01*
X147019152Y-78181098D01*
X146980520Y-78114184D01*
X146878518Y-78012182D01*
X146845033Y-77950859D01*
X146850017Y-77881167D01*
X146891889Y-77825234D01*
X146957353Y-77800817D01*
X146966199Y-77800501D01*
X148599904Y-77800501D01*
X148666943Y-77820186D01*
G37*
G04 #@! TD.AperFunction*
G04 #@! TA.AperFunction,Conductor*
G36*
X141216803Y-74457484D02*
G01*
X141223281Y-74463516D01*
X143678478Y-76918713D01*
X143678480Y-76918716D01*
X143790284Y-77030520D01*
X143809006Y-77041329D01*
X143819520Y-77051232D01*
X143854824Y-77111526D01*
X143858500Y-77141496D01*
X143858500Y-77425670D01*
X143858501Y-77425677D01*
X143864909Y-77485288D01*
X143866692Y-77492832D01*
X143864395Y-77493374D01*
X143868546Y-77551351D01*
X143866090Y-77559717D01*
X143864908Y-77564717D01*
X143858501Y-77624317D01*
X143858500Y-77624336D01*
X143858500Y-78075670D01*
X143858501Y-78075676D01*
X143864909Y-78135284D01*
X143866692Y-78142829D01*
X143864399Y-78143370D01*
X143868541Y-78201373D01*
X143866086Y-78209732D01*
X143864908Y-78214718D01*
X143858501Y-78274318D01*
X143858501Y-78274326D01*
X143858500Y-78274338D01*
X143858500Y-78709903D01*
X143838815Y-78776942D01*
X143786011Y-78822697D01*
X143716853Y-78832641D01*
X143653297Y-78803616D01*
X143646829Y-78797593D01*
X141037589Y-76188354D01*
X141037588Y-76188352D01*
X140918717Y-76069481D01*
X140918709Y-76069475D01*
X140823755Y-76014654D01*
X140823753Y-76014653D01*
X140781790Y-75990425D01*
X140781789Y-75990424D01*
X140769263Y-75987067D01*
X140629057Y-75949499D01*
X140511829Y-75949499D01*
X140490478Y-75943229D01*
X140468286Y-75941602D01*
X140457606Y-75933577D01*
X140444790Y-75929814D01*
X140430219Y-75912998D01*
X140412428Y-75899630D01*
X140407781Y-75887104D01*
X140399035Y-75877010D01*
X140395868Y-75854986D01*
X140388129Y-75834122D01*
X140390992Y-75821073D01*
X140389091Y-75807852D01*
X140398334Y-75787610D01*
X140403104Y-75765876D01*
X140414134Y-75753014D01*
X140418116Y-75744296D01*
X140424306Y-75737660D01*
X140430859Y-75731129D01*
X140431916Y-75730520D01*
X140543720Y-75618716D01*
X140543721Y-75618713D01*
X140769606Y-75392828D01*
X140769611Y-75392824D01*
X140779814Y-75382620D01*
X140779816Y-75382620D01*
X140891620Y-75270816D01*
X140955844Y-75159576D01*
X140970677Y-75133885D01*
X141011601Y-74981157D01*
X141011601Y-74823043D01*
X141011601Y-74815448D01*
X141011600Y-74815430D01*
X141011600Y-74551197D01*
X141031285Y-74484158D01*
X141084089Y-74438403D01*
X141153247Y-74428459D01*
X141216803Y-74457484D01*
G37*
G04 #@! TD.AperFunction*
G04 #@! TA.AperFunction,Conductor*
G36*
X159805798Y-68804047D02*
G01*
X159818343Y-68802970D01*
X159838688Y-68813705D01*
X159860756Y-68820185D01*
X159868999Y-68829699D01*
X159880138Y-68835576D01*
X159891450Y-68855608D01*
X159906511Y-68872989D01*
X159908302Y-68885449D01*
X159914495Y-68896415D01*
X159913181Y-68919380D01*
X159916455Y-68942147D01*
X159911128Y-68955270D01*
X159910505Y-68966171D01*
X159894035Y-68997386D01*
X159858697Y-69046023D01*
X159751509Y-69256392D01*
X159678546Y-69480947D01*
X159662510Y-69582195D01*
X160650864Y-69582195D01*
X160629094Y-69619903D01*
X160591612Y-69759786D01*
X160591612Y-69904604D01*
X160629094Y-70044487D01*
X160650864Y-70082195D01*
X159662510Y-70082195D01*
X159678546Y-70183442D01*
X159751509Y-70407997D01*
X159858697Y-70618366D01*
X159997478Y-70809381D01*
X160164425Y-70976328D01*
X160355440Y-71115109D01*
X160565807Y-71222297D01*
X160790356Y-71295258D01*
X160790362Y-71295260D01*
X160891612Y-71311296D01*
X160891612Y-70322942D01*
X160929320Y-70344713D01*
X161069203Y-70382195D01*
X161214021Y-70382195D01*
X161353904Y-70344713D01*
X161391612Y-70322942D01*
X161391612Y-71311295D01*
X161492861Y-71295260D01*
X161492867Y-71295258D01*
X161717416Y-71222297D01*
X161927783Y-71115109D01*
X162118798Y-70976328D01*
X162285745Y-70809381D01*
X162424526Y-70618366D01*
X162531714Y-70407997D01*
X162604677Y-70183442D01*
X162620714Y-70082195D01*
X161632360Y-70082195D01*
X161654130Y-70044487D01*
X161691612Y-69904604D01*
X161691612Y-69759786D01*
X161654130Y-69619903D01*
X161632360Y-69582195D01*
X162620714Y-69582195D01*
X162627414Y-69574350D01*
X162685921Y-69536156D01*
X162755789Y-69535657D01*
X162809386Y-69567200D01*
X166002800Y-72760614D01*
X166036285Y-72821937D01*
X166031301Y-72891629D01*
X165995652Y-72942584D01*
X165987806Y-72949285D01*
X165987806Y-73937641D01*
X165950098Y-73915871D01*
X165810215Y-73878389D01*
X165665397Y-73878389D01*
X165525514Y-73915871D01*
X165487806Y-73937641D01*
X165487806Y-72949286D01*
X165386558Y-72965323D01*
X165162003Y-73038286D01*
X164951634Y-73145474D01*
X164760619Y-73284255D01*
X164593672Y-73451202D01*
X164454891Y-73642217D01*
X164347703Y-73852586D01*
X164274740Y-74077141D01*
X164258704Y-74178389D01*
X165247058Y-74178389D01*
X165225288Y-74216097D01*
X165187806Y-74355980D01*
X165187806Y-74500798D01*
X165225288Y-74640681D01*
X165247058Y-74678389D01*
X164258704Y-74678389D01*
X164274740Y-74779636D01*
X164347703Y-75004191D01*
X164454891Y-75214560D01*
X164593672Y-75405575D01*
X164760619Y-75572522D01*
X164951634Y-75711303D01*
X165162001Y-75818491D01*
X165386550Y-75891452D01*
X165386556Y-75891454D01*
X165487806Y-75907490D01*
X165487806Y-74919136D01*
X165525514Y-74940907D01*
X165665397Y-74978389D01*
X165810215Y-74978389D01*
X165950098Y-74940907D01*
X165987806Y-74919136D01*
X165987806Y-75907489D01*
X166089055Y-75891454D01*
X166089061Y-75891452D01*
X166313610Y-75818491D01*
X166523978Y-75711303D01*
X166552613Y-75690498D01*
X166618419Y-75667017D01*
X166686473Y-75682841D01*
X166735169Y-75732946D01*
X166749500Y-75790815D01*
X166749500Y-77930191D01*
X166729815Y-77997230D01*
X166677011Y-78042985D01*
X166607853Y-78052929D01*
X166544297Y-78023904D01*
X166537819Y-78017872D01*
X158964673Y-70444726D01*
X158964669Y-70444723D01*
X158858127Y-70373535D01*
X158739744Y-70324499D01*
X158739738Y-70324497D01*
X158614071Y-70299500D01*
X158614069Y-70299500D01*
X152701413Y-70299500D01*
X152691559Y-70296606D01*
X152681367Y-70297869D01*
X152658602Y-70286929D01*
X152634374Y-70279815D01*
X152625974Y-70271249D01*
X152618392Y-70267606D01*
X152599450Y-70244202D01*
X152595805Y-70240485D01*
X152594909Y-70239030D01*
X152537875Y-70140243D01*
X152512881Y-70107671D01*
X152457544Y-70035555D01*
X152457541Y-70035551D01*
X152386819Y-69964829D01*
X152353334Y-69903506D01*
X152350500Y-69877148D01*
X152350500Y-69835928D01*
X152325502Y-69710261D01*
X152325501Y-69710260D01*
X152325501Y-69710256D01*
X152276465Y-69591873D01*
X152264212Y-69573535D01*
X152205276Y-69485330D01*
X152205274Y-69485327D01*
X152205271Y-69485324D01*
X151732127Y-69012181D01*
X151698642Y-68950858D01*
X151703626Y-68881167D01*
X151745497Y-68825233D01*
X151810962Y-68800816D01*
X151819808Y-68800500D01*
X159793717Y-68800500D01*
X159805798Y-68804047D01*
G37*
G04 #@! TD.AperFunction*
G04 #@! TA.AperFunction,Conductor*
G36*
X149317162Y-72984586D02*
G01*
X149373095Y-73026458D01*
X149397512Y-73091922D01*
X149396767Y-73116953D01*
X149394501Y-73134164D01*
X149394500Y-73134180D01*
X149394500Y-73554902D01*
X149374815Y-73621941D01*
X149358181Y-73642583D01*
X147737583Y-75263182D01*
X147676260Y-75296667D01*
X147649902Y-75299501D01*
X147199096Y-75299501D01*
X147132057Y-75279816D01*
X147086302Y-75227012D01*
X147076358Y-75157854D01*
X147105383Y-75094298D01*
X147111415Y-75087820D01*
X148146507Y-74052728D01*
X149186147Y-73013086D01*
X149247470Y-72979602D01*
X149317162Y-72984586D01*
G37*
G04 #@! TD.AperFunction*
G04 #@! TA.AperFunction,Conductor*
G36*
X149600046Y-69870185D02*
G01*
X149645801Y-69922989D01*
X149655745Y-69992147D01*
X149631382Y-70049986D01*
X149620428Y-70064261D01*
X149562132Y-70140232D01*
X149562120Y-70140250D01*
X149496303Y-70254248D01*
X149496302Y-70254249D01*
X149445800Y-70376170D01*
X149411724Y-70503341D01*
X149394500Y-70634166D01*
X149394500Y-71054902D01*
X149374815Y-71121941D01*
X149358181Y-71142583D01*
X146301630Y-74199132D01*
X146240307Y-74232617D01*
X146170615Y-74227633D01*
X146114682Y-74185762D01*
X146024286Y-74065010D01*
X145909193Y-73978850D01*
X145909186Y-73978846D01*
X145774479Y-73928604D01*
X145774472Y-73928602D01*
X145714944Y-73922201D01*
X145190850Y-73922201D01*
X145190850Y-74447700D01*
X145188299Y-74456385D01*
X145189588Y-74465347D01*
X145178609Y-74489387D01*
X145171165Y-74514739D01*
X145164324Y-74520666D01*
X145160563Y-74528903D01*
X145138328Y-74543192D01*
X145118361Y-74560494D01*
X145107846Y-74562781D01*
X145101785Y-74566677D01*
X145066850Y-74571700D01*
X144959250Y-74571700D01*
X144892211Y-74552015D01*
X144846456Y-74499211D01*
X144835250Y-74447700D01*
X144835250Y-73922201D01*
X144311155Y-73922201D01*
X144251627Y-73928602D01*
X144251620Y-73928604D01*
X144116913Y-73978846D01*
X144116906Y-73978850D01*
X144001806Y-74065015D01*
X144000198Y-74066623D01*
X143998205Y-74067710D01*
X143994712Y-74070326D01*
X143994335Y-74069823D01*
X143938871Y-74100101D01*
X143869180Y-74095107D01*
X143824847Y-74066612D01*
X143447919Y-73689684D01*
X143433215Y-73662756D01*
X143416623Y-73636938D01*
X143415731Y-73630737D01*
X143414434Y-73628361D01*
X143411600Y-73602003D01*
X143411600Y-73358230D01*
X143431285Y-73291191D01*
X143436333Y-73283919D01*
X143504896Y-73192331D01*
X143555191Y-73057483D01*
X143561600Y-72997873D01*
X143561599Y-72519855D01*
X143581283Y-72452817D01*
X143634087Y-72407062D01*
X143703246Y-72397118D01*
X143709780Y-72398236D01*
X143721158Y-72400500D01*
X143878844Y-72400500D01*
X143878845Y-72400499D01*
X144033497Y-72369737D01*
X144179179Y-72309394D01*
X144310289Y-72221789D01*
X144421789Y-72110289D01*
X144509394Y-71979179D01*
X144569737Y-71833497D01*
X144600500Y-71678842D01*
X144600500Y-71521158D01*
X144600500Y-71521155D01*
X144600499Y-71521153D01*
X144569738Y-71366510D01*
X144569737Y-71366503D01*
X144546870Y-71311296D01*
X144509397Y-71220827D01*
X144509390Y-71220814D01*
X144421789Y-71089711D01*
X144421786Y-71089707D01*
X144310292Y-70978213D01*
X144310288Y-70978210D01*
X144179185Y-70890609D01*
X144179172Y-70890602D01*
X144033501Y-70830264D01*
X144033489Y-70830261D01*
X143878845Y-70799500D01*
X143878842Y-70799500D01*
X143721158Y-70799500D01*
X143721155Y-70799500D01*
X143566510Y-70830261D01*
X143566498Y-70830264D01*
X143420827Y-70890602D01*
X143420814Y-70890609D01*
X143289125Y-70978602D01*
X143222447Y-70999480D01*
X143220234Y-70999500D01*
X142031962Y-70999500D01*
X141964923Y-70979815D01*
X141944281Y-70963181D01*
X141931100Y-70950000D01*
X141335100Y-70950000D01*
X141326414Y-70947449D01*
X141317453Y-70948738D01*
X141293412Y-70937759D01*
X141268061Y-70930315D01*
X141262133Y-70923474D01*
X141253897Y-70919713D01*
X141239607Y-70897478D01*
X141222306Y-70877511D01*
X141220018Y-70866996D01*
X141216123Y-70860935D01*
X141211100Y-70826000D01*
X141211100Y-70674000D01*
X141230785Y-70606961D01*
X141283589Y-70561206D01*
X141335100Y-70550000D01*
X141931100Y-70550000D01*
X141944781Y-70536319D01*
X142006104Y-70502834D01*
X142032462Y-70500000D01*
X143561100Y-70500000D01*
X143561100Y-70302172D01*
X143561099Y-70302155D01*
X143554698Y-70242627D01*
X143554696Y-70242620D01*
X143504454Y-70107913D01*
X143504452Y-70107910D01*
X143460211Y-70048812D01*
X143435793Y-69983348D01*
X143450644Y-69915074D01*
X143500049Y-69865669D01*
X143559477Y-69850500D01*
X149533007Y-69850500D01*
X149600046Y-69870185D01*
G37*
G04 #@! TD.AperFunction*
M02*
