%TF.GenerationSoftware,KiCad,Pcbnew,9.0.1*%
%TF.CreationDate,2025-05-14T09:31:43-05:00*%
%TF.ProjectId,Incipit11,496e6369-7069-4743-9131-2e6b69636164,A*%
%TF.SameCoordinates,Original*%
%TF.FileFunction,Drillmap*%
%TF.FilePolarity,Positive*%
%FSLAX45Y45*%
G04 Gerber Fmt 4.5, Leading zero omitted, Abs format (unit mm)*
G04 Created by KiCad (PCBNEW 9.0.1) date 2025-05-14 09:31:43*
%MOMM*%
%LPD*%
G01*
G04 APERTURE LIST*
%ADD10C,0.050000*%
%ADD11C,0.200000*%
G04 APERTURE END LIST*
D10*
X16225000Y-6830000D02*
X16725000Y-7330000D01*
X16175000Y-11130000D02*
X12975000Y-11130000D01*
X12975000Y-11130000D02*
X12925000Y-11130000D01*
X16725000Y-10630000D02*
X16725000Y-7330000D01*
X12425000Y-10630000D02*
X12425000Y-7330000D01*
X16725000Y-10630000D02*
X16225000Y-11130000D01*
X12925000Y-6830000D02*
X12425000Y-7330000D01*
X16175000Y-11130000D02*
X16225000Y-11130000D01*
X16225000Y-6830000D02*
X12925000Y-6830000D01*
X12425000Y-10630000D02*
X12925000Y-11130000D01*
D11*
X12683277Y-11443984D02*
X12683277Y-11243984D01*
X12683277Y-11243984D02*
X12730896Y-11243984D01*
X12730896Y-11243984D02*
X12759467Y-11253508D01*
X12759467Y-11253508D02*
X12778515Y-11272555D01*
X12778515Y-11272555D02*
X12788039Y-11291603D01*
X12788039Y-11291603D02*
X12797562Y-11329698D01*
X12797562Y-11329698D02*
X12797562Y-11358269D01*
X12797562Y-11358269D02*
X12788039Y-11396365D01*
X12788039Y-11396365D02*
X12778515Y-11415412D01*
X12778515Y-11415412D02*
X12759467Y-11434460D01*
X12759467Y-11434460D02*
X12730896Y-11443984D01*
X12730896Y-11443984D02*
X12683277Y-11443984D01*
X12883277Y-11443984D02*
X12883277Y-11310650D01*
X12883277Y-11348746D02*
X12892801Y-11329698D01*
X12892801Y-11329698D02*
X12902324Y-11320174D01*
X12902324Y-11320174D02*
X12921372Y-11310650D01*
X12921372Y-11310650D02*
X12940420Y-11310650D01*
X13007086Y-11443984D02*
X13007086Y-11310650D01*
X13007086Y-11243984D02*
X12997562Y-11253508D01*
X12997562Y-11253508D02*
X13007086Y-11263031D01*
X13007086Y-11263031D02*
X13016610Y-11253508D01*
X13016610Y-11253508D02*
X13007086Y-11243984D01*
X13007086Y-11243984D02*
X13007086Y-11263031D01*
X13130896Y-11443984D02*
X13111848Y-11434460D01*
X13111848Y-11434460D02*
X13102324Y-11415412D01*
X13102324Y-11415412D02*
X13102324Y-11243984D01*
X13235658Y-11443984D02*
X13216610Y-11434460D01*
X13216610Y-11434460D02*
X13207086Y-11415412D01*
X13207086Y-11415412D02*
X13207086Y-11243984D01*
X13464229Y-11443984D02*
X13464229Y-11243984D01*
X13464229Y-11243984D02*
X13530896Y-11386841D01*
X13530896Y-11386841D02*
X13597562Y-11243984D01*
X13597562Y-11243984D02*
X13597562Y-11443984D01*
X13778515Y-11443984D02*
X13778515Y-11339222D01*
X13778515Y-11339222D02*
X13768991Y-11320174D01*
X13768991Y-11320174D02*
X13749943Y-11310650D01*
X13749943Y-11310650D02*
X13711848Y-11310650D01*
X13711848Y-11310650D02*
X13692801Y-11320174D01*
X13778515Y-11434460D02*
X13759467Y-11443984D01*
X13759467Y-11443984D02*
X13711848Y-11443984D01*
X13711848Y-11443984D02*
X13692801Y-11434460D01*
X13692801Y-11434460D02*
X13683277Y-11415412D01*
X13683277Y-11415412D02*
X13683277Y-11396365D01*
X13683277Y-11396365D02*
X13692801Y-11377317D01*
X13692801Y-11377317D02*
X13711848Y-11367793D01*
X13711848Y-11367793D02*
X13759467Y-11367793D01*
X13759467Y-11367793D02*
X13778515Y-11358269D01*
X13873753Y-11310650D02*
X13873753Y-11510650D01*
X13873753Y-11320174D02*
X13892801Y-11310650D01*
X13892801Y-11310650D02*
X13930896Y-11310650D01*
X13930896Y-11310650D02*
X13949943Y-11320174D01*
X13949943Y-11320174D02*
X13959467Y-11329698D01*
X13959467Y-11329698D02*
X13968991Y-11348746D01*
X13968991Y-11348746D02*
X13968991Y-11405888D01*
X13968991Y-11405888D02*
X13959467Y-11424936D01*
X13959467Y-11424936D02*
X13949943Y-11434460D01*
X13949943Y-11434460D02*
X13930896Y-11443984D01*
X13930896Y-11443984D02*
X13892801Y-11443984D01*
X13892801Y-11443984D02*
X13873753Y-11434460D01*
X14054705Y-11424936D02*
X14064229Y-11434460D01*
X14064229Y-11434460D02*
X14054705Y-11443984D01*
X14054705Y-11443984D02*
X14045182Y-11434460D01*
X14045182Y-11434460D02*
X14054705Y-11424936D01*
X14054705Y-11424936D02*
X14054705Y-11443984D01*
X14054705Y-11320174D02*
X14064229Y-11329698D01*
X14064229Y-11329698D02*
X14054705Y-11339222D01*
X14054705Y-11339222D02*
X14045182Y-11329698D01*
X14045182Y-11329698D02*
X14054705Y-11320174D01*
X14054705Y-11320174D02*
X14054705Y-11339222D01*
M02*
