G04 #@! TF.GenerationSoftware,KiCad,Pcbnew,9.0.1*
G04 #@! TF.CreationDate,2025-05-14T09:26:50-05:00*
G04 #@! TF.ProjectId,Incipit11,496e6369-7069-4743-9131-2e6b69636164,A*
G04 #@! TF.SameCoordinates,Original*
G04 #@! TF.FileFunction,Soldermask,Top*
G04 #@! TF.FilePolarity,Negative*
%FSLAX46Y46*%
G04 Gerber Fmt 4.6, Leading zero omitted, Abs format (unit mm)*
G04 Created by KiCad (PCBNEW 9.0.1) date 2025-05-14 09:26:50*
%MOMM*%
%LPD*%
G01*
G04 APERTURE LIST*
G04 Aperture macros list*
%AMRoundRect*
0 Rectangle with rounded corners*
0 $1 Rounding radius*
0 $2 $3 $4 $5 $6 $7 $8 $9 X,Y pos of 4 corners*
0 Add a 4 corners polygon primitive as box body*
4,1,4,$2,$3,$4,$5,$6,$7,$8,$9,$2,$3,0*
0 Add four circle primitives for the rounded corners*
1,1,$1+$1,$2,$3*
1,1,$1+$1,$4,$5*
1,1,$1+$1,$6,$7*
1,1,$1+$1,$8,$9*
0 Add four rect primitives between the rounded corners*
20,1,$1+$1,$2,$3,$4,$5,0*
20,1,$1+$1,$4,$5,$6,$7,0*
20,1,$1+$1,$6,$7,$8,$9,0*
20,1,$1+$1,$8,$9,$2,$3,0*%
%AMFreePoly0*
4,1,23,0.500000,-0.750000,0.000000,-0.750000,0.000000,-0.745722,-0.065263,-0.745722,-0.191342,-0.711940,-0.304381,-0.646677,-0.396677,-0.554381,-0.461940,-0.441342,-0.495722,-0.315263,-0.495722,-0.250000,-0.500000,-0.250000,-0.500000,0.250000,-0.495722,0.250000,-0.495722,0.315263,-0.461940,0.441342,-0.396677,0.554381,-0.304381,0.646677,-0.191342,0.711940,-0.065263,0.745722,0.000000,0.745722,
0.000000,0.750000,0.500000,0.750000,0.500000,-0.750000,0.500000,-0.750000,$1*%
%AMFreePoly1*
4,1,23,0.000000,0.745722,0.065263,0.745722,0.191342,0.711940,0.304381,0.646677,0.396677,0.554381,0.461940,0.441342,0.495722,0.315263,0.495722,0.250000,0.500000,0.250000,0.500000,-0.250000,0.495722,-0.250000,0.495722,-0.315263,0.461940,-0.441342,0.396677,-0.554381,0.304381,-0.646677,0.191342,-0.711940,0.065263,-0.745722,0.000000,-0.745722,0.000000,-0.750000,-0.500000,-0.750000,
-0.500000,0.750000,0.000000,0.750000,0.000000,0.745722,0.000000,0.745722,$1*%
G04 Aperture macros list end*
%ADD10RoundRect,0.225000X-0.375000X0.225000X-0.375000X-0.225000X0.375000X-0.225000X0.375000X0.225000X0*%
%ADD11R,1.900000X1.600000*%
%ADD12RoundRect,0.200000X-0.275000X0.200000X-0.275000X-0.200000X0.275000X-0.200000X0.275000X0.200000X0*%
%ADD13RoundRect,0.200000X0.200000X0.275000X-0.200000X0.275000X-0.200000X-0.275000X0.200000X-0.275000X0*%
%ADD14C,1.650000*%
%ADD15RoundRect,0.250000X-1.450000X0.312500X-1.450000X-0.312500X1.450000X-0.312500X1.450000X0.312500X0*%
%ADD16FreePoly0,0.000000*%
%ADD17FreePoly1,0.000000*%
%ADD18R,3.000000X1.400000*%
%ADD19R,6.500000X6.000000*%
%ADD20RoundRect,0.225000X-0.250000X0.225000X-0.250000X-0.225000X0.250000X-0.225000X0.250000X0.225000X0*%
%ADD21R,1.700000X1.700000*%
%ADD22C,1.700000*%
%ADD23C,2.600000*%
%ADD24C,3.500000*%
%ADD25RoundRect,0.200000X0.275000X-0.200000X0.275000X0.200000X-0.275000X0.200000X-0.275000X-0.200000X0*%
%ADD26RoundRect,0.225000X-0.225000X-0.250000X0.225000X-0.250000X0.225000X0.250000X-0.225000X0.250000X0*%
%ADD27RoundRect,0.225000X0.250000X-0.225000X0.250000X0.225000X-0.250000X0.225000X-0.250000X-0.225000X0*%
%ADD28RoundRect,0.250000X0.250000X0.475000X-0.250000X0.475000X-0.250000X-0.475000X0.250000X-0.475000X0*%
%ADD29RoundRect,0.150000X0.150000X-0.675000X0.150000X0.675000X-0.150000X0.675000X-0.150000X-0.675000X0*%
%ADD30C,2.000000*%
%ADD31R,0.889000X1.473200*%
%ADD32R,3.149600X1.473200*%
%ADD33RoundRect,0.225000X0.225000X0.250000X-0.225000X0.250000X-0.225000X-0.250000X0.225000X-0.250000X0*%
%ADD34RoundRect,0.218750X0.256250X-0.218750X0.256250X0.218750X-0.256250X0.218750X-0.256250X-0.218750X0*%
%ADD35R,0.500000X0.800000*%
%ADD36R,0.400000X0.800000*%
%ADD37RoundRect,0.150000X-0.625000X0.150000X-0.625000X-0.150000X0.625000X-0.150000X0.625000X0.150000X0*%
%ADD38RoundRect,0.250000X-0.650000X0.350000X-0.650000X-0.350000X0.650000X-0.350000X0.650000X0.350000X0*%
%ADD39R,1.308100X0.355600*%
%ADD40R,1.000000X0.600000*%
%ADD41RoundRect,0.225000X0.375000X-0.225000X0.375000X0.225000X-0.375000X0.225000X-0.375000X-0.225000X0*%
G04 APERTURE END LIST*
G36*
X150900000Y-70200000D02*
G01*
X151200000Y-70200000D01*
X151200000Y-71700000D01*
X150900000Y-71700000D01*
X150900000Y-70200000D01*
G37*
G36*
X150900000Y-75200000D02*
G01*
X151200000Y-75200000D01*
X151200000Y-76700000D01*
X150900000Y-76700000D01*
X150900000Y-75200000D01*
G37*
G36*
X150900000Y-72700000D02*
G01*
X151200000Y-72700000D01*
X151200000Y-74200000D01*
X150900000Y-74200000D01*
X150900000Y-72700000D01*
G37*
D10*
X154270000Y-95050000D03*
X154270000Y-98350000D03*
D11*
X142400000Y-97800000D03*
X142400000Y-93500000D03*
D12*
X128200000Y-104575000D03*
X128200000Y-106225000D03*
X164500000Y-104175000D03*
X164500000Y-105825000D03*
D13*
X137250000Y-81500000D03*
X135600000Y-81500000D03*
D14*
X137400000Y-107600000D03*
X140900000Y-107600000D03*
X144400000Y-107600000D03*
X147900000Y-107600000D03*
X151400000Y-107600000D03*
X154900000Y-107600000D03*
D11*
X139100000Y-93500000D03*
X139100000Y-97800000D03*
D13*
X154865000Y-85600000D03*
X153215000Y-85600000D03*
D15*
X148700000Y-93862500D03*
X148700000Y-98137500D03*
D16*
X150400000Y-70950000D03*
D17*
X151700000Y-70950000D03*
D13*
X137250000Y-83000000D03*
X135600000Y-83000000D03*
D18*
X136420000Y-85200000D03*
X136420000Y-89800000D03*
D19*
X142670000Y-87500000D03*
D20*
X151840000Y-87425000D03*
X151840000Y-88975000D03*
D21*
X165100000Y-82350000D03*
D22*
X165100000Y-84890000D03*
X165100000Y-87430000D03*
X165100000Y-89970000D03*
X165100000Y-92510000D03*
X165100000Y-95050000D03*
D23*
X128500000Y-76750000D03*
D24*
X128500000Y-76750000D03*
D25*
X162500000Y-100075000D03*
X162500000Y-98425000D03*
D16*
X150400000Y-75950000D03*
D17*
X151700000Y-75950000D03*
D26*
X135436100Y-73350000D03*
X136986100Y-73350000D03*
D27*
X164250000Y-100025000D03*
X164250000Y-98475000D03*
D28*
X129200000Y-80500000D03*
X127300000Y-80500000D03*
D29*
X153600000Y-93000000D03*
X154870000Y-93000000D03*
X156140000Y-93000000D03*
X157410000Y-93000000D03*
X157410000Y-87750000D03*
X156140000Y-87750000D03*
X154870000Y-87750000D03*
X153600000Y-87750000D03*
D12*
X126700000Y-104575000D03*
X126700000Y-106225000D03*
D30*
X162555826Y-77610369D03*
X157959632Y-73014175D03*
X165737806Y-74428389D03*
X161141612Y-69832195D03*
X158949581Y-76620420D03*
D26*
X135436100Y-74950000D03*
X136986100Y-74950000D03*
D23*
X128500000Y-99750000D03*
D24*
X128500000Y-99750000D03*
D31*
X127138600Y-89063900D03*
X129450000Y-89063900D03*
X131761400Y-89063900D03*
D32*
X129450000Y-82536100D03*
D33*
X131725000Y-91000000D03*
X130175000Y-91000000D03*
D34*
X160500000Y-110187500D03*
X160500000Y-108612500D03*
X158500000Y-110187500D03*
X158500000Y-108612500D03*
D35*
X142811100Y-70750000D03*
D36*
X142011100Y-70750000D03*
X141211100Y-70750000D03*
D35*
X140411100Y-70750000D03*
X140411100Y-72550000D03*
D36*
X141211100Y-72550000D03*
X142011100Y-72550000D03*
D35*
X142811100Y-72550000D03*
D12*
X160750000Y-98425000D03*
X160750000Y-100075000D03*
D16*
X150400000Y-73450000D03*
D17*
X151700000Y-73450000D03*
D37*
X130675000Y-105900000D03*
X130675000Y-106900000D03*
X130675000Y-107900000D03*
X130675000Y-108900000D03*
D38*
X133200000Y-104600000D03*
X133200000Y-110200000D03*
D12*
X152170000Y-96750000D03*
X152170000Y-98400000D03*
D23*
X158000000Y-96500000D03*
D24*
X158000000Y-96500000D03*
D39*
X139209150Y-74599999D03*
X139209150Y-75250000D03*
X139209150Y-75900001D03*
X139209150Y-76550000D03*
X139209150Y-77199999D03*
X139209150Y-77850000D03*
X139209150Y-78499999D03*
X145013050Y-78500001D03*
X145013050Y-77850000D03*
X145013050Y-77200001D03*
X145013050Y-76550000D03*
X145013050Y-75900001D03*
X145013050Y-75250000D03*
X145013050Y-74600001D03*
D40*
X161500000Y-106350000D03*
X161500000Y-105050000D03*
X159300000Y-105050000D03*
X159300000Y-106350000D03*
D41*
X145300000Y-98250000D03*
X145300000Y-94950000D03*
M02*
