G04 #@! TF.GenerationSoftware,KiCad,Pcbnew,9.0.1*
G04 #@! TF.CreationDate,2025-05-14T09:26:50-05:00*
G04 #@! TF.ProjectId,Incipit11,496e6369-7069-4743-9131-2e6b69636164,A*
G04 #@! TF.SameCoordinates,Original*
G04 #@! TF.FileFunction,Legend,Top*
G04 #@! TF.FilePolarity,Positive*
%FSLAX46Y46*%
G04 Gerber Fmt 4.6, Leading zero omitted, Abs format (unit mm)*
G04 Created by KiCad (PCBNEW 9.0.1) date 2025-05-14 09:26:50*
%MOMM*%
%LPD*%
G01*
G04 APERTURE LIST*
G04 Aperture macros list*
%AMRoundRect*
0 Rectangle with rounded corners*
0 $1 Rounding radius*
0 $2 $3 $4 $5 $6 $7 $8 $9 X,Y pos of 4 corners*
0 Add a 4 corners polygon primitive as box body*
4,1,4,$2,$3,$4,$5,$6,$7,$8,$9,$2,$3,0*
0 Add four circle primitives for the rounded corners*
1,1,$1+$1,$2,$3*
1,1,$1+$1,$4,$5*
1,1,$1+$1,$6,$7*
1,1,$1+$1,$8,$9*
0 Add four rect primitives between the rounded corners*
20,1,$1+$1,$2,$3,$4,$5,0*
20,1,$1+$1,$4,$5,$6,$7,0*
20,1,$1+$1,$6,$7,$8,$9,0*
20,1,$1+$1,$8,$9,$2,$3,0*%
%AMFreePoly0*
4,1,23,0.500000,-0.750000,0.000000,-0.750000,0.000000,-0.745722,-0.065263,-0.745722,-0.191342,-0.711940,-0.304381,-0.646677,-0.396677,-0.554381,-0.461940,-0.441342,-0.495722,-0.315263,-0.495722,-0.250000,-0.500000,-0.250000,-0.500000,0.250000,-0.495722,0.250000,-0.495722,0.315263,-0.461940,0.441342,-0.396677,0.554381,-0.304381,0.646677,-0.191342,0.711940,-0.065263,0.745722,0.000000,0.745722,
0.000000,0.750000,0.500000,0.750000,0.500000,-0.750000,0.500000,-0.750000,$1*%
%AMFreePoly1*
4,1,23,0.000000,0.745722,0.065263,0.745722,0.191342,0.711940,0.304381,0.646677,0.396677,0.554381,0.461940,0.441342,0.495722,0.315263,0.495722,0.250000,0.500000,0.250000,0.500000,-0.250000,0.495722,-0.250000,0.495722,-0.315263,0.461940,-0.441342,0.396677,-0.554381,0.304381,-0.646677,0.191342,-0.711940,0.065263,-0.745722,0.000000,-0.745722,0.000000,-0.750000,-0.500000,-0.750000,
-0.500000,0.750000,0.000000,0.750000,0.000000,0.745722,0.000000,0.745722,$1*%
G04 Aperture macros list end*
%ADD10C,0.250000*%
%ADD11C,0.300000*%
%ADD12C,0.150000*%
%ADD13C,0.120000*%
%ADD14C,0.200000*%
%ADD15C,0.100000*%
%ADD16C,0.127000*%
%ADD17C,0.152400*%
%ADD18C,0.000000*%
%ADD19RoundRect,0.225000X-0.375000X0.225000X-0.375000X-0.225000X0.375000X-0.225000X0.375000X0.225000X0*%
%ADD20R,1.900000X1.600000*%
%ADD21RoundRect,0.200000X-0.275000X0.200000X-0.275000X-0.200000X0.275000X-0.200000X0.275000X0.200000X0*%
%ADD22RoundRect,0.200000X0.200000X0.275000X-0.200000X0.275000X-0.200000X-0.275000X0.200000X-0.275000X0*%
%ADD23C,1.650000*%
%ADD24RoundRect,0.250000X-1.450000X0.312500X-1.450000X-0.312500X1.450000X-0.312500X1.450000X0.312500X0*%
%ADD25FreePoly0,0.000000*%
%ADD26FreePoly1,0.000000*%
%ADD27R,3.000000X1.400000*%
%ADD28R,6.500000X6.000000*%
%ADD29RoundRect,0.225000X-0.250000X0.225000X-0.250000X-0.225000X0.250000X-0.225000X0.250000X0.225000X0*%
%ADD30R,1.700000X1.700000*%
%ADD31C,1.700000*%
%ADD32C,2.600000*%
%ADD33C,3.500000*%
%ADD34RoundRect,0.200000X0.275000X-0.200000X0.275000X0.200000X-0.275000X0.200000X-0.275000X-0.200000X0*%
%ADD35RoundRect,0.225000X-0.225000X-0.250000X0.225000X-0.250000X0.225000X0.250000X-0.225000X0.250000X0*%
%ADD36RoundRect,0.225000X0.250000X-0.225000X0.250000X0.225000X-0.250000X0.225000X-0.250000X-0.225000X0*%
%ADD37RoundRect,0.250000X0.250000X0.475000X-0.250000X0.475000X-0.250000X-0.475000X0.250000X-0.475000X0*%
%ADD38RoundRect,0.150000X0.150000X-0.675000X0.150000X0.675000X-0.150000X0.675000X-0.150000X-0.675000X0*%
%ADD39C,2.000000*%
%ADD40R,0.889000X1.473200*%
%ADD41R,3.149600X1.473200*%
%ADD42RoundRect,0.225000X0.225000X0.250000X-0.225000X0.250000X-0.225000X-0.250000X0.225000X-0.250000X0*%
%ADD43RoundRect,0.218750X0.256250X-0.218750X0.256250X0.218750X-0.256250X0.218750X-0.256250X-0.218750X0*%
%ADD44R,0.500000X0.800000*%
%ADD45R,0.400000X0.800000*%
%ADD46RoundRect,0.150000X-0.625000X0.150000X-0.625000X-0.150000X0.625000X-0.150000X0.625000X0.150000X0*%
%ADD47RoundRect,0.250000X-0.650000X0.350000X-0.650000X-0.350000X0.650000X-0.350000X0.650000X0.350000X0*%
%ADD48R,1.308100X0.355600*%
%ADD49R,1.000000X0.600000*%
%ADD50RoundRect,0.225000X0.375000X-0.225000X0.375000X0.225000X-0.375000X0.225000X-0.375000X-0.225000X0*%
G04 APERTURE END LIST*
D10*
X154968666Y-103226377D02*
X154968666Y-102464473D01*
X154349619Y-102131139D02*
X154349619Y-101559711D01*
X155349619Y-101845425D02*
X154349619Y-101845425D01*
X155349619Y-100654949D02*
X154873428Y-100988282D01*
X155349619Y-101226377D02*
X154349619Y-101226377D01*
X154349619Y-101226377D02*
X154349619Y-100845425D01*
X154349619Y-100845425D02*
X154397238Y-100750187D01*
X154397238Y-100750187D02*
X154444857Y-100702568D01*
X154444857Y-100702568D02*
X154540095Y-100654949D01*
X154540095Y-100654949D02*
X154682952Y-100654949D01*
X154682952Y-100654949D02*
X154778190Y-100702568D01*
X154778190Y-100702568D02*
X154825809Y-100750187D01*
X154825809Y-100750187D02*
X154873428Y-100845425D01*
X154873428Y-100845425D02*
X154873428Y-101226377D01*
X154397238Y-99702568D02*
X154349619Y-99797806D01*
X154349619Y-99797806D02*
X154349619Y-99940663D01*
X154349619Y-99940663D02*
X154397238Y-100083520D01*
X154397238Y-100083520D02*
X154492476Y-100178758D01*
X154492476Y-100178758D02*
X154587714Y-100226377D01*
X154587714Y-100226377D02*
X154778190Y-100273996D01*
X154778190Y-100273996D02*
X154921047Y-100273996D01*
X154921047Y-100273996D02*
X155111523Y-100226377D01*
X155111523Y-100226377D02*
X155206761Y-100178758D01*
X155206761Y-100178758D02*
X155302000Y-100083520D01*
X155302000Y-100083520D02*
X155349619Y-99940663D01*
X155349619Y-99940663D02*
X155349619Y-99845425D01*
X155349619Y-99845425D02*
X155302000Y-99702568D01*
X155302000Y-99702568D02*
X155254380Y-99654949D01*
X155254380Y-99654949D02*
X154921047Y-99654949D01*
X154921047Y-99654949D02*
X154921047Y-99845425D01*
X159238095Y-103849619D02*
X159238095Y-102849619D01*
X159238095Y-102849619D02*
X159809523Y-103849619D01*
X159809523Y-103849619D02*
X159809523Y-102849619D01*
X160285714Y-103325809D02*
X160619047Y-103325809D01*
X160761904Y-103849619D02*
X160285714Y-103849619D01*
X160285714Y-103849619D02*
X160285714Y-102849619D01*
X160285714Y-102849619D02*
X160761904Y-102849619D01*
X161380952Y-102849619D02*
X161571428Y-102849619D01*
X161571428Y-102849619D02*
X161666666Y-102897238D01*
X161666666Y-102897238D02*
X161761904Y-102992476D01*
X161761904Y-102992476D02*
X161809523Y-103182952D01*
X161809523Y-103182952D02*
X161809523Y-103516285D01*
X161809523Y-103516285D02*
X161761904Y-103706761D01*
X161761904Y-103706761D02*
X161666666Y-103802000D01*
X161666666Y-103802000D02*
X161571428Y-103849619D01*
X161571428Y-103849619D02*
X161380952Y-103849619D01*
X161380952Y-103849619D02*
X161285714Y-103802000D01*
X161285714Y-103802000D02*
X161190476Y-103706761D01*
X161190476Y-103706761D02*
X161142857Y-103516285D01*
X161142857Y-103516285D02*
X161142857Y-103182952D01*
X161142857Y-103182952D02*
X161190476Y-102992476D01*
X161190476Y-102992476D02*
X161285714Y-102897238D01*
X161285714Y-102897238D02*
X161380952Y-102849619D01*
D11*
X153890225Y-76750828D02*
X153033082Y-76750828D01*
X153461653Y-76750828D02*
X153461653Y-75250828D01*
X153461653Y-75250828D02*
X153318796Y-75465114D01*
X153318796Y-75465114D02*
X153175939Y-75607971D01*
X153175939Y-75607971D02*
X153033082Y-75679400D01*
D10*
X162242669Y-90419619D02*
X161909336Y-89943428D01*
X161671241Y-90419619D02*
X161671241Y-89419619D01*
X161671241Y-89419619D02*
X162052193Y-89419619D01*
X162052193Y-89419619D02*
X162147431Y-89467238D01*
X162147431Y-89467238D02*
X162195050Y-89514857D01*
X162195050Y-89514857D02*
X162242669Y-89610095D01*
X162242669Y-89610095D02*
X162242669Y-89752952D01*
X162242669Y-89752952D02*
X162195050Y-89848190D01*
X162195050Y-89848190D02*
X162147431Y-89895809D01*
X162147431Y-89895809D02*
X162052193Y-89943428D01*
X162052193Y-89943428D02*
X161671241Y-89943428D01*
X162576003Y-89419619D02*
X163242669Y-90419619D01*
X163242669Y-89419619D02*
X162576003Y-90419619D01*
D11*
X153033082Y-72893685D02*
X153104510Y-72822257D01*
X153104510Y-72822257D02*
X153247368Y-72750828D01*
X153247368Y-72750828D02*
X153604510Y-72750828D01*
X153604510Y-72750828D02*
X153747368Y-72822257D01*
X153747368Y-72822257D02*
X153818796Y-72893685D01*
X153818796Y-72893685D02*
X153890225Y-73036542D01*
X153890225Y-73036542D02*
X153890225Y-73179400D01*
X153890225Y-73179400D02*
X153818796Y-73393685D01*
X153818796Y-73393685D02*
X152961653Y-74250828D01*
X152961653Y-74250828D02*
X153890225Y-74250828D01*
X153747368Y-70750828D02*
X153747368Y-71750828D01*
X153390225Y-70179400D02*
X153033082Y-71250828D01*
X153033082Y-71250828D02*
X153961653Y-71250828D01*
D10*
X144368666Y-103242856D02*
X144368666Y-102480952D01*
X144749619Y-102861904D02*
X143987714Y-102861904D01*
X143749619Y-101814285D02*
X143749619Y-101623809D01*
X143749619Y-101623809D02*
X143797238Y-101528571D01*
X143797238Y-101528571D02*
X143892476Y-101433333D01*
X143892476Y-101433333D02*
X144082952Y-101385714D01*
X144082952Y-101385714D02*
X144416285Y-101385714D01*
X144416285Y-101385714D02*
X144606761Y-101433333D01*
X144606761Y-101433333D02*
X144702000Y-101528571D01*
X144702000Y-101528571D02*
X144749619Y-101623809D01*
X144749619Y-101623809D02*
X144749619Y-101814285D01*
X144749619Y-101814285D02*
X144702000Y-101909523D01*
X144702000Y-101909523D02*
X144606761Y-102004761D01*
X144606761Y-102004761D02*
X144416285Y-102052380D01*
X144416285Y-102052380D02*
X144082952Y-102052380D01*
X144082952Y-102052380D02*
X143892476Y-102004761D01*
X143892476Y-102004761D02*
X143797238Y-101909523D01*
X143797238Y-101909523D02*
X143749619Y-101814285D01*
X144082952Y-100528571D02*
X144749619Y-100528571D01*
X144082952Y-100957142D02*
X144606761Y-100957142D01*
X144606761Y-100957142D02*
X144702000Y-100909523D01*
X144702000Y-100909523D02*
X144749619Y-100814285D01*
X144749619Y-100814285D02*
X144749619Y-100671428D01*
X144749619Y-100671428D02*
X144702000Y-100576190D01*
X144702000Y-100576190D02*
X144654380Y-100528571D01*
X144082952Y-100195237D02*
X144082952Y-99814285D01*
X143749619Y-100052380D02*
X144606761Y-100052380D01*
X144606761Y-100052380D02*
X144702000Y-100004761D01*
X144702000Y-100004761D02*
X144749619Y-99909523D01*
X144749619Y-99909523D02*
X144749619Y-99814285D01*
X157223809Y-106849619D02*
X157414285Y-106849619D01*
X157414285Y-106849619D02*
X157509523Y-106897238D01*
X157509523Y-106897238D02*
X157604761Y-106992476D01*
X157604761Y-106992476D02*
X157652380Y-107182952D01*
X157652380Y-107182952D02*
X157652380Y-107516285D01*
X157652380Y-107516285D02*
X157604761Y-107706761D01*
X157604761Y-107706761D02*
X157509523Y-107802000D01*
X157509523Y-107802000D02*
X157414285Y-107849619D01*
X157414285Y-107849619D02*
X157223809Y-107849619D01*
X157223809Y-107849619D02*
X157128571Y-107802000D01*
X157128571Y-107802000D02*
X157033333Y-107706761D01*
X157033333Y-107706761D02*
X156985714Y-107516285D01*
X156985714Y-107516285D02*
X156985714Y-107182952D01*
X156985714Y-107182952D02*
X157033333Y-106992476D01*
X157033333Y-106992476D02*
X157128571Y-106897238D01*
X157128571Y-106897238D02*
X157223809Y-106849619D01*
X157938095Y-106849619D02*
X158509523Y-106849619D01*
X158223809Y-107849619D02*
X158223809Y-106849619D01*
X161288095Y-94717238D02*
X161192857Y-94669619D01*
X161192857Y-94669619D02*
X161050000Y-94669619D01*
X161050000Y-94669619D02*
X160907143Y-94717238D01*
X160907143Y-94717238D02*
X160811905Y-94812476D01*
X160811905Y-94812476D02*
X160764286Y-94907714D01*
X160764286Y-94907714D02*
X160716667Y-95098190D01*
X160716667Y-95098190D02*
X160716667Y-95241047D01*
X160716667Y-95241047D02*
X160764286Y-95431523D01*
X160764286Y-95431523D02*
X160811905Y-95526761D01*
X160811905Y-95526761D02*
X160907143Y-95622000D01*
X160907143Y-95622000D02*
X161050000Y-95669619D01*
X161050000Y-95669619D02*
X161145238Y-95669619D01*
X161145238Y-95669619D02*
X161288095Y-95622000D01*
X161288095Y-95622000D02*
X161335714Y-95574380D01*
X161335714Y-95574380D02*
X161335714Y-95241047D01*
X161335714Y-95241047D02*
X161145238Y-95241047D01*
X161764286Y-95669619D02*
X161764286Y-94669619D01*
X161764286Y-94669619D02*
X162335714Y-95669619D01*
X162335714Y-95669619D02*
X162335714Y-94669619D01*
X162811905Y-95669619D02*
X162811905Y-94669619D01*
X162811905Y-94669619D02*
X163050000Y-94669619D01*
X163050000Y-94669619D02*
X163192857Y-94717238D01*
X163192857Y-94717238D02*
X163288095Y-94812476D01*
X163288095Y-94812476D02*
X163335714Y-94907714D01*
X163335714Y-94907714D02*
X163383333Y-95098190D01*
X163383333Y-95098190D02*
X163383333Y-95241047D01*
X163383333Y-95241047D02*
X163335714Y-95431523D01*
X163335714Y-95431523D02*
X163288095Y-95526761D01*
X163288095Y-95526761D02*
X163192857Y-95622000D01*
X163192857Y-95622000D02*
X163050000Y-95669619D01*
X163050000Y-95669619D02*
X162811905Y-95669619D01*
X161002381Y-84519619D02*
X161621428Y-84519619D01*
X161621428Y-84519619D02*
X161288095Y-84900571D01*
X161288095Y-84900571D02*
X161430952Y-84900571D01*
X161430952Y-84900571D02*
X161526190Y-84948190D01*
X161526190Y-84948190D02*
X161573809Y-84995809D01*
X161573809Y-84995809D02*
X161621428Y-85091047D01*
X161621428Y-85091047D02*
X161621428Y-85329142D01*
X161621428Y-85329142D02*
X161573809Y-85424380D01*
X161573809Y-85424380D02*
X161526190Y-85472000D01*
X161526190Y-85472000D02*
X161430952Y-85519619D01*
X161430952Y-85519619D02*
X161145238Y-85519619D01*
X161145238Y-85519619D02*
X161050000Y-85472000D01*
X161050000Y-85472000D02*
X161002381Y-85424380D01*
X162050000Y-85424380D02*
X162097619Y-85472000D01*
X162097619Y-85472000D02*
X162050000Y-85519619D01*
X162050000Y-85519619D02*
X162002381Y-85472000D01*
X162002381Y-85472000D02*
X162050000Y-85424380D01*
X162050000Y-85424380D02*
X162050000Y-85519619D01*
X162430952Y-84519619D02*
X163049999Y-84519619D01*
X163049999Y-84519619D02*
X162716666Y-84900571D01*
X162716666Y-84900571D02*
X162859523Y-84900571D01*
X162859523Y-84900571D02*
X162954761Y-84948190D01*
X162954761Y-84948190D02*
X163002380Y-84995809D01*
X163002380Y-84995809D02*
X163049999Y-85091047D01*
X163049999Y-85091047D02*
X163049999Y-85329142D01*
X163049999Y-85329142D02*
X163002380Y-85424380D01*
X163002380Y-85424380D02*
X162954761Y-85472000D01*
X162954761Y-85472000D02*
X162859523Y-85519619D01*
X162859523Y-85519619D02*
X162573809Y-85519619D01*
X162573809Y-85519619D02*
X162478571Y-85472000D01*
X162478571Y-85472000D02*
X162430952Y-85424380D01*
X136897238Y-102361904D02*
X136849619Y-102457142D01*
X136849619Y-102457142D02*
X136849619Y-102599999D01*
X136849619Y-102599999D02*
X136897238Y-102742856D01*
X136897238Y-102742856D02*
X136992476Y-102838094D01*
X136992476Y-102838094D02*
X137087714Y-102885713D01*
X137087714Y-102885713D02*
X137278190Y-102933332D01*
X137278190Y-102933332D02*
X137421047Y-102933332D01*
X137421047Y-102933332D02*
X137611523Y-102885713D01*
X137611523Y-102885713D02*
X137706761Y-102838094D01*
X137706761Y-102838094D02*
X137802000Y-102742856D01*
X137802000Y-102742856D02*
X137849619Y-102599999D01*
X137849619Y-102599999D02*
X137849619Y-102504761D01*
X137849619Y-102504761D02*
X137802000Y-102361904D01*
X137802000Y-102361904D02*
X137754380Y-102314285D01*
X137754380Y-102314285D02*
X137421047Y-102314285D01*
X137421047Y-102314285D02*
X137421047Y-102504761D01*
X137849619Y-101885713D02*
X136849619Y-101885713D01*
X136849619Y-101885713D02*
X137849619Y-101314285D01*
X137849619Y-101314285D02*
X136849619Y-101314285D01*
X137849619Y-100838094D02*
X136849619Y-100838094D01*
X136849619Y-100838094D02*
X136849619Y-100599999D01*
X136849619Y-100599999D02*
X136897238Y-100457142D01*
X136897238Y-100457142D02*
X136992476Y-100361904D01*
X136992476Y-100361904D02*
X137087714Y-100314285D01*
X137087714Y-100314285D02*
X137278190Y-100266666D01*
X137278190Y-100266666D02*
X137421047Y-100266666D01*
X137421047Y-100266666D02*
X137611523Y-100314285D01*
X137611523Y-100314285D02*
X137706761Y-100361904D01*
X137706761Y-100361904D02*
X137802000Y-100457142D01*
X137802000Y-100457142D02*
X137849619Y-100599999D01*
X137849619Y-100599999D02*
X137849619Y-100838094D01*
X141068666Y-102933332D02*
X141068666Y-102171428D01*
X141449619Y-102552380D02*
X140687714Y-102552380D01*
X141449619Y-101171428D02*
X141449619Y-101742856D01*
X141449619Y-101457142D02*
X140449619Y-101457142D01*
X140449619Y-101457142D02*
X140592476Y-101552380D01*
X140592476Y-101552380D02*
X140687714Y-101647618D01*
X140687714Y-101647618D02*
X140735333Y-101742856D01*
X140544857Y-100790475D02*
X140497238Y-100742856D01*
X140497238Y-100742856D02*
X140449619Y-100647618D01*
X140449619Y-100647618D02*
X140449619Y-100409523D01*
X140449619Y-100409523D02*
X140497238Y-100314285D01*
X140497238Y-100314285D02*
X140544857Y-100266666D01*
X140544857Y-100266666D02*
X140640095Y-100219047D01*
X140640095Y-100219047D02*
X140735333Y-100219047D01*
X140735333Y-100219047D02*
X140878190Y-100266666D01*
X140878190Y-100266666D02*
X141449619Y-100838094D01*
X141449619Y-100838094D02*
X141449619Y-100219047D01*
X147968666Y-103242856D02*
X147968666Y-102480952D01*
X147349619Y-101814285D02*
X147349619Y-101623809D01*
X147349619Y-101623809D02*
X147397238Y-101528571D01*
X147397238Y-101528571D02*
X147492476Y-101433333D01*
X147492476Y-101433333D02*
X147682952Y-101385714D01*
X147682952Y-101385714D02*
X148016285Y-101385714D01*
X148016285Y-101385714D02*
X148206761Y-101433333D01*
X148206761Y-101433333D02*
X148302000Y-101528571D01*
X148302000Y-101528571D02*
X148349619Y-101623809D01*
X148349619Y-101623809D02*
X148349619Y-101814285D01*
X148349619Y-101814285D02*
X148302000Y-101909523D01*
X148302000Y-101909523D02*
X148206761Y-102004761D01*
X148206761Y-102004761D02*
X148016285Y-102052380D01*
X148016285Y-102052380D02*
X147682952Y-102052380D01*
X147682952Y-102052380D02*
X147492476Y-102004761D01*
X147492476Y-102004761D02*
X147397238Y-101909523D01*
X147397238Y-101909523D02*
X147349619Y-101814285D01*
X147682952Y-100528571D02*
X148349619Y-100528571D01*
X147682952Y-100957142D02*
X148206761Y-100957142D01*
X148206761Y-100957142D02*
X148302000Y-100909523D01*
X148302000Y-100909523D02*
X148349619Y-100814285D01*
X148349619Y-100814285D02*
X148349619Y-100671428D01*
X148349619Y-100671428D02*
X148302000Y-100576190D01*
X148302000Y-100576190D02*
X148254380Y-100528571D01*
X147682952Y-100195237D02*
X147682952Y-99814285D01*
X147349619Y-100052380D02*
X148206761Y-100052380D01*
X148206761Y-100052380D02*
X148302000Y-100004761D01*
X148302000Y-100004761D02*
X148349619Y-99909523D01*
X148349619Y-99909523D02*
X148349619Y-99814285D01*
X151468666Y-103226377D02*
X151468666Y-102464473D01*
X151849619Y-102845425D02*
X151087714Y-102845425D01*
X150849619Y-102131139D02*
X150849619Y-101559711D01*
X151849619Y-101845425D02*
X150849619Y-101845425D01*
X151849619Y-100654949D02*
X151373428Y-100988282D01*
X151849619Y-101226377D02*
X150849619Y-101226377D01*
X150849619Y-101226377D02*
X150849619Y-100845425D01*
X150849619Y-100845425D02*
X150897238Y-100750187D01*
X150897238Y-100750187D02*
X150944857Y-100702568D01*
X150944857Y-100702568D02*
X151040095Y-100654949D01*
X151040095Y-100654949D02*
X151182952Y-100654949D01*
X151182952Y-100654949D02*
X151278190Y-100702568D01*
X151278190Y-100702568D02*
X151325809Y-100750187D01*
X151325809Y-100750187D02*
X151373428Y-100845425D01*
X151373428Y-100845425D02*
X151373428Y-101226377D01*
X150897238Y-99702568D02*
X150849619Y-99797806D01*
X150849619Y-99797806D02*
X150849619Y-99940663D01*
X150849619Y-99940663D02*
X150897238Y-100083520D01*
X150897238Y-100083520D02*
X150992476Y-100178758D01*
X150992476Y-100178758D02*
X151087714Y-100226377D01*
X151087714Y-100226377D02*
X151278190Y-100273996D01*
X151278190Y-100273996D02*
X151421047Y-100273996D01*
X151421047Y-100273996D02*
X151611523Y-100226377D01*
X151611523Y-100226377D02*
X151706761Y-100178758D01*
X151706761Y-100178758D02*
X151802000Y-100083520D01*
X151802000Y-100083520D02*
X151849619Y-99940663D01*
X151849619Y-99940663D02*
X151849619Y-99845425D01*
X151849619Y-99845425D02*
X151802000Y-99702568D01*
X151802000Y-99702568D02*
X151754380Y-99654949D01*
X151754380Y-99654949D02*
X151421047Y-99654949D01*
X151421047Y-99654949D02*
X151421047Y-99845425D01*
X145490288Y-70713904D02*
X145966478Y-70713904D01*
X145395050Y-70999619D02*
X145728383Y-69999619D01*
X145728383Y-69999619D02*
X146061716Y-70999619D01*
X146823621Y-70999619D02*
X146823621Y-69999619D01*
X146823621Y-70952000D02*
X146728383Y-70999619D01*
X146728383Y-70999619D02*
X146537907Y-70999619D01*
X146537907Y-70999619D02*
X146442669Y-70952000D01*
X146442669Y-70952000D02*
X146395050Y-70904380D01*
X146395050Y-70904380D02*
X146347431Y-70809142D01*
X146347431Y-70809142D02*
X146347431Y-70523428D01*
X146347431Y-70523428D02*
X146395050Y-70428190D01*
X146395050Y-70428190D02*
X146442669Y-70380571D01*
X146442669Y-70380571D02*
X146537907Y-70332952D01*
X146537907Y-70332952D02*
X146728383Y-70332952D01*
X146728383Y-70332952D02*
X146823621Y-70380571D01*
X147728383Y-70999619D02*
X147728383Y-69999619D01*
X147728383Y-70952000D02*
X147633145Y-70999619D01*
X147633145Y-70999619D02*
X147442669Y-70999619D01*
X147442669Y-70999619D02*
X147347431Y-70952000D01*
X147347431Y-70952000D02*
X147299812Y-70904380D01*
X147299812Y-70904380D02*
X147252193Y-70809142D01*
X147252193Y-70809142D02*
X147252193Y-70523428D01*
X147252193Y-70523428D02*
X147299812Y-70428190D01*
X147299812Y-70428190D02*
X147347431Y-70380571D01*
X147347431Y-70380571D02*
X147442669Y-70332952D01*
X147442669Y-70332952D02*
X147633145Y-70332952D01*
X147633145Y-70332952D02*
X147728383Y-70380571D01*
X148204574Y-70999619D02*
X148204574Y-70332952D01*
X148204574Y-70523428D02*
X148252193Y-70428190D01*
X148252193Y-70428190D02*
X148299812Y-70380571D01*
X148299812Y-70380571D02*
X148395050Y-70332952D01*
X148395050Y-70332952D02*
X148490288Y-70332952D01*
X161288095Y-86967238D02*
X161192857Y-86919619D01*
X161192857Y-86919619D02*
X161050000Y-86919619D01*
X161050000Y-86919619D02*
X160907143Y-86967238D01*
X160907143Y-86967238D02*
X160811905Y-87062476D01*
X160811905Y-87062476D02*
X160764286Y-87157714D01*
X160764286Y-87157714D02*
X160716667Y-87348190D01*
X160716667Y-87348190D02*
X160716667Y-87491047D01*
X160716667Y-87491047D02*
X160764286Y-87681523D01*
X160764286Y-87681523D02*
X160811905Y-87776761D01*
X160811905Y-87776761D02*
X160907143Y-87872000D01*
X160907143Y-87872000D02*
X161050000Y-87919619D01*
X161050000Y-87919619D02*
X161145238Y-87919619D01*
X161145238Y-87919619D02*
X161288095Y-87872000D01*
X161288095Y-87872000D02*
X161335714Y-87824380D01*
X161335714Y-87824380D02*
X161335714Y-87491047D01*
X161335714Y-87491047D02*
X161145238Y-87491047D01*
X161764286Y-87919619D02*
X161764286Y-86919619D01*
X161764286Y-86919619D02*
X162335714Y-87919619D01*
X162335714Y-87919619D02*
X162335714Y-86919619D01*
X162811905Y-87919619D02*
X162811905Y-86919619D01*
X162811905Y-86919619D02*
X163050000Y-86919619D01*
X163050000Y-86919619D02*
X163192857Y-86967238D01*
X163192857Y-86967238D02*
X163288095Y-87062476D01*
X163288095Y-87062476D02*
X163335714Y-87157714D01*
X163335714Y-87157714D02*
X163383333Y-87348190D01*
X163383333Y-87348190D02*
X163383333Y-87491047D01*
X163383333Y-87491047D02*
X163335714Y-87681523D01*
X163335714Y-87681523D02*
X163288095Y-87776761D01*
X163288095Y-87776761D02*
X163192857Y-87872000D01*
X163192857Y-87872000D02*
X163050000Y-87919619D01*
X163050000Y-87919619D02*
X162811905Y-87919619D01*
X160049813Y-81799619D02*
X160049813Y-82609142D01*
X160049813Y-82609142D02*
X160097432Y-82704380D01*
X160097432Y-82704380D02*
X160145051Y-82752000D01*
X160145051Y-82752000D02*
X160240289Y-82799619D01*
X160240289Y-82799619D02*
X160430765Y-82799619D01*
X160430765Y-82799619D02*
X160526003Y-82752000D01*
X160526003Y-82752000D02*
X160573622Y-82704380D01*
X160573622Y-82704380D02*
X160621241Y-82609142D01*
X160621241Y-82609142D02*
X160621241Y-81799619D01*
X161097432Y-82799619D02*
X161097432Y-81799619D01*
X161097432Y-81799619D02*
X161478384Y-81799619D01*
X161478384Y-81799619D02*
X161573622Y-81847238D01*
X161573622Y-81847238D02*
X161621241Y-81894857D01*
X161621241Y-81894857D02*
X161668860Y-81990095D01*
X161668860Y-81990095D02*
X161668860Y-82132952D01*
X161668860Y-82132952D02*
X161621241Y-82228190D01*
X161621241Y-82228190D02*
X161573622Y-82275809D01*
X161573622Y-82275809D02*
X161478384Y-82323428D01*
X161478384Y-82323428D02*
X161097432Y-82323428D01*
X162097432Y-82799619D02*
X162097432Y-81799619D01*
X162097432Y-81799619D02*
X162335527Y-81799619D01*
X162335527Y-81799619D02*
X162478384Y-81847238D01*
X162478384Y-81847238D02*
X162573622Y-81942476D01*
X162573622Y-81942476D02*
X162621241Y-82037714D01*
X162621241Y-82037714D02*
X162668860Y-82228190D01*
X162668860Y-82228190D02*
X162668860Y-82371047D01*
X162668860Y-82371047D02*
X162621241Y-82561523D01*
X162621241Y-82561523D02*
X162573622Y-82656761D01*
X162573622Y-82656761D02*
X162478384Y-82752000D01*
X162478384Y-82752000D02*
X162335527Y-82799619D01*
X162335527Y-82799619D02*
X162097432Y-82799619D01*
X163097432Y-82799619D02*
X163097432Y-81799619D01*
X161766479Y-92169619D02*
X162337907Y-92169619D01*
X162052193Y-93169619D02*
X162052193Y-92169619D01*
X162576003Y-92169619D02*
X163242669Y-93169619D01*
X163242669Y-92169619D02*
X162576003Y-93169619D01*
D12*
X138955150Y-72556219D02*
X138955150Y-72794314D01*
X138717055Y-72699076D02*
X138955150Y-72794314D01*
X138955150Y-72794314D02*
X139193245Y-72699076D01*
X138812293Y-72984790D02*
X138955150Y-72794314D01*
X138955150Y-72794314D02*
X139098007Y-72984790D01*
X138955150Y-72556219D02*
X138955150Y-72794314D01*
X138717055Y-72699076D02*
X138955150Y-72794314D01*
X138955150Y-72794314D02*
X139193245Y-72699076D01*
X138812293Y-72984790D02*
X138955150Y-72794314D01*
X138955150Y-72794314D02*
X139098007Y-72984790D01*
D13*
X153270000Y-94340000D02*
X153270000Y-98350000D01*
X155270000Y-94340000D02*
X153270000Y-94340000D01*
X155270000Y-94340000D02*
X155270000Y-98350000D01*
D14*
X141100000Y-98810000D02*
X141100000Y-93550000D01*
D15*
X141600000Y-95450000D02*
X142400000Y-96250000D01*
X141600000Y-95450000D02*
X143200000Y-95450000D01*
X142400000Y-96250000D02*
X141600000Y-95450000D01*
X142400000Y-96250000D02*
X141600000Y-96250000D01*
X142400000Y-96250000D02*
X143200000Y-95450000D01*
X142400000Y-96250000D02*
X143200000Y-96250000D01*
D14*
X143700000Y-97750000D02*
X143700000Y-93550000D01*
D13*
X127677500Y-105162742D02*
X127677500Y-105637258D01*
X128722500Y-105162742D02*
X128722500Y-105637258D01*
X163977500Y-104762742D02*
X163977500Y-105237258D01*
X165022500Y-104762742D02*
X165022500Y-105237258D01*
X136662258Y-80977500D02*
X136187742Y-80977500D01*
X136662258Y-82022500D02*
X136187742Y-82022500D01*
D15*
X135100000Y-107600000D02*
X135100000Y-107600000D01*
X135200000Y-107600000D02*
X135200000Y-107600000D01*
D14*
X135650000Y-103760000D02*
X156650000Y-103760000D01*
X135650000Y-111050000D02*
X135650000Y-103760000D01*
X156650000Y-103760000D02*
X156650000Y-111050000D01*
X156650000Y-111050000D02*
X135650000Y-111050000D01*
D15*
X135100000Y-107600000D02*
G75*
G02*
X135200000Y-107600000I50000J0D01*
G01*
X135200000Y-107600000D02*
G75*
G02*
X135100000Y-107600000I-50000J0D01*
G01*
D14*
X137800000Y-93550000D02*
X137800000Y-97750000D01*
D15*
X139100000Y-95050000D02*
X138300000Y-95050000D01*
X139100000Y-95050000D02*
X138300000Y-95850000D01*
X139100000Y-95050000D02*
X139900000Y-95050000D01*
X139100000Y-95050000D02*
X139900000Y-95850000D01*
X139900000Y-95850000D02*
X138300000Y-95850000D01*
X139900000Y-95850000D02*
X139100000Y-95050000D01*
D14*
X140400000Y-92490000D02*
X140400000Y-97750000D01*
D13*
X154277258Y-85077500D02*
X153802742Y-85077500D01*
X154277258Y-86122500D02*
X153802742Y-86122500D01*
X146990000Y-94613748D02*
X146990000Y-97386252D01*
X150410000Y-94613748D02*
X150410000Y-97386252D01*
X149650000Y-71250000D02*
X149650000Y-70650000D01*
X150350000Y-69950000D02*
X151750000Y-69950000D01*
X151750000Y-71950000D02*
X150350000Y-71950000D01*
X152450000Y-70650000D02*
X152450000Y-71250000D01*
X149650000Y-70650000D02*
G75*
G02*
X150350000Y-69950000I699999J1D01*
G01*
X150350000Y-71950000D02*
G75*
G02*
X149650000Y-71250000I-1J699999D01*
G01*
X151750000Y-69950000D02*
G75*
G02*
X152450000Y-70650000I0J-700000D01*
G01*
X152450000Y-71250000D02*
G75*
G02*
X151750000Y-71950000I-700000J0D01*
G01*
X136662258Y-82477500D02*
X136187742Y-82477500D01*
X136662258Y-83522500D02*
X136187742Y-83522500D01*
D16*
X134983500Y-84150000D02*
G75*
G02*
X134856500Y-84150000I-63500J0D01*
G01*
X134856500Y-84150000D02*
G75*
G02*
X134983500Y-84150000I63500J0D01*
G01*
D13*
X151330000Y-88059420D02*
X151330000Y-88340580D01*
X152350000Y-88059420D02*
X152350000Y-88340580D01*
X163720000Y-80970000D02*
X165100000Y-80970000D01*
X163720000Y-82350000D02*
X163720000Y-80970000D01*
X163720000Y-83620000D02*
X163720000Y-96430000D01*
X163720000Y-83620000D02*
X166480000Y-83620000D01*
X163720000Y-96430000D02*
X166480000Y-96430000D01*
X166480000Y-83620000D02*
X166480000Y-96430000D01*
X161977500Y-99487258D02*
X161977500Y-99012742D01*
X163022500Y-99487258D02*
X163022500Y-99012742D01*
X149650000Y-76250000D02*
X149650000Y-75650000D01*
X150350000Y-74950000D02*
X151750000Y-74950000D01*
X151750000Y-76950000D02*
X150350000Y-76950000D01*
X152450000Y-75650000D02*
X152450000Y-76250000D01*
X149650000Y-75650000D02*
G75*
G02*
X150350000Y-74950000I699999J1D01*
G01*
X150350000Y-76950000D02*
G75*
G02*
X149650000Y-76250000I-1J699999D01*
G01*
X151750000Y-74950000D02*
G75*
G02*
X152450000Y-75650000I0J-700000D01*
G01*
X152450000Y-76250000D02*
G75*
G02*
X151750000Y-76950000I-700000J0D01*
G01*
X136070520Y-72840000D02*
X136351680Y-72840000D01*
X136070520Y-73860000D02*
X136351680Y-73860000D01*
X163740000Y-99390580D02*
X163740000Y-99109420D01*
X164760000Y-99390580D02*
X164760000Y-99109420D01*
X128511252Y-79765000D02*
X127988748Y-79765000D01*
X128511252Y-81235000D02*
X127988748Y-81235000D01*
X152945000Y-90375000D02*
X152945000Y-88425000D01*
X152945000Y-90375000D02*
X152945000Y-93825000D01*
X158065000Y-90375000D02*
X158065000Y-88425000D01*
X158065000Y-90375000D02*
X158065000Y-92325000D01*
X126177500Y-105162742D02*
X126177500Y-105637258D01*
X127222500Y-105162742D02*
X127222500Y-105637258D01*
D15*
X159197069Y-75312272D02*
X158136408Y-74251612D01*
X159727399Y-71599962D02*
X159020292Y-72307068D01*
X159727399Y-71599962D02*
X160434505Y-70892855D01*
X160257729Y-76372932D02*
X161318389Y-77433593D01*
X161318389Y-74251612D02*
X160257729Y-75312272D01*
X161671942Y-76726486D02*
X158843515Y-73898059D01*
X161848719Y-74781942D02*
X162909379Y-73721282D01*
X162025496Y-70716078D02*
X163439709Y-72130292D01*
X162379049Y-73190952D02*
X163439709Y-72130292D01*
X162379049Y-74251612D02*
X162732602Y-74605165D01*
X163970039Y-71599962D02*
X162379049Y-70008971D01*
X163970039Y-71599962D02*
X165561030Y-73190952D01*
X163970039Y-75842602D02*
X163262933Y-76549709D01*
X163970039Y-75842602D02*
X164677146Y-75135496D01*
X164853923Y-73544505D02*
X162025496Y-70716078D01*
X163598719Y-73721282D02*
G75*
G02*
X160098719Y-73721282I-1750000J0D01*
G01*
X160098719Y-73721282D02*
G75*
G02*
X163598719Y-73721282I1750000J0D01*
G01*
D13*
X136070520Y-74440000D02*
X136351680Y-74440000D01*
X136070520Y-75460000D02*
X136351680Y-75460000D01*
D17*
X125970200Y-83818800D02*
X125970200Y-87781200D01*
X125970200Y-87781200D02*
X132929800Y-87781200D01*
X132929800Y-83818800D02*
X125970200Y-83818800D01*
X132929800Y-87781200D02*
X132929800Y-83818800D01*
X124954200Y-89444900D02*
G75*
G02*
X124700200Y-89444900I-127000J0D01*
G01*
X124700200Y-89444900D02*
G75*
G02*
X124954200Y-89444900I127000J0D01*
G01*
D13*
X131090580Y-90490000D02*
X130809420Y-90490000D01*
X131090580Y-91510000D02*
X130809420Y-91510000D01*
X159765000Y-108600000D02*
X159765000Y-110885000D01*
X159765000Y-110885000D02*
X161235000Y-110885000D01*
X161235000Y-110885000D02*
X161235000Y-108600000D01*
X157765000Y-108600000D02*
X157765000Y-110885000D01*
X157765000Y-110885000D02*
X159235000Y-110885000D01*
X159235000Y-110885000D02*
X159235000Y-108600000D01*
X139931100Y-72150000D02*
X139931100Y-71150000D01*
X143291100Y-72150000D02*
X143291100Y-71150000D01*
X160227500Y-99012742D02*
X160227500Y-99487258D01*
X161272500Y-99012742D02*
X161272500Y-99487258D01*
X149650000Y-73750000D02*
X149650000Y-73150000D01*
X150350000Y-72450000D02*
X151750000Y-72450000D01*
X151750000Y-74450000D02*
X150350000Y-74450000D01*
X152450000Y-73150000D02*
X152450000Y-73750000D01*
X149650000Y-73150000D02*
G75*
G02*
X150350000Y-72450000I699999J1D01*
G01*
X150350000Y-74450000D02*
G75*
G02*
X149650000Y-73750000I-1J699999D01*
G01*
X151750000Y-72450000D02*
G75*
G02*
X152450000Y-73150000I0J-700000D01*
G01*
X152450000Y-73750000D02*
G75*
G02*
X151750000Y-74450000I-700000J0D01*
G01*
X130890000Y-104290000D02*
X130890000Y-105340000D01*
X130890000Y-105340000D02*
X129900000Y-105340000D01*
X130890000Y-110510000D02*
X130890000Y-109460000D01*
X132040000Y-104290000D02*
X130890000Y-104290000D01*
X132040000Y-110510000D02*
X130890000Y-110510000D01*
X134010000Y-105460000D02*
X134010000Y-109340000D01*
X151647500Y-97337742D02*
X151647500Y-97812258D01*
X152692500Y-97337742D02*
X152692500Y-97812258D01*
D17*
X139736200Y-79229700D02*
X144486000Y-79229700D01*
X144486000Y-73870300D02*
X139736200Y-73870300D01*
D18*
G36*
X146175100Y-77390499D02*
G01*
X145921100Y-77390499D01*
X145921100Y-77009499D01*
X146175100Y-77009499D01*
X146175100Y-77390499D01*
G37*
D15*
X159050000Y-104500000D02*
X161750000Y-104500000D01*
X159050000Y-105500000D02*
X159050000Y-105900000D01*
X159050000Y-106900000D02*
X161750000Y-106900000D01*
X161750000Y-105500000D02*
X161750000Y-105900000D01*
X162200000Y-106300000D02*
X162200000Y-106300000D01*
X162200000Y-106400000D02*
X162200000Y-106400000D01*
X162200000Y-106300000D02*
G75*
G02*
X162200000Y-106400000I0J-50000D01*
G01*
X162200000Y-106400000D02*
G75*
G02*
X162200000Y-106300000I0J50000D01*
G01*
D13*
X144300000Y-98960000D02*
X144300000Y-94950000D01*
X144300000Y-98960000D02*
X146300000Y-98960000D01*
X146300000Y-98960000D02*
X146300000Y-94950000D01*
%LPC*%
G36*
X150900000Y-70200000D02*
G01*
X151200000Y-70200000D01*
X151200000Y-71700000D01*
X150900000Y-71700000D01*
X150900000Y-70200000D01*
G37*
G36*
X150900000Y-75200000D02*
G01*
X151200000Y-75200000D01*
X151200000Y-76700000D01*
X150900000Y-76700000D01*
X150900000Y-75200000D01*
G37*
G36*
X150900000Y-72700000D02*
G01*
X151200000Y-72700000D01*
X151200000Y-74200000D01*
X150900000Y-74200000D01*
X150900000Y-72700000D01*
G37*
D19*
X154270000Y-95050000D03*
X154270000Y-98350000D03*
D20*
X142400000Y-97800000D03*
X142400000Y-93500000D03*
D21*
X128200000Y-104575000D03*
X128200000Y-106225000D03*
X164500000Y-104175000D03*
X164500000Y-105825000D03*
D22*
X137250000Y-81500000D03*
X135600000Y-81500000D03*
D23*
X137400000Y-107600000D03*
X140900000Y-107600000D03*
X144400000Y-107600000D03*
X147900000Y-107600000D03*
X151400000Y-107600000D03*
X154900000Y-107600000D03*
D20*
X139100000Y-93500000D03*
X139100000Y-97800000D03*
D22*
X154865000Y-85600000D03*
X153215000Y-85600000D03*
D24*
X148700000Y-93862500D03*
X148700000Y-98137500D03*
D25*
X150400000Y-70950000D03*
D26*
X151700000Y-70950000D03*
D22*
X137250000Y-83000000D03*
X135600000Y-83000000D03*
D27*
X136420000Y-85200000D03*
X136420000Y-89800000D03*
D28*
X142670000Y-87500000D03*
D29*
X151840000Y-87425000D03*
X151840000Y-88975000D03*
D30*
X165100000Y-82350000D03*
D31*
X165100000Y-84890000D03*
X165100000Y-87430000D03*
X165100000Y-89970000D03*
X165100000Y-92510000D03*
X165100000Y-95050000D03*
D32*
X128500000Y-76750000D03*
D33*
X128500000Y-76750000D03*
D34*
X162500000Y-100075000D03*
X162500000Y-98425000D03*
D25*
X150400000Y-75950000D03*
D26*
X151700000Y-75950000D03*
D35*
X135436100Y-73350000D03*
X136986100Y-73350000D03*
D36*
X164250000Y-100025000D03*
X164250000Y-98475000D03*
D37*
X129200000Y-80500000D03*
X127300000Y-80500000D03*
D38*
X153600000Y-93000000D03*
X154870000Y-93000000D03*
X156140000Y-93000000D03*
X157410000Y-93000000D03*
X157410000Y-87750000D03*
X156140000Y-87750000D03*
X154870000Y-87750000D03*
X153600000Y-87750000D03*
D21*
X126700000Y-104575000D03*
X126700000Y-106225000D03*
D39*
X162555826Y-77610369D03*
X157959632Y-73014175D03*
X165737806Y-74428389D03*
X161141612Y-69832195D03*
X158949581Y-76620420D03*
D35*
X135436100Y-74950000D03*
X136986100Y-74950000D03*
D32*
X128500000Y-99750000D03*
D33*
X128500000Y-99750000D03*
D40*
X127138600Y-89063900D03*
X129450000Y-89063900D03*
X131761400Y-89063900D03*
D41*
X129450000Y-82536100D03*
D42*
X131725000Y-91000000D03*
X130175000Y-91000000D03*
D43*
X160500000Y-110187500D03*
X160500000Y-108612500D03*
X158500000Y-110187500D03*
X158500000Y-108612500D03*
D44*
X142811100Y-70750000D03*
D45*
X142011100Y-70750000D03*
X141211100Y-70750000D03*
D44*
X140411100Y-70750000D03*
X140411100Y-72550000D03*
D45*
X141211100Y-72550000D03*
X142011100Y-72550000D03*
D44*
X142811100Y-72550000D03*
D21*
X160750000Y-98425000D03*
X160750000Y-100075000D03*
D25*
X150400000Y-73450000D03*
D26*
X151700000Y-73450000D03*
D46*
X130675000Y-105900000D03*
X130675000Y-106900000D03*
X130675000Y-107900000D03*
X130675000Y-108900000D03*
D47*
X133200000Y-104600000D03*
X133200000Y-110200000D03*
D21*
X152170000Y-96750000D03*
X152170000Y-98400000D03*
D32*
X158000000Y-96500000D03*
D33*
X158000000Y-96500000D03*
D48*
X139209150Y-74599999D03*
X139209150Y-75250000D03*
X139209150Y-75900001D03*
X139209150Y-76550000D03*
X139209150Y-77199999D03*
X139209150Y-77850000D03*
X139209150Y-78499999D03*
X145013050Y-78500001D03*
X145013050Y-77850000D03*
X145013050Y-77200001D03*
X145013050Y-76550000D03*
X145013050Y-75900001D03*
X145013050Y-75250000D03*
X145013050Y-74600001D03*
D49*
X161500000Y-106350000D03*
X161500000Y-105050000D03*
X159300000Y-105050000D03*
X159300000Y-106350000D03*
D50*
X145300000Y-98250000D03*
X145300000Y-94950000D03*
%LPD*%
M02*
