M48
; DRILL file {KiCad 9.0.1} date 2025-05-14T09:31:43-0500
; FORMAT={-:-/ absolute / metric / decimal}
; #@! TF.CreationDate,2025-05-14T09:31:43-05:00
; #@! TF.GenerationSoftware,Kicad,Pcbnew,9.0.1
; #@! TF.FileFunction,Plated,1,2,PTH
FMAT,2
METRIC
; #@! TA.AperFunction,Plated,PTH,ViaDrill
T1C0.300
; #@! TA.AperFunction,Plated,PTH,ComponentDrill
T2C1.000
; #@! TA.AperFunction,Plated,PTH,ComponentDrill
T3C1.100
; #@! TA.AperFunction,Plated,PTH,ComponentDrill
T4C2.200
%
G90
G05
T1
X130.25Y-110.25
X132.4Y-82.0
X132.4Y-83.0
X133.2Y-91.0
X133.6Y-91.8
X133.8Y-107.9
X133.8Y-108.8
X135.25Y-110.25
X135.5Y-87.0
X135.5Y-88.0
X136.0Y-78.5
X136.5Y-87.0
X136.5Y-88.0
X137.5Y-87.0
X137.5Y-88.0
X139.0Y-80.0
X139.2Y-69.6
X140.9Y-83.1
X141.4Y-75.2
X142.4Y-101.8
X142.8Y-95.6
X143.0Y-91.5
X143.4Y-77.8
X143.8Y-71.6
X144.0Y-73.2
X145.514Y-79.586
X146.25Y-110.25
X146.4Y-73.4
X146.5Y-78.8
X147.4Y-75.2
X147.8Y-78.4
X147.8Y-79.8
X147.9Y-81.9
X147.9Y-82.9
X149.0Y-70.6
X150.0Y-100.2
X150.2Y-82.0
X151.8Y-78.6
X152.25Y-95.0
X153.0Y-69.4
X153.2Y-100.2
X153.9Y-84.6
X154.2Y-89.4
X156.0Y-72.8
X156.1Y-110.3
X156.2Y-106.1
X156.75Y-100.25
X159.0Y-100.5
X162.0Y-109.25
X162.8Y-103.2
X165.2Y-79.3
X166.0Y-100.0
T2
X165.1Y-82.35
X165.1Y-84.89
X165.1Y-87.43
X165.1Y-89.97
X165.1Y-92.51
X165.1Y-95.05
T3
X137.4Y-107.6
X140.9Y-107.6
X144.4Y-107.6
X147.9Y-107.6
X151.4Y-107.6
X154.9Y-107.6
X157.96Y-73.014
X158.95Y-76.62
X161.142Y-69.832
X162.556Y-77.61
X165.738Y-74.428
T4
X128.5Y-76.75
X128.5Y-99.75
X158.0Y-96.5
M30
